#N canvas 104 100 762 671 10;
#X declare -path ../jwy-bibliothek;
#X obj 262 406 inlet switch;
#X obj 55 565 *~, f 35;
#X obj 430 585 switch~;
#X obj 262 537 switch-control 2000 4000;
#X obj 403 559 t f f;
#X obj 538 57 declare -path ../jwy-bibliothek;
#X obj 55 482 drum-bank;
#X obj 55 503 *~ 0.8;
#X obj 58 215 count-ticks 360 4;
#X msg 322 128 openTxt;
#X obj 194 98 t f f;
#X obj 221 124 sel 1;
#X msg 392 206 read 1;
#X obj 58 118 r main-ticks;
#X obj 55 586 throw~ main-bus;
#X obj 121 340 + 1;
#X obj 88 340 f 1;
#X obj 88 382 + 1;
#X obj 88 361 % 127;
#X obj 55 420 pack 0 0;
#X obj 58 266 t a b;
#X msg 221 181 read \$1;
#X msg 394 180 write \$1;
#X obj 393 130 bng 15 250 50 0 empty empty empty 17 7 0 10 -262144
-1 -1;
#X obj 58 245 seqq 360 ../bs-compose/texts/\$2 1;
#X obj 221 145 f \$2;
#X obj 395 157 f \$2;
#X connect 0 0 3 0;
#X connect 1 0 14 0;
#X connect 3 0 1 1;
#X connect 3 1 4 0;
#X connect 4 0 10 0;
#X connect 4 1 2 0;
#X connect 6 0 7 0;
#X connect 7 0 1 0;
#X connect 8 0 24 0;
#X connect 9 0 24 1;
#X connect 10 0 8 3;
#X connect 10 1 11 0;
#X connect 11 0 25 0;
#X connect 12 0 24 1;
#X connect 13 0 8 0;
#X connect 15 0 16 1;
#X connect 16 0 15 0;
#X connect 16 0 18 0;
#X connect 17 0 19 1;
#X connect 18 0 17 0;
#X connect 19 0 6 0;
#X connect 20 0 19 0;
#X connect 20 1 16 0;
#X connect 21 0 24 1;
#X connect 22 0 24 1;
#X connect 23 0 26 0;
#X connect 24 0 20 0;
#X connect 25 0 21 0;
#X connect 26 0 22 0;
