#N canvas 179 91 812 654 10;
#X declare -path ../jwy-bibliothek;
#X msg 272 360 p-1 \$1;
#X obj 340 422 inlet switch;
#X obj 106 525 *~, f 35;
#X obj 481 545 switch~;
#X obj 313 497 switch-control 2000 4000;
#X obj 454 519 t f f;
#X obj 586 17 declare -path ../jwy-bibliothek;
#X obj 106 436 fm/fm-main presets/simple2 4;
#X obj 272 314 / 10;
#X obj 106 477 *~ 0.6;
#X obj 271 473 *~ 0.6;
#X obj 106 283 unpack 0 0 0, f 14;
#X obj 106 304 makenote 0 0 0;
#X obj 106 325 pack 0 0, f 14;
#X obj 272 265 + 1;
#X obj 272 288 % 10;
#X obj 272 335 * 0.75;
#X msg 271 415 open;
#X msg 407 327 trans \$1;
#X obj 106 546 throw~ main-bus;
#X obj 407 290 - 12;
#X msg 107 227 50 100 \$1 \, 54 100 \$1 \, 59 100 \$1 \, 64 100 \$1
;
#X obj 111 25 r local-fB-1;
#X obj 571 213 delay;
#X obj 571 94 t b b b;
#X msg 689 177 stop;
#X obj 593 130 random 12;
#X obj 593 151 * 62.5;
#X obj 593 172 i;
#X obj 111 100 unpack 0 0 0;
#X obj 407 254 t a a;
#X obj 407 228 %;
#X obj 111 76 t a b;
#X obj 481 174 random 12;
#X obj 501 139 sel 1;
#X obj 111 137 + 1;
#X obj 111 160 % 10;
#X obj 111 181 + 1;
#X obj 109 205 * 200;
#X obj 573 388 pack 0 0 0 0;
#X obj 573 308 random 4;
#X obj 573 329 + 1;
#X obj 573 430 s local-2-all;
#X obj 573 409 list prepend fB-1;
#X obj 693 40 inlet start;
#X connect 0 0 7 1;
#X connect 1 0 4 0;
#X connect 2 0 19 0;
#X connect 4 0 2 1;
#X connect 4 1 5 0;
#X connect 5 0 34 0;
#X connect 5 1 3 0;
#X connect 7 0 9 0;
#X connect 7 1 10 0;
#X connect 8 0 16 0;
#X connect 9 0 2 0;
#X connect 10 0 2 0;
#X connect 11 0 12 0;
#X connect 11 1 12 1;
#X connect 11 2 12 2;
#X connect 12 0 13 0;
#X connect 12 1 13 1;
#X connect 13 0 7 0;
#X connect 14 0 15 0;
#X connect 15 0 8 0;
#X connect 15 0 39 2;
#X connect 16 0 0 0;
#X connect 17 0 7 2;
#X connect 18 0 7 1;
#X connect 20 0 18 0;
#X connect 21 0 11 0;
#X connect 22 0 32 0;
#X connect 23 0 40 0;
#X connect 24 0 23 0;
#X connect 24 1 26 0;
#X connect 24 2 25 0;
#X connect 25 0 23 0;
#X connect 26 0 27 0;
#X connect 27 0 28 0;
#X connect 28 0 23 1;
#X connect 29 0 35 0;
#X connect 29 1 14 0;
#X connect 29 2 31 0;
#X connect 30 0 20 0;
#X connect 30 1 39 3;
#X connect 31 0 30 0;
#X connect 32 0 29 0;
#X connect 32 1 24 0;
#X connect 33 0 31 1;
#X connect 34 0 33 0;
#X connect 35 0 36 0;
#X connect 36 0 37 0;
#X connect 36 0 39 1;
#X connect 37 0 38 0;
#X connect 38 0 21 0;
#X connect 39 0 43 0;
#X connect 40 0 41 0;
#X connect 41 0 39 0;
#X connect 43 0 42 0;
#X connect 44 0 32 0;
