#N canvas 13 85 812 654 10;
#X declare -path ../jwy-bibliothek;
#X msg 272 360 p-1 \$1;
#X obj 340 422 inlet switch;
#X obj 106 525 *~, f 35;
#X obj 481 545 switch~;
#X obj 313 497 switch-control 2000 4000;
#X obj 454 519 t f f;
#X obj 586 17 declare -path ../jwy-bibliothek;
#X obj 272 314 / 10;
#X obj 106 283 unpack 0 0 0, f 14;
#X obj 106 304 makenote 0 0 0;
#X obj 106 325 pack 0 0, f 14;
#X obj 272 265 + 1;
#X obj 272 288 % 10;
#X obj 272 335 * 0.75;
#X msg 271 415 open;
#X msg 407 327 trans \$1;
#X obj 106 546 throw~ main-bus;
#X obj 111 5 r local-fB-1;
#X obj 571 271 delay;
#X obj 571 94 t b b b;
#X msg 668 224 stop;
#X obj 593 206 i;
#X obj 111 100 unpack 0 0 0;
#X obj 111 137 + 1;
#X obj 111 181 + 1;
#X obj 607 42 inlet start;
#X obj 658 527 s local-2-200;
#X obj 589 548 s local-2-300;
#X obj 570 526 s local-2-100;
#X obj 677 549 s local-2-400;
#X obj 571 480 route 1 2 3 4, f 28;
#X text 301 20 Arg 1: which number;
#X obj 571 300 list prepend \$1;
#X obj 571 321 list trim;
#X obj 571 342 route 1 2 3 4;
#N canvas 0 23 450 300 4er 0;
#X obj 35 14 inlet;
#X obj 35 35 random 3;
#X obj 35 108 outlet;
#X obj 35 56 sel 0 1 2;
#X msg 35 77 1;
#X msg 62 78 2;
#X msg 90 77 3;
#X connect 0 0 1 0;
#X connect 1 0 3 0;
#X connect 3 0 4 0;
#X connect 3 1 5 0;
#X connect 3 2 6 0;
#X connect 4 0 2 0;
#X connect 5 0 2 0;
#X connect 6 0 2 0;
#X restore 641 400 pd 4er;
#N canvas 0 23 450 300 3er 0;
#X obj 35 14 inlet;
#X obj 35 35 random 3;
#X obj 35 117 outlet;
#X obj 35 56 sel 0 1 2, f 44;
#X msg 35 77 1;
#X msg 120 80 2;
#X msg 208 80 4;
#X connect 0 0 1 0;
#X connect 1 0 3 0;
#X connect 3 0 4 0;
#X connect 3 1 5 0;
#X connect 3 2 6 0;
#X connect 4 0 2 0;
#X connect 5 0 2 0;
#X connect 6 0 2 0;
#X restore 617 377 pd 3er;
#N canvas 0 23 450 300 1er 0;
#X obj 35 14 inlet;
#X obj 35 35 random 3;
#X obj 35 117 outlet;
#X obj 35 56 sel 0 1 2, f 44;
#X msg 35 77 2;
#X msg 120 80 3;
#X msg 208 80 4;
#X connect 0 0 1 0;
#X connect 1 0 3 0;
#X connect 3 0 4 0;
#X connect 3 1 5 0;
#X connect 3 2 6 0;
#X connect 4 0 2 0;
#X connect 5 0 2 0;
#X connect 6 0 2 0;
#X restore 571 377 pd 1er;
#N canvas 0 23 450 300 2er 0;
#X obj 35 14 inlet;
#X obj 35 35 random 3;
#X obj 35 117 outlet;
#X obj 35 56 sel 0 1 2, f 44;
#X msg 208 80 4;
#X msg 35 77 1;
#X msg 120 80 3;
#X connect 0 0 1 0;
#X connect 1 0 3 0;
#X connect 3 0 5 0;
#X connect 3 1 6 0;
#X connect 3 2 4 0;
#X connect 4 0 2 0;
#X connect 5 0 2 0;
#X connect 6 0 2 0;
#X restore 594 400 pd 2er;
#X obj 106 436 fm/fm-main presets/\$2 4;
#X obj 111 67 t b a;
#X obj 702 362 loadbang;
#X obj 571 438 pack 0 s 0 0 0, f 31;
#X obj 702 383 symbol fb-1;
#X obj 593 185 * 125;
#X obj 589 155 + 1;
#X obj 702 45 inlet speed;
#X obj 111 33 spigot 0;
#X obj 106 477 *~ 0.4;
#X obj 241 473 *~ 0.4;
#X obj 589 134 random 32;
#X msg 107 227 50 100 \$1 \, 54 100 \$1 \, 59 100 \$1 \, 64 70 \$1
;
#X obj 109 205 * 320;
#X obj 381 150 random 24;
#X obj 381 171 / 24;
#X obj 381 213 * 24;
#X obj 381 234 i;
#X obj 381 192 pow 12;
#X obj 381 259 - 12;
#X obj 324 137 t b;
#X msg 494 260 200;
#X obj 111 160 % 24;
#X connect 0 0 39 1;
#X connect 1 0 4 0;
#X connect 2 0 16 0;
#X connect 4 0 2 1;
#X connect 4 1 5 0;
#X connect 5 0 47 1;
#X connect 5 1 3 0;
#X connect 7 0 13 0;
#X connect 8 0 9 0;
#X connect 8 1 9 1;
#X connect 8 2 9 2;
#X connect 9 0 10 0;
#X connect 9 1 10 1;
#X connect 10 0 39 0;
#X connect 11 0 12 0;
#X connect 12 0 7 0;
#X connect 12 0 42 3;
#X connect 13 0 0 0;
#X connect 14 0 39 2;
#X connect 15 0 39 1;
#X connect 17 0 47 0;
#X connect 18 0 32 0;
#X connect 19 0 18 0;
#X connect 19 1 50 0;
#X connect 19 2 20 0;
#X connect 20 0 18 0;
#X connect 21 0 18 1;
#X connect 22 0 23 0;
#X connect 22 1 11 0;
#X connect 22 2 59 0;
#X connect 23 0 61 0;
#X connect 24 0 52 0;
#X connect 25 0 40 0;
#X connect 30 0 28 0;
#X connect 30 1 26 0;
#X connect 30 2 27 0;
#X connect 30 3 29 0;
#X connect 32 0 33 0;
#X connect 33 0 34 0;
#X connect 34 0 37 0;
#X connect 34 1 38 0;
#X connect 34 2 36 0;
#X connect 34 3 35 0;
#X connect 35 0 42 0;
#X connect 36 0 42 0;
#X connect 37 0 42 0;
#X connect 38 0 42 0;
#X connect 39 0 48 0;
#X connect 39 1 49 0;
#X connect 40 0 19 0;
#X connect 40 1 22 0;
#X connect 41 0 43 0;
#X connect 42 0 30 0;
#X connect 43 0 42 1;
#X connect 44 0 21 0;
#X connect 45 0 44 0;
#X connect 46 0 44 1;
#X connect 47 0 40 0;
#X connect 48 0 2 0;
#X connect 49 0 2 0;
#X connect 50 0 45 0;
#X connect 51 0 8 0;
#X connect 52 0 51 0;
#X connect 53 0 54 0;
#X connect 54 0 57 0;
#X connect 55 0 56 0;
#X connect 56 0 58 0;
#X connect 57 0 55 0;
#X connect 58 0 15 0;
#X connect 59 0 53 0;
#X connect 59 0 60 0;
#X connect 60 0 42 4;
#X connect 61 0 24 0;
#X connect 61 0 42 2;
