#N canvas 432 114 812 654 10;
#X declare -path ../jwy-bibliothek;
#X msg 272 360 p-1 \$1;
#X obj 340 422 inlet switch;
#X obj 106 525 *~, f 35;
#X obj 481 545 switch~;
#X obj 313 497 switch-control 2000 4000;
#X obj 454 519 t f f;
#X obj 586 17 declare -path ../jwy-bibliothek;
#X obj 272 314 / 10;
#X obj 106 477 *~ 0.6;
#X obj 241 473 *~ 0.6;
#X obj 106 283 unpack 0 0 0, f 14;
#X obj 106 304 makenote 0 0 0;
#X obj 106 325 pack 0 0, f 14;
#X obj 272 265 + 1;
#X obj 272 288 % 10;
#X obj 272 335 * 0.75;
#X msg 271 415 open;
#X msg 407 327 trans \$1;
#X obj 106 546 throw~ main-bus;
#X obj 407 290 - 12;
#X msg 107 227 50 100 \$1 \, 54 100 \$1 \, 59 100 \$1 \, 64 100 \$1
;
#X obj 111 25 r local-fB-1;
#X obj 571 271 delay;
#X obj 571 94 t b b b;
#X msg 668 224 stop;
#X obj 593 185 * 62.5;
#X obj 593 206 i;
#X obj 111 100 unpack 0 0 0;
#X obj 407 254 t a a;
#X obj 407 228 %;
#X obj 439 200 random 12;
#X obj 439 173 sel 1;
#X obj 111 137 + 1;
#X obj 111 160 % 10;
#X obj 111 181 + 1;
#X obj 109 205 * 200;
#X obj 693 40 inlet start;
#X obj 658 527 s local-2-200;
#X obj 589 548 s local-2-300;
#X obj 570 526 s local-2-100;
#X obj 677 549 s local-2-400;
#X obj 571 480 route 1 2 3 4, f 28;
#X text 301 20 Arg 1: which number;
#X obj 571 300 list prepend \$1;
#X obj 571 321 list trim;
#X obj 571 342 route 1 2 3 4;
#N canvas 0 23 450 300 4er 0;
#X obj 35 14 inlet;
#X obj 35 35 random 3;
#X obj 35 108 outlet;
#X obj 35 56 sel 0 1 2;
#X msg 35 77 1;
#X msg 62 78 2;
#X msg 90 77 3;
#X connect 0 0 1 0;
#X connect 1 0 3 0;
#X connect 3 0 4 0;
#X connect 3 1 5 0;
#X connect 3 2 6 0;
#X connect 4 0 2 0;
#X connect 5 0 2 0;
#X connect 6 0 2 0;
#X restore 641 400 pd 4er;
#N canvas 0 23 450 300 3er 0;
#X obj 35 14 inlet;
#X obj 35 35 random 3;
#X obj 35 117 outlet;
#X obj 35 56 sel 0 1 2, f 44;
#X msg 35 77 1;
#X msg 120 80 2;
#X msg 208 80 4;
#X connect 0 0 1 0;
#X connect 1 0 3 0;
#X connect 3 0 4 0;
#X connect 3 1 5 0;
#X connect 3 2 6 0;
#X connect 4 0 2 0;
#X connect 5 0 2 0;
#X connect 6 0 2 0;
#X restore 617 377 pd 3er;
#N canvas 0 23 450 300 1er 0;
#X obj 35 14 inlet;
#X obj 35 35 random 3;
#X obj 35 117 outlet;
#X obj 35 56 sel 0 1 2, f 44;
#X msg 35 77 2;
#X msg 120 80 3;
#X msg 208 80 4;
#X connect 0 0 1 0;
#X connect 1 0 3 0;
#X connect 3 0 4 0;
#X connect 3 1 5 0;
#X connect 3 2 6 0;
#X connect 4 0 2 0;
#X connect 5 0 2 0;
#X connect 6 0 2 0;
#X restore 571 377 pd 1er;
#N canvas 0 23 450 300 2er 0;
#X obj 35 14 inlet;
#X obj 35 35 random 3;
#X obj 35 117 outlet;
#X obj 35 56 sel 0 1 2, f 44;
#X msg 208 80 4;
#X msg 35 77 1;
#X msg 120 80 3;
#X connect 0 0 1 0;
#X connect 1 0 3 0;
#X connect 3 0 5 0;
#X connect 3 1 6 0;
#X connect 3 2 4 0;
#X connect 4 0 2 0;
#X connect 5 0 2 0;
#X connect 6 0 2 0;
#X restore 594 400 pd 2er;
#X obj 106 436 fm/fm-main presets/\$2 4;
#X obj 697 91 random 12;
#X obj 697 112 / 12;
#X obj 697 133 pow 2;
#X obj 697 155 * 12;
#X obj 697 176 i;
#X obj 697 197 + 1;
#X obj 111 46 t b a;
#X obj 702 362 loadbang;
#X obj 571 438 pack 0 s 0 0 0, f 31;
#X obj 702 383 symbol fb-1;
#X connect 0 0 50 1;
#X connect 1 0 4 0;
#X connect 2 0 18 0;
#X connect 4 0 2 1;
#X connect 4 1 5 0;
#X connect 5 0 31 0;
#X connect 5 1 3 0;
#X connect 7 0 15 0;
#X connect 8 0 2 0;
#X connect 9 0 2 0;
#X connect 10 0 11 0;
#X connect 10 1 11 1;
#X connect 10 2 11 2;
#X connect 11 0 12 0;
#X connect 11 1 12 1;
#X connect 12 0 50 0;
#X connect 13 0 14 0;
#X connect 14 0 7 0;
#X connect 14 0 59 3;
#X connect 15 0 0 0;
#X connect 16 0 50 2;
#X connect 17 0 50 1;
#X connect 19 0 17 0;
#X connect 20 0 10 0;
#X connect 21 0 57 0;
#X connect 22 0 43 0;
#X connect 23 0 22 0;
#X connect 23 1 51 0;
#X connect 23 2 24 0;
#X connect 24 0 22 0;
#X connect 25 0 26 0;
#X connect 26 0 22 1;
#X connect 27 0 32 0;
#X connect 27 1 13 0;
#X connect 27 2 29 0;
#X connect 28 0 19 0;
#X connect 28 1 59 4;
#X connect 29 0 28 0;
#X connect 30 0 29 1;
#X connect 31 0 30 0;
#X connect 32 0 33 0;
#X connect 33 0 34 0;
#X connect 33 0 59 2;
#X connect 34 0 35 0;
#X connect 35 0 20 0;
#X connect 36 0 57 0;
#X connect 41 0 39 0;
#X connect 41 1 37 0;
#X connect 41 2 38 0;
#X connect 41 3 40 0;
#X connect 43 0 44 0;
#X connect 44 0 45 0;
#X connect 45 0 48 0;
#X connect 45 1 49 0;
#X connect 45 2 47 0;
#X connect 45 3 46 0;
#X connect 46 0 59 0;
#X connect 47 0 59 0;
#X connect 48 0 59 0;
#X connect 49 0 59 0;
#X connect 50 0 8 0;
#X connect 50 1 9 0;
#X connect 51 0 52 0;
#X connect 52 0 53 0;
#X connect 53 0 54 0;
#X connect 54 0 55 0;
#X connect 55 0 56 0;
#X connect 56 0 25 0;
#X connect 57 0 23 0;
#X connect 57 1 27 0;
#X connect 58 0 60 0;
#X connect 59 0 41 0;
#X connect 60 0 59 1;
