#N canvas 0 23 942 692 10;
#X declare -path ../jwy-bibliothek;
#X obj 155 282 inlet switch;
#X obj 106 525 *~, f 35;
#X obj 481 545 switch~;
#X obj 313 497 switch-control 2000 4000;
#X obj 454 519 t f f;
#X obj 586 17 declare -path ../jwy-bibliothek;
#X obj 106 546 throw~ main-bus;
#X obj 576 230 delay;
#X obj 571 64 t b b b;
#X msg 689 177 stop;
#X obj 593 151 * 62.5;
#X obj 111 76 t a b;
#X obj 111 181 + 1;
#X obj 115 417 drum-bank;
#X obj 115 438 *~ 0.7;
#X obj 111 55 r local-fB-2;
#X obj 111 101 unpack 0 0;
#X obj 174 128 + 3;
#X obj 182 157 % 127;
#X obj 111 202 pack 0 0;
#X obj 360 30 inlet;
#X obj 663 485 s local-2-200;
#X obj 594 506 s local-2-300;
#X obj 575 484 s local-2-100;
#X obj 682 507 s local-2-400;
#X obj 576 438 route 1 2 3 4, f 28;
#X obj 576 258 list prepend \$1;
#X obj 576 279 list trim;
#X obj 576 300 route 1 2 3 4;
#N canvas 0 23 450 300 4er 0;
#X obj 35 14 inlet;
#X obj 35 35 random 3;
#X obj 35 56 + 1;
#X obj 35 77 outlet;
#X connect 0 0 1 0;
#X connect 1 0 2 0;
#X connect 2 0 3 0;
#X restore 642 358 pd 4er;
#N canvas 0 23 450 300 3er 0;
#X obj 35 14 inlet;
#X obj 35 35 random 3;
#X obj 35 117 outlet;
#X obj 35 56 sel 0 1 2, f 44;
#X msg 35 77 1;
#X msg 120 80 2;
#X msg 208 80 4;
#X connect 0 0 1 0;
#X connect 1 0 3 0;
#X connect 3 0 4 0;
#X connect 3 1 5 0;
#X connect 3 2 6 0;
#X connect 4 0 2 0;
#X connect 5 0 2 0;
#X connect 6 0 2 0;
#X restore 618 335 pd 3er;
#N canvas 0 23 450 300 1er 0;
#X obj 35 14 inlet;
#X obj 35 35 random 3;
#X obj 35 117 outlet;
#X obj 35 56 sel 0 1 2, f 44;
#X msg 35 77 2;
#X msg 120 80 3;
#X msg 208 80 4;
#X connect 0 0 1 0;
#X connect 1 0 3 0;
#X connect 3 0 4 0;
#X connect 3 1 5 0;
#X connect 3 2 6 0;
#X connect 4 0 2 0;
#X connect 5 0 2 0;
#X connect 6 0 2 0;
#X restore 572 335 pd 1er;
#N canvas 0 23 450 300 2er 0;
#X obj 35 14 inlet;
#X obj 35 35 random 3;
#X obj 35 117 outlet;
#X obj 35 56 sel 0 1 2, f 44;
#X msg 208 80 4;
#X msg 35 77 1;
#X msg 120 80 3;
#X connect 0 0 1 0;
#X connect 1 0 3 0;
#X connect 3 0 5 0;
#X connect 3 1 6 0;
#X connect 3 2 4 0;
#X connect 4 0 2 0;
#X connect 5 0 2 0;
#X connect 6 0 2 0;
#X restore 595 358 pd 2er;
#X obj 709 295 loadbang;
#X obj 709 316 symbol fb-1;
#X obj 576 396 pack 0 s 0 0;
#X obj 589 102 f;
#X obj 625 101 + 1;
#X obj 589 123 % 12;
#X obj 111 160 % 8;
#X obj 110 128 f;
#X obj 141 129 + 1;
#X connect 0 0 3 0;
#X connect 1 0 6 0;
#X connect 3 0 1 1;
#X connect 3 1 4 0;
#X connect 4 1 2 0;
#X connect 7 0 26 0;
#X connect 8 0 7 0;
#X connect 8 1 36 0;
#X connect 8 2 9 0;
#X connect 9 0 7 0;
#X connect 10 0 7 1;
#X connect 11 0 16 0;
#X connect 11 1 8 0;
#X connect 12 0 19 0;
#X connect 13 0 14 0;
#X connect 14 0 1 0;
#X connect 15 0 11 0;
#X connect 16 0 40 0;
#X connect 16 1 17 0;
#X connect 17 0 18 0;
#X connect 17 0 35 3;
#X connect 18 0 19 1;
#X connect 19 0 13 0;
#X connect 20 0 11 0;
#X connect 25 0 23 0;
#X connect 25 1 22 0;
#X connect 25 2 21 0;
#X connect 25 3 24 0;
#X connect 26 0 27 0;
#X connect 27 0 28 0;
#X connect 28 0 31 0;
#X connect 28 1 32 0;
#X connect 28 2 30 0;
#X connect 28 3 29 0;
#X connect 29 0 35 0;
#X connect 30 0 35 0;
#X connect 31 0 35 0;
#X connect 32 0 35 0;
#X connect 33 0 34 0;
#X connect 34 0 35 1;
#X connect 35 0 25 0;
#X connect 36 0 37 0;
#X connect 36 0 38 0;
#X connect 37 0 36 1;
#X connect 38 0 10 0;
#X connect 39 0 12 0;
#X connect 39 0 35 2;
#X connect 40 0 41 0;
#X connect 40 0 39 0;
#X connect 41 0 40 1;
