#N canvas 0 23 942 692 10;
#X declare -path ../jwy-bibliothek;
#X obj 340 422 inlet switch;
#X obj 106 525 *~, f 35;
#X obj 481 545 switch~;
#X obj 313 497 switch-control 2000 4000;
#X obj 454 519 t f f;
#X obj 586 17 declare -path ../jwy-bibliothek;
#X obj 106 546 throw~ main-bus;
#X obj 571 213 delay;
#X obj 571 64 t b b b;
#X msg 689 177 stop;
#X obj 593 100 random 12;
#X obj 593 151 * 62.5;
#X obj 111 76 t a b;
#X obj 111 137 + 1;
#X obj 111 181 + 1;
#X obj 573 308 random 4;
#X obj 573 329 + 1;
#X obj 573 430 s local-2-all;
#X obj 115 417 drum-bank;
#X obj 115 438 *~ 0.7;
#X obj 111 55 r local-fB-2;
#X obj 593 121 + 1;
#X obj 111 101 unpack 0 0;
#X obj 182 136 + 3;
#X obj 182 157 % 127;
#X obj 573 388 pack 0 0 0;
#X obj 111 160 % 6;
#X obj 111 202 pack 0 0;
#X obj 573 409 list prepend fB-2;
#X connect 0 0 3 0;
#X connect 1 0 6 0;
#X connect 3 0 1 1;
#X connect 3 1 4 0;
#X connect 4 1 2 0;
#X connect 7 0 15 0;
#X connect 8 0 7 0;
#X connect 8 1 10 0;
#X connect 8 2 9 0;
#X connect 9 0 7 0;
#X connect 10 0 21 0;
#X connect 11 0 7 1;
#X connect 12 0 22 0;
#X connect 12 1 8 0;
#X connect 13 0 26 0;
#X connect 14 0 27 0;
#X connect 15 0 16 0;
#X connect 16 0 25 0;
#X connect 18 0 19 0;
#X connect 19 0 1 0;
#X connect 20 0 12 0;
#X connect 21 0 11 0;
#X connect 22 0 13 0;
#X connect 22 1 23 0;
#X connect 23 0 24 0;
#X connect 23 0 25 2;
#X connect 24 0 27 1;
#X connect 25 0 28 0;
#X connect 26 0 14 0;
#X connect 26 0 25 1;
#X connect 27 0 18 0;
#X connect 28 0 17 0;
