#N canvas 463 211 450 300 10;
#X obj 66 20 inlet;
#X obj 66 116 s local-fB-1;
#X obj 109 162 s local-fB-2;
#X obj 149 122 s local-fB-3;
#X obj 66 74 route fb-1 fb-2 fb-3;
#X obj 194 169 outlet;
#X connect 0 0 4 0;
#X connect 4 0 1 0;
#X connect 4 1 2 0;
#X connect 4 2 3 0;
#X connect 4 3 5 0;
