#N canvas 0 23 835 683 10;
#X declare -path ../jwy-bibliothek;
#X msg 225 384 p-1 \$1;
#X obj 340 422 inlet switch;
#X obj 106 525 *~, f 35;
#X obj 481 545 switch~;
#X obj 313 497 switch-control 2000 4000;
#X obj 454 519 t f f;
#X obj 586 17 declare -path ../jwy-bibliothek;
#X obj 281 305 / 10;
#X obj 646 500 drum-bank;
#X obj 646 467 pack 0 100;
#X obj 679 346 + 1;
#X obj 646 346 f 1;
#X obj 646 388 + 1;
#X obj 646 521 *~ 0.8;
#X obj 106 175 count-ticks 360 4;
#X msg 370 88 openTxt;
#X obj 242 58 t f f;
#X obj 269 84 sel 1;
#X msg 440 166 read 1;
#X obj 106 283 unpack 0 0 0, f 14;
#X obj 106 304 makenote 0 0 0;
#X obj 106 325 pack 0 0, f 14;
#X obj 253 258 f;
#X obj 281 259 + 1;
#X obj 281 282 % 10;
#X obj 225 359 * 0.75;
#X msg 271 415 open;
#X msg 425 365 trans \$1;
#X obj 170 248 sel 0;
#X obj 106 78 r main-ticks;
#X obj 106 546 throw~ main-bus;
#X obj 646 542 throw~ main-bus;
#X obj 106 205 seqq 360 ../bs-compose/texts/\$1 3;
#X obj 269 126 f \$2;
#X obj 443 111 f \$2;
#X msg 442 136 write \$1;
#X obj 447 81 bng 15 250 50 0 empty empty empty 17 7 0 10 -262144 -1
-1;
#X obj 314 52 bng 15 250 50 0 empty empty empty 17 7 0 10 -262144 -1
-1;
#X msg 246 162 read \$1;
#X obj 106 436 fm/fm-main presets/\$3 4;
#X obj 646 409 t a b;
#X obj 427 273 sel 0 1 2 3 4, f 23;
#X msg 428 306 0;
#X obj 398 200 f;
#X obj 426 201 + 1;
#X obj 427 248 % 5;
#X obj 427 224 + \$2;
#X msg 516 309 14;
#X obj 735 400 random 126;
#X obj 735 421 + 1;
#X obj 646 367 % 8;
#X msg 463 309 6;
#X msg 497 309 11;
#X obj 274 327 pow 2;
#X obj 241 473 *~ 0.24;
#X obj 106 477 *~ 0.24;
#X connect 0 0 39 1;
#X connect 1 0 4 0;
#X connect 2 0 30 0;
#X connect 4 0 2 1;
#X connect 4 1 5 0;
#X connect 5 0 16 0;
#X connect 5 1 3 0;
#X connect 7 0 53 0;
#X connect 8 0 13 0;
#X connect 9 0 8 0;
#X connect 10 0 11 1;
#X connect 11 0 10 0;
#X connect 11 0 50 0;
#X connect 12 0 40 0;
#X connect 13 0 31 0;
#X connect 14 0 28 0;
#X connect 14 0 32 0;
#X connect 15 0 32 1;
#X connect 16 0 14 3;
#X connect 16 1 17 0;
#X connect 17 0 33 0;
#X connect 18 0 32 1;
#X connect 19 0 20 0;
#X connect 19 1 20 1;
#X connect 19 2 20 2;
#X connect 20 0 21 0;
#X connect 20 1 21 1;
#X connect 21 0 39 0;
#X connect 22 0 23 0;
#X connect 23 0 22 1;
#X connect 23 0 24 0;
#X connect 24 0 7 0;
#X connect 25 0 0 0;
#X connect 26 0 39 2;
#X connect 27 0 39 1;
#X connect 28 0 22 0;
#X connect 28 0 11 0;
#X connect 28 0 43 0;
#X connect 29 0 14 0;
#X connect 32 0 19 0;
#X connect 33 0 38 0;
#X connect 34 0 35 0;
#X connect 35 0 32 1;
#X connect 36 0 34 0;
#X connect 37 0 33 0;
#X connect 38 0 32 1;
#X connect 39 0 55 0;
#X connect 39 1 54 0;
#X connect 40 0 9 0;
#X connect 40 1 48 0;
#X connect 41 0 42 0;
#X connect 41 1 51 0;
#X connect 41 2 52 0;
#X connect 41 3 47 0;
#X connect 41 4 51 0;
#X connect 42 0 27 0;
#X connect 43 0 44 0;
#X connect 44 0 43 1;
#X connect 44 0 46 0;
#X connect 45 0 41 0;
#X connect 46 0 45 0;
#X connect 47 0 27 0;
#X connect 48 0 49 0;
#X connect 49 0 9 1;
#X connect 50 0 12 0;
#X connect 51 0 27 0;
#X connect 52 0 27 0;
#X connect 53 0 25 0;
#X connect 54 0 2 0;
#X connect 55 0 2 0;
