#N canvas 0 23 1005 747 10;
#X declare -path ../jwy-bibliothek;
#X obj 209 175 count-ticks 360 4;
#X obj 275 120 r jwy-sync-pulse;
#X msg 275 141 sync bang;
#X msg 377 149 openTxt;
#X obj 209 477 *~ 0.7;
#X obj 374 473 *~ 0.7;
#X msg 533 322 0;
#X obj 440 388 pow 2;
#X obj 486 254 r jwy-sync-bpm;
#X obj 440 352 control-LFO 24 8;
#X obj 617 381 inlet switch;
#X obj 209 62 r main400-ticks;
#X obj 533 298 r jwy-sync-pulse;
#X obj 209 546 throw~ main400-bus;
#X msg 448 149 write 1;
#X msg 522 147 read 1;
#X obj 345 58 t f f;
#X obj 372 84 sel 1;
#X obj 209 525 *~, f 35;
#X obj 586 545 switch~;
#X obj 418 497 switch-control 2000 4000;
#X obj 559 520 t f f;
#X obj 559 571 s fmloop2-switch;
#X obj 345 34 r fmloop2-switch;
#X msg 249 344 p1 0.13;
#X msg 309 344 p2 0.3;
#X obj 209 202 seqq 360 ../bs-compose/texts400/fm2 3;
#X obj 440 223 r fmloop2-switch;
#X obj 440 409 * 0.4;
#X msg 439 435 p-2 \$1;
#X obj 209 223 unpack 0 0 0, f 14;
#X obj 209 244 makenote 0 0 0;
#X obj 209 285 pack 0 0, f 13;
#X msg 374 401 trans 0;
#X obj 689 17 declare -path ../jwy-bibliothek;
#X obj 209 436 fm/fm-main presets/fb-2 4;
#X connect 0 0 26 0;
#X connect 1 0 2 0;
#X connect 2 0 0 2;
#X connect 3 0 26 1;
#X connect 4 0 18 0;
#X connect 5 0 18 0;
#X connect 6 0 9 2;
#X connect 7 0 28 0;
#X connect 8 0 9 1;
#X connect 9 0 7 0;
#X connect 10 0 20 0;
#X connect 11 0 0 0;
#X connect 12 0 6 0;
#X connect 14 0 26 1;
#X connect 15 0 26 1;
#X connect 16 0 0 3;
#X connect 16 1 17 0;
#X connect 17 0 15 0;
#X connect 17 0 33 0;
#X connect 17 0 24 0;
#X connect 17 0 25 0;
#X connect 18 0 13 0;
#X connect 20 0 18 1;
#X connect 20 1 21 0;
#X connect 21 0 22 0;
#X connect 21 1 19 0;
#X connect 23 0 16 0;
#X connect 24 0 35 1;
#X connect 25 0 35 1;
#X connect 26 0 30 0;
#X connect 27 0 9 0;
#X connect 28 0 29 0;
#X connect 29 0 35 1;
#X connect 30 0 31 0;
#X connect 30 1 31 1;
#X connect 30 2 31 2;
#X connect 31 0 32 0;
#X connect 31 1 32 1;
#X connect 32 0 35 0;
#X connect 33 0 35 1;
#X connect 35 0 4 0;
#X connect 35 1 5 0;
