#N canvas 24 76 943 657 10;
#X declare -path ../jwy-bibliothek;
#X obj 209 175 count-ticks 360 4;
#X obj 275 120 r jwy-sync-pulse;
#X msg 275 141 sync bang;
#X msg 406 115 openTxt;
#X msg 358 163 start;
#X obj 209 477 *~ 0.7;
#X obj 374 473 *~ 0.7;
#X msg 441 450 p-1 \$1;
#X msg 533 322 0;
#X obj 440 388 pow 2;
#X obj 486 254 r jwy-sync-bpm;
#X obj 440 352 control-LFO 24 8;
#X obj 440 430 + 0.1;
#X obj 440 409 * 0.95;
#X obj 617 381 inlet switch;
#X obj 209 62 r main400-ticks;
#X obj 533 298 r jwy-sync-pulse;
#X obj 559 571 s fmloop1-switch;
#X obj 345 34 r fmloop1-switch;
#X obj 440 223 r fmloop1-switch;
#X obj 209 546 throw~ main400-bus;
#X msg 459 137 write 1;
#X msg 463 166 read 1;
#X obj 345 58 t f f;
#X obj 372 84 sel 1;
#X obj 209 525 *~, f 35;
#X obj 586 545 switch~;
#X obj 418 497 switch-control 2000 4000;
#X obj 559 520 t f f;
#X msg 374 401 trans -12;
#X obj 209 202 seqq 360 ../bs-compose/texts400/fm1 3;
#X obj 209 253 unpack 0 0 0, f 14;
#X obj 209 274 makenote 0 0 0;
#X obj 209 295 pack 0 0, f 14;
#X obj 209 436 fm/fm-main presets/simple2 8;
#X obj 689 17 declare -path ../jwy-bibliothek;
#X connect 0 0 30 0;
#X connect 1 0 2 0;
#X connect 2 0 0 2;
#X connect 3 0 30 1;
#X connect 4 0 30 1;
#X connect 5 0 25 0;
#X connect 6 0 25 0;
#X connect 7 0 34 1;
#X connect 8 0 11 2;
#X connect 9 0 13 0;
#X connect 10 0 11 1;
#X connect 11 0 9 0;
#X connect 12 0 7 0;
#X connect 13 0 12 0;
#X connect 14 0 27 0;
#X connect 15 0 0 0;
#X connect 16 0 8 0;
#X connect 18 0 23 0;
#X connect 19 0 11 0;
#X connect 21 0 30 1;
#X connect 22 0 30 1;
#X connect 23 0 0 3;
#X connect 23 1 24 0;
#X connect 24 0 22 0;
#X connect 24 0 29 0;
#X connect 25 0 20 0;
#X connect 27 0 25 1;
#X connect 27 1 28 0;
#X connect 28 0 17 0;
#X connect 28 1 26 0;
#X connect 29 0 34 1;
#X connect 30 0 31 0;
#X connect 31 0 32 0;
#X connect 31 1 32 1;
#X connect 31 2 32 2;
#X connect 32 0 33 0;
#X connect 32 1 33 1;
#X connect 33 0 34 0;
#X connect 34 0 5 0;
#X connect 34 1 6 0;
