#N canvas 42 31 1340 766 10;
#X obj 106 228 nbx 5 35 -1e+37 1e+37 0 0 empty empty 1-pattern 0 -8
0 10 -261234 -1 -1 1 256;
#X obj 225 228 nbx 5 35 -1e+37 1e+37 0 0 empty empty 2-pattern 0 -8
0 10 -204800 -1 -1 1 256;
#X obj 345 227 nbx 5 35 -1e+37 1e+37 0 0 empty empty 3-pattern 0 -8
0 10 -261682 -1 -1 1 256;
#X obj 477 227 nbx 5 35 -1e+37 1e+37 0 0 empty empty 4-pattern 0 -8
0 10 -204786 -1 -1 2 256;
#X obj 106 198 nbx 5 14 -1e+37 1e+37 0 0 empty empty empty 0 -8 0 10
-262144 -1 -1 6 256;
#X obj 109 105 vsl 25 64 0 127 0 0 empty empty empty 0 -9 0 10 -262144
-1 -1 4465 1;
#X obj 235 106 vsl 25 64 0 127 0 0 empty empty empty 0 -9 0 10 -262144
-1 -1 4465 1;
#X obj 352 107 vsl 25 64 0 127 0 0 empty empty empty 0 -9 0 10 -262144
-1 -1 4762 1;
#X obj 478 106 vsl 25 64 0 127 0 0 empty empty empty 0 -9 0 10 -262144
-1 -1 5457 1;
#X msg 805 103 vol \$1;
#X obj 628 259 jwy-sync-s razi-100.local 3013;
#X obj 986 639 jwy-sync-s razi-400.local 3013;
#X obj 621 638 jwy-sync-s razi-300.local 3013;
#X obj 999 257 jwy-sync-s razi-200.local 3013;
#X obj 628 233 r conneKt;
#X obj 986 610 r conneKt;
#X obj 999 221 r conneKt;
#X obj 628 603 r conneKt;
#X obj 737 200 r 2-all;
#X obj 1110 581 r 2-all;
#X obj 1125 183 r 2-all;
#X obj 778 540 r 2-all;
#X obj 226 199 nbx 5 14 -1e+37 1e+37 0 0 empty empty empty 0 -8 0 10
-262144 -1 -1 1 256;
#X obj 345 199 nbx 5 14 -1e+37 1e+37 0 0 empty empty empty 0 -8 0 10
-262144 -1 -1 1 256;
#X obj 476 199 nbx 5 14 -1e+37 1e+37 0 0 empty empty empty 0 -8 0 10
-262144 -1 -1 2 256;
#X obj 106 268 s \$0-1-patt;
#X obj 226 268 s \$0-2-patt;
#X obj 346 268 s \$0-3-patt;
#X obj 466 268 s \$0-4-patt;
#X obj 109 177 s \$0-1-vol;
#X obj 235 177 s \$0-2-vol;
#X obj 349 177 s \$0-3-vol;
#X obj 475 177 s \$0-4-vol;
#X obj 805 83 r \$0-1-vol;
#X msg 1163 477 vol \$1;
#X obj 106 348 nbx 5 35 -1e+37 1e+37 0 0 empty empty 1-voice 0 -8 0
10 -261234 -1 -1 1 256;
#X obj 225 348 nbx 5 35 -1e+37 1e+37 0 0 empty empty 2-voice 0 -8 0
10 -204800 -1 -1 1 256;
#X obj 345 347 nbx 5 35 -1e+37 1e+37 0 0 empty empty 3-voice 0 -8 0
10 -261682 -1 -1 1 256;
#X obj 477 347 nbx 5 35 -1e+37 1e+37 0 0 empty empty 4-voice 0 -8 0
10 -204786 -1 -1 1 256;
#X obj 107 320 nbx 5 14 -1e+37 1e+37 0 0 empty empty empty 0 -8 0 10
-262144 -1 -1 1 256;
#X obj 227 321 nbx 5 14 -1e+37 1e+37 0 0 empty empty empty 0 -8 0 10
-262144 -1 -1 1 256;
#X obj 346 321 nbx 5 14 -1e+37 1e+37 0 0 empty empty empty 0 -8 0 10
-262144 -1 -1 1 256;
#X obj 477 321 nbx 5 14 -1e+37 1e+37 0 0 empty empty empty 0 -8 0 10
-262144 -1 -1 1 256;
#X obj 108 388 s \$0-1-voice;
#X obj 226 388 s \$0-2-voice;
#X obj 345 389 s \$0-3-voice;
#X obj 477 389 s \$0-4-voice;
#X obj 820 130 r \$0-1-voice;
#X msg 820 150 voice \$1;
#X obj 834 172 r \$0-1-patt;
#X msg 834 192 pattern \$1;
#X msg 834 240 temp0 \$1;
#X obj 712 103 r \$0-1-temp;
#X obj 106 478 nbx 5 35 -1e+37 1e+37 0 0 empty empty 1-tempo 0 -8 0
10 -261234 -1 -1 0.666667 256;
#X obj 225 478 nbx 5 35 -1e+37 1e+37 0 0 empty empty 2-tempo 0 -8 0
10 -204800 -1 -1 1.33333 256;
#X obj 345 477 nbx 5 35 -1e+37 1e+37 0 0 empty empty 3-tempo 0 -8 0
10 -261682 -1 -1 1 256;
#X obj 477 477 nbx 5 35 -1e+37 1e+37 0 0 empty empty 4-tempo 0 -8 0
10 -204786 -1 -1 0.33333 256;
#X obj 106 448 nbx 5 14 -1e+37 1e+37 0 0 empty empty empty 0 -8 0 10
-262144 -1 -1 0.666667 256;
#X obj 226 449 nbx 5 14 -1e+37 1e+37 0 0 empty empty empty 0 -8 0 10
-262144 -1 -1 1.33333 256;
#X obj 345 449 nbx 5 14 -1e+37 1e+37 0 0 empty empty empty 0 -8 0 10
-262144 -1 -1 1 256;
#X obj 476 449 nbx 5 14 -1e+37 1e+37 0 0 empty empty empty 0 -8 0 10
-262144 -1 -1 0.33333 256;
#N canvas 0 23 878 300 voice-stuff 0;
#X obj 10 12 r cC-kontrol;
#X obj 10 54 / 127;
#X obj 10 96 i;
#X obj 88 52 r cC-kontrol-clck;
#X obj 88 94 sel 127;
#X msg 10 157 set \$1;
#X obj 11 214 outlet;
#X obj 10 75 * 5;
#X obj 10 33 route 8;
#X obj 88 73 route 8;
#X obj 215 10 r cC-kontrol;
#X obj 215 52 / 127;
#X obj 215 94 i;
#X obj 293 50 r cC-kontrol-clck;
#X obj 293 92 sel 127;
#X msg 215 155 set \$1;
#X obj 216 212 outlet;
#X obj 215 73 * 5;
#X obj 470 12 r cC-kontrol;
#X obj 470 54 / 127;
#X obj 470 96 i;
#X obj 548 52 r cC-kontrol-clck;
#X obj 548 94 sel 127;
#X msg 470 157 set \$1;
#X obj 471 214 outlet;
#X obj 470 75 * 5;
#X obj 675 10 r cC-kontrol;
#X obj 675 52 / 127;
#X obj 675 94 i;
#X obj 753 50 r cC-kontrol-clck;
#X obj 753 92 sel 127;
#X msg 675 155 set \$1;
#X obj 676 212 outlet;
#X obj 675 73 * 5;
#X obj 215 31 route 9;
#X obj 293 71 route 9;
#X obj 470 33 route 10;
#X obj 548 73 route 10;
#X obj 675 31 route 11;
#X obj 753 71 route 11;
#X obj 10 117 + 1;
#X obj 215 115 + 1;
#X obj 470 117 + 1;
#X obj 675 115 + 1;
#X connect 0 0 8 0;
#X connect 1 0 7 0;
#X connect 2 0 40 0;
#X connect 3 0 9 0;
#X connect 4 0 6 0;
#X connect 5 0 6 0;
#X connect 7 0 2 0;
#X connect 8 0 1 0;
#X connect 9 0 4 0;
#X connect 10 0 34 0;
#X connect 11 0 17 0;
#X connect 12 0 41 0;
#X connect 13 0 35 0;
#X connect 14 0 16 0;
#X connect 15 0 16 0;
#X connect 17 0 12 0;
#X connect 18 0 36 0;
#X connect 19 0 25 0;
#X connect 20 0 42 0;
#X connect 21 0 37 0;
#X connect 22 0 24 0;
#X connect 23 0 24 0;
#X connect 25 0 20 0;
#X connect 26 0 38 0;
#X connect 27 0 33 0;
#X connect 28 0 43 0;
#X connect 29 0 39 0;
#X connect 30 0 32 0;
#X connect 31 0 32 0;
#X connect 33 0 28 0;
#X connect 34 0 11 0;
#X connect 35 0 14 0;
#X connect 36 0 19 0;
#X connect 37 0 22 0;
#X connect 38 0 27 0;
#X connect 39 0 30 0;
#X connect 40 0 5 0;
#X connect 41 0 15 0;
#X connect 42 0 23 0;
#X connect 43 0 31 0;
#X restore 242 289 pd voice-stuff;
#X obj 106 520 s \$0-1-temp;
#X obj 226 518 s \$0-2-temp;
#X obj 345 519 s \$0-3-temp;
#X obj 477 519 s \$0-4-temp;
#N canvas 0 23 970 300 pattern-stuff 0;
#X obj 23 68 r cC-kontrol;
#X obj 23 89 route 4;
#X obj 23 110 / 127;
#X obj 23 131 * 24;
#X obj 23 152 i;
#X obj 67 113 r cC-kontrol-clck;
#X obj 67 155 sel 127;
#X msg 23 203 set \$1;
#X obj 67 134 route 4;
#X obj 249 61 r cC-kontrol;
#X obj 249 103 / 127;
#X obj 249 124 * 24;
#X obj 249 145 i;
#X obj 300 101 r cC-kontrol-clck;
#X obj 300 144 sel 127;
#X msg 249 197 set \$1;
#X obj 249 82 route 5;
#X obj 300 122 route 5;
#X obj 432 59 r cC-kontrol;
#X obj 432 101 / 127;
#X obj 432 122 * 24;
#X obj 432 143 i;
#X obj 483 99 r cC-kontrol-clck;
#X obj 483 142 sel 127;
#X msg 432 195 set \$1;
#X obj 432 80 route 6;
#X obj 483 120 route 6;
#X obj 621 62 r cC-kontrol;
#X obj 621 104 / 127;
#X obj 621 125 * 24;
#X obj 621 146 i;
#X obj 672 102 r cC-kontrol-clck;
#X obj 672 145 sel 127;
#X msg 621 198 set \$1;
#X obj 621 83 route 7;
#X obj 672 123 route 7;
#X obj 23 224 outlet;
#X obj 249 218 outlet;
#X obj 432 216 outlet;
#X obj 621 219 outlet;
#X obj 23 173 + 1;
#X obj 249 166 + 1;
#X obj 432 164 + 1;
#X obj 621 167 + 1;
#X connect 0 0 1 0;
#X connect 1 0 2 0;
#X connect 2 0 3 0;
#X connect 3 0 4 0;
#X connect 4 0 40 0;
#X connect 5 0 8 0;
#X connect 6 0 36 0;
#X connect 7 0 36 0;
#X connect 8 0 6 0;
#X connect 9 0 16 0;
#X connect 10 0 11 0;
#X connect 11 0 12 0;
#X connect 12 0 41 0;
#X connect 13 0 17 0;
#X connect 14 0 37 0;
#X connect 15 0 37 0;
#X connect 16 0 10 0;
#X connect 17 0 14 0;
#X connect 18 0 25 0;
#X connect 19 0 20 0;
#X connect 20 0 21 0;
#X connect 21 0 42 0;
#X connect 22 0 26 0;
#X connect 23 0 38 0;
#X connect 24 0 38 0;
#X connect 25 0 19 0;
#X connect 26 0 23 0;
#X connect 27 0 34 0;
#X connect 28 0 29 0;
#X connect 29 0 30 0;
#X connect 30 0 43 0;
#X connect 31 0 35 0;
#X connect 32 0 39 0;
#X connect 33 0 39 0;
#X connect 34 0 28 0;
#X connect 35 0 32 0;
#X connect 40 0 7 0;
#X connect 41 0 15 0;
#X connect 42 0 24 0;
#X connect 43 0 33 0;
#X restore 301 41 pd pattern-stuff;
#X obj 168 557 nbx 5 35 -1e+37 1e+37 0 0 empty empty master-tempo 0
-8 0 10 -203904 -1 -1 81 256;
#X obj 168 631 s master-tempo$;
#X obj 700 59 r master-tempo$;
#X obj 712 128 t b a;
#X msg 1184 520 voice \$1;
#X msg 1198 562 pattern \$1;
#X msg 1198 610 temp0 \$1;
#X obj 1064 429 r master-tempo$;
#X obj 1076 498 t b a;
#X obj 26 618 r cC-kontrol;
#X obj 26 639 route 16;
#X obj 26 660 / 127;
#X obj 26 681 * 450;
#X obj 26 702 i;
#X msg 1177 60 vol \$1;
#X msg 1192 107 voice \$1;
#X msg 1206 149 pattern \$1;
#X msg 1206 197 temp0 \$1;
#X obj 1072 16 r master-tempo$;
#X obj 1084 85 t b a;
#X msg 822 450 vol \$1;
#X msg 837 497 voice \$1;
#X msg 851 539 pattern \$1;
#X msg 851 587 temp0 \$1;
#X obj 717 406 r master-tempo$;
#X obj 729 475 t b a;
#N canvas 0 23 1431 564 voice-stuff 0;
#X obj 10 12 r cC-kontrol;
#X obj 10 57 / 127;
#X obj 10 105 i;
#X obj 65 299 r cC-kontrol-clck;
#X obj 65 341 sel 127;
#X msg 10 326 set \$1;
#X obj 10 368 outlet;
#X obj 65 320 route 12;
#X obj 10 33 route 12;
#X msg 10 147 4;
#X msg 38 147 3;
#X msg 97 167 1;
#X msg 128 147 0.75;
#X msg 67 147 1.33333;
#X msg 144 167 0.666667;
#X msg 168 147 0.5;
#X msg 206 147 0.33333;
#X msg 235 172 0.25;
#X msg 267 146 0.125;
#X obj 10 126 sel 0 1 2 3 4 5 6 7 8 9, f 52;
#X obj 10 78 * 10;
#X obj 350 12 r cC-kontrol;
#X obj 350 57 / 127;
#X obj 350 105 i;
#X obj 405 299 r cC-kontrol-clck;
#X obj 405 341 sel 127;
#X msg 350 326 set \$1;
#X obj 350 368 outlet;
#X msg 350 147 4;
#X msg 378 147 3;
#X msg 437 167 1;
#X msg 468 147 0.75;
#X msg 407 147 1.33333;
#X msg 484 167 0.666667;
#X msg 508 147 0.5;
#X msg 546 147 0.33333;
#X msg 575 172 0.25;
#X msg 607 146 0.125;
#X obj 350 126 sel 0 1 2 3 4 5 6 7 8 9, f 52;
#X obj 350 78 * 10;
#X obj 690 12 r cC-kontrol;
#X obj 690 57 / 127;
#X obj 690 105 i;
#X obj 745 299 r cC-kontrol-clck;
#X obj 745 341 sel 127;
#X msg 690 326 set \$1;
#X obj 690 368 outlet;
#X msg 690 147 4;
#X msg 718 147 3;
#X msg 777 167 1;
#X msg 808 147 0.75;
#X msg 747 147 1.33333;
#X msg 824 167 0.666667;
#X msg 848 147 0.5;
#X msg 886 147 0.33333;
#X msg 915 172 0.25;
#X msg 947 146 0.125;
#X obj 690 126 sel 0 1 2 3 4 5 6 7 8 9, f 52;
#X obj 690 78 * 10;
#X obj 1030 12 r cC-kontrol;
#X obj 1030 57 / 127;
#X obj 1030 105 i;
#X obj 1085 299 r cC-kontrol-clck;
#X obj 1085 341 sel 127;
#X msg 1030 326 set \$1;
#X obj 1030 368 outlet;
#X msg 1030 147 4;
#X msg 1058 147 3;
#X msg 1117 167 1;
#X msg 1148 147 0.75;
#X msg 1087 147 1.33333;
#X msg 1164 167 0.666667;
#X msg 1188 147 0.5;
#X msg 1226 147 0.33333;
#X msg 1255 172 0.25;
#X msg 1287 146 0.125;
#X obj 1030 126 sel 0 1 2 3 4 5 6 7 8 9, f 52;
#X obj 1030 78 * 10;
#X obj 350 33 route 13;
#X obj 405 320 route 13;
#X obj 745 320 route 14;
#X obj 690 33 route 14;
#X obj 1030 33 route 15;
#X obj 1085 320 route 15;
#X connect 0 0 8 0;
#X connect 1 0 20 0;
#X connect 2 0 19 0;
#X connect 3 0 7 0;
#X connect 4 0 6 0;
#X connect 5 0 6 0;
#X connect 7 0 4 0;
#X connect 8 0 1 0;
#X connect 9 0 5 0;
#X connect 10 0 5 0;
#X connect 11 0 5 0;
#X connect 12 0 5 0;
#X connect 13 0 5 0;
#X connect 14 0 5 0;
#X connect 15 0 5 0;
#X connect 16 0 5 0;
#X connect 17 0 5 0;
#X connect 18 0 5 0;
#X connect 19 0 9 0;
#X connect 19 1 10 0;
#X connect 19 2 13 0;
#X connect 19 3 11 0;
#X connect 19 4 12 0;
#X connect 19 5 14 0;
#X connect 19 6 15 0;
#X connect 19 7 16 0;
#X connect 19 8 17 0;
#X connect 19 9 18 0;
#X connect 20 0 2 0;
#X connect 21 0 78 0;
#X connect 22 0 39 0;
#X connect 23 0 38 0;
#X connect 24 0 79 0;
#X connect 25 0 27 0;
#X connect 26 0 27 0;
#X connect 28 0 26 0;
#X connect 29 0 26 0;
#X connect 30 0 26 0;
#X connect 31 0 26 0;
#X connect 32 0 26 0;
#X connect 33 0 26 0;
#X connect 34 0 26 0;
#X connect 35 0 26 0;
#X connect 36 0 26 0;
#X connect 37 0 26 0;
#X connect 38 0 28 0;
#X connect 38 1 29 0;
#X connect 38 2 32 0;
#X connect 38 3 30 0;
#X connect 38 4 31 0;
#X connect 38 5 33 0;
#X connect 38 6 34 0;
#X connect 38 7 35 0;
#X connect 38 8 36 0;
#X connect 38 9 37 0;
#X connect 39 0 23 0;
#X connect 40 0 81 0;
#X connect 41 0 58 0;
#X connect 42 0 57 0;
#X connect 43 0 80 0;
#X connect 44 0 46 0;
#X connect 45 0 46 0;
#X connect 47 0 45 0;
#X connect 48 0 45 0;
#X connect 49 0 45 0;
#X connect 50 0 45 0;
#X connect 51 0 45 0;
#X connect 52 0 45 0;
#X connect 53 0 45 0;
#X connect 54 0 45 0;
#X connect 55 0 45 0;
#X connect 56 0 45 0;
#X connect 57 0 47 0;
#X connect 57 1 48 0;
#X connect 57 2 51 0;
#X connect 57 3 49 0;
#X connect 57 4 50 0;
#X connect 57 5 52 0;
#X connect 57 6 53 0;
#X connect 57 7 54 0;
#X connect 57 8 55 0;
#X connect 57 9 56 0;
#X connect 58 0 42 0;
#X connect 59 0 82 0;
#X connect 60 0 77 0;
#X connect 61 0 76 0;
#X connect 62 0 83 0;
#X connect 63 0 65 0;
#X connect 64 0 65 0;
#X connect 66 0 64 0;
#X connect 67 0 64 0;
#X connect 68 0 64 0;
#X connect 69 0 64 0;
#X connect 70 0 64 0;
#X connect 71 0 64 0;
#X connect 72 0 64 0;
#X connect 73 0 64 0;
#X connect 74 0 64 0;
#X connect 75 0 64 0;
#X connect 76 0 66 0;
#X connect 76 1 67 0;
#X connect 76 2 70 0;
#X connect 76 3 68 0;
#X connect 76 4 69 0;
#X connect 76 5 71 0;
#X connect 76 6 72 0;
#X connect 76 7 73 0;
#X connect 76 8 74 0;
#X connect 76 9 75 0;
#X connect 77 0 61 0;
#X connect 78 0 22 0;
#X connect 79 0 25 0;
#X connect 80 0 44 0;
#X connect 81 0 41 0;
#X connect 82 0 60 0;
#X connect 83 0 63 0;
#X restore 247 414 pd voice-stuff - - - - - - -;
#X obj 456 650 loadbang;
#X msg 456 671 1;
#N canvas 138 129 1031 543 volume-stuff 0;
#X obj 145 50 r cC-kontrol;
#X obj 145 71 route 0;
#X obj 28 49 r cC-kontrol-clck;
#X obj 28 92 sel 127;
#X obj 28 70 route 0;
#X obj 28 115 f;
#X obj 56 115 + 1;
#X obj 28 136 % 2;
#X obj 65 197 f;
#X obj 172 117 sel 0;
#X obj 28 157 sel 0 1, f 13;
#X msg 28 198 0;
#X obj 145 95 t f f;
#X obj 93 330 outlet;
#X obj 345 50 r cC-kontrol;
#X obj 228 49 r cC-kontrol-clck;
#X obj 228 92 sel 127;
#X obj 228 115 f;
#X obj 256 115 + 1;
#X obj 228 136 % 2;
#X obj 265 197 f;
#X obj 372 117 sel 0;
#X obj 228 157 sel 0 1, f 13;
#X msg 228 198 0;
#X obj 345 95 t f f;
#X obj 293 330 outlet;
#X obj 555 50 r cC-kontrol;
#X obj 438 49 r cC-kontrol-clck;
#X obj 438 92 sel 127;
#X obj 438 115 f;
#X obj 466 115 + 1;
#X obj 438 136 % 2;
#X obj 475 197 f;
#X obj 582 117 sel 0;
#X obj 438 157 sel 0 1, f 13;
#X msg 438 198 0;
#X obj 555 95 t f f;
#X obj 503 330 outlet;
#X obj 755 50 r cC-kontrol;
#X obj 638 49 r cC-kontrol-clck;
#X obj 638 92 sel 127;
#X obj 638 115 f;
#X obj 666 115 + 1;
#X obj 638 136 % 2;
#X obj 675 197 f;
#X obj 782 117 sel 0;
#X obj 638 157 sel 0 1, f 13;
#X msg 638 198 0;
#X obj 755 95 t f f;
#X obj 703 330 outlet;
#X obj 228 70 route 1;
#X obj 345 71 route 1;
#X obj 438 70 route 2;
#X obj 555 71 route 2;
#X obj 638 70 route 3;
#X obj 755 71 route 3;
#X connect 0 0 1 0;
#X connect 1 0 12 0;
#X connect 2 0 4 0;
#X connect 3 0 5 0;
#X connect 4 0 3 0;
#X connect 5 0 6 0;
#X connect 5 0 7 0;
#X connect 6 0 5 1;
#X connect 7 0 10 0;
#X connect 8 0 13 0;
#X connect 9 1 8 1;
#X connect 10 0 11 0;
#X connect 10 1 8 0;
#X connect 11 0 13 0;
#X connect 12 0 13 0;
#X connect 12 1 9 0;
#X connect 14 0 51 0;
#X connect 15 0 50 0;
#X connect 16 0 17 0;
#X connect 17 0 18 0;
#X connect 17 0 19 0;
#X connect 18 0 17 1;
#X connect 19 0 22 0;
#X connect 20 0 25 0;
#X connect 21 1 20 1;
#X connect 22 0 23 0;
#X connect 22 1 20 0;
#X connect 23 0 25 0;
#X connect 24 0 25 0;
#X connect 24 1 21 0;
#X connect 26 0 53 0;
#X connect 27 0 52 0;
#X connect 28 0 29 0;
#X connect 29 0 30 0;
#X connect 29 0 31 0;
#X connect 30 0 29 1;
#X connect 31 0 34 0;
#X connect 32 0 37 0;
#X connect 33 1 32 1;
#X connect 34 0 35 0;
#X connect 34 1 32 0;
#X connect 35 0 37 0;
#X connect 36 0 37 0;
#X connect 36 1 33 0;
#X connect 38 0 55 0;
#X connect 39 0 54 0;
#X connect 40 0 41 0;
#X connect 41 0 42 0;
#X connect 41 0 43 0;
#X connect 42 0 41 1;
#X connect 43 0 46 0;
#X connect 44 0 49 0;
#X connect 45 1 44 1;
#X connect 46 0 47 0;
#X connect 46 1 44 0;
#X connect 47 0 49 0;
#X connect 48 0 49 0;
#X connect 48 1 45 0;
#X connect 50 0 16 0;
#X connect 51 0 24 0;
#X connect 52 0 28 0;
#X connect 53 0 36 0;
#X connect 54 0 40 0;
#X connect 55 0 48 0;
#X restore 185 41 pd volume-stuff;
#X obj 1177 40 r \$0-2-vol;
#X obj 1192 87 r \$0-2-voice;
#X obj 1206 129 r \$0-2-patt;
#X obj 1084 60 r \$0-2-temp;
#X obj 851 519 r \$0-3-patt;
#X obj 837 477 r \$0-3-voice;
#X obj 822 430 r \$0-3-vol;
#X obj 729 450 r \$0-3-temp;
#X obj 1198 542 r \$0-4-patt;
#X obj 1184 500 r \$0-4-voice;
#X obj 1163 457 r \$0-4-vol;
#X obj 1076 473 r \$0-4-temp;
#X obj 700 150 * 1, f 7;
#X obj 1072 107 * 1, f 7;
#X obj 1064 520 * 1, f 7;
#X obj 717 497 * 1, f 7;
#X connect 0 0 25 0;
#X connect 1 0 26 0;
#X connect 2 0 27 0;
#X connect 3 0 28 0;
#X connect 4 0 0 0;
#X connect 5 0 29 0;
#X connect 6 0 30 0;
#X connect 7 0 31 0;
#X connect 8 0 32 0;
#X connect 9 0 10 1;
#X connect 14 0 10 0;
#X connect 15 0 11 0;
#X connect 16 0 13 0;
#X connect 17 0 12 0;
#X connect 18 0 10 1;
#X connect 19 0 11 1;
#X connect 20 0 13 1;
#X connect 21 0 12 1;
#X connect 22 0 1 0;
#X connect 23 0 2 0;
#X connect 24 0 3 0;
#X connect 33 0 9 0;
#X connect 34 0 11 1;
#X connect 35 0 43 0;
#X connect 36 0 44 0;
#X connect 37 0 45 0;
#X connect 38 0 46 0;
#X connect 39 0 35 0;
#X connect 40 0 36 0;
#X connect 41 0 37 0;
#X connect 42 0 38 0;
#X connect 47 0 48 0;
#X connect 48 0 10 1;
#X connect 49 0 50 0;
#X connect 50 0 10 1;
#X connect 51 0 10 1;
#X connect 52 0 70 0;
#X connect 53 0 62 0;
#X connect 54 0 63 0;
#X connect 55 0 64 0;
#X connect 56 0 65 0;
#X connect 57 0 53 0;
#X connect 58 0 54 0;
#X connect 59 0 55 0;
#X connect 60 0 56 0;
#X connect 61 0 39 0;
#X connect 61 1 40 0;
#X connect 61 2 41 0;
#X connect 61 3 42 0;
#X connect 66 0 4 0;
#X connect 66 1 22 0;
#X connect 66 2 23 0;
#X connect 66 3 24 0;
#X connect 67 0 68 0;
#X connect 69 0 109 0;
#X connect 70 0 109 0;
#X connect 70 1 109 1;
#X connect 71 0 11 1;
#X connect 72 0 11 1;
#X connect 73 0 11 1;
#X connect 74 0 111 0;
#X connect 75 0 111 0;
#X connect 75 1 111 1;
#X connect 76 0 77 0;
#X connect 77 0 78 0;
#X connect 78 0 79 0;
#X connect 79 0 80 0;
#X connect 80 0 67 0;
#X connect 81 0 13 1;
#X connect 82 0 13 1;
#X connect 83 0 13 1;
#X connect 84 0 13 1;
#X connect 85 0 110 0;
#X connect 86 0 110 0;
#X connect 86 1 110 1;
#X connect 87 0 12 1;
#X connect 88 0 12 1;
#X connect 89 0 12 1;
#X connect 90 0 12 1;
#X connect 91 0 112 0;
#X connect 92 0 112 0;
#X connect 92 1 112 1;
#X connect 93 0 57 0;
#X connect 93 1 58 0;
#X connect 93 2 59 0;
#X connect 93 3 60 0;
#X connect 94 0 95 0;
#X connect 95 0 56 0;
#X connect 95 0 55 0;
#X connect 95 0 54 0;
#X connect 95 0 53 0;
#X connect 96 0 5 0;
#X connect 96 1 6 0;
#X connect 96 2 7 0;
#X connect 96 3 8 0;
#X connect 97 0 81 0;
#X connect 98 0 82 0;
#X connect 99 0 83 0;
#X connect 100 0 86 0;
#X connect 101 0 89 0;
#X connect 102 0 88 0;
#X connect 103 0 87 0;
#X connect 104 0 92 0;
#X connect 105 0 72 0;
#X connect 106 0 71 0;
#X connect 107 0 34 0;
#X connect 108 0 75 0;
#X connect 109 0 51 0;
#X connect 110 0 84 0;
#X connect 111 0 73 0;
#X connect 112 0 90 0;
#X coords 0 -1 1 1 500 500 1 100 100;
