#N canvas 319 114 969 659 10;
#X declare -path ../externals/jwy-bibliothek;
#X declare -path ../jwy-bibliothek;
#X obj 226 468 *~ 0.7;
#X obj 418 409 hsl 128 15 0 127 0 0 empty empty empty -2 -8 0 10 -262144
-1 -1 2500 1;
#X obj 403 451 / 127;
#X msg 403 492 master-vol \$1;
#X obj 579 446 hsl 128 15 0 127 0 0 empty empty empty -2 -8 0 10 -262144
-1 -1 0 1;
#X obj 576 472 / 127;
#X msg 576 503 tweet-vol \$1;
#X msg 495 571 lo-x \$1;
#X msg 560 571 hi-x \$1;
#X floatatom 495 549 5 0 0 0 - - -;
#X floatatom 560 548 5 0 0 0 - - -;
#X obj 226 568 cross-over-out 2500 4000 1 0.5;
#X obj 25 17 declare -path ../externals/jwy-bibliothek;
#X obj 25 46 declare -path ../jwy-bibliothek;
#X obj 485 172 loadbang;
#X obj 485 193 del 2000;
#X obj 485 214 t b b b b b;
#X msg 625 270 \; pd dsp 1;
#X msg 441 83 120;
#X msg 372 69 1;
#X msg 322 68 0;
#X msg 463 305 25;
#X msg 402 167 openTxt;
#X obj 709 126 jwy-sync-r 3003;
#X obj 406 27 r jwy-sync-bpm;
#X obj 296 26 r jwy-sync-pulse;
#X obj 709 147 route vol seq;
#X msg 747 195 read \$1;
#X obj 372 120 master-ticks 360;
#X obj 188 222 seqq 360 ../bs-compose/texts100/texts 2;
#X obj 188 186 count-ticks 360 4;
#X obj 188 256 drum-bank;
#X obj 76 366 catch~ main100-bus;
#X obj 372 141 s main400-ticks;
#X obj 187 162 r main400-ticks;
#X obj 188 277 throw~ main100-bus;
#X msg 519 122 write 7;
#X msg 490 255 read 7;
#X connect 0 0 11 0;
#X connect 1 0 2 0;
#X connect 2 0 3 0;
#X connect 3 0 11 1;
#X connect 4 0 5 0;
#X connect 5 0 6 0;
#X connect 6 0 11 1;
#X connect 7 0 11 1;
#X connect 8 0 11 1;
#X connect 9 0 7 0;
#X connect 10 0 8 0;
#X connect 14 0 15 0;
#X connect 15 0 16 0;
#X connect 16 0 37 0;
#X connect 16 1 19 0;
#X connect 16 2 18 0;
#X connect 16 3 21 0;
#X connect 16 4 17 0;
#X connect 18 0 28 2;
#X connect 19 0 28 0;
#X connect 20 0 28 0;
#X connect 21 0 1 0;
#X connect 22 0 29 1;
#X connect 23 0 26 0;
#X connect 24 0 28 2;
#X connect 25 0 28 1;
#X connect 26 0 1 0;
#X connect 26 1 27 0;
#X connect 27 0 29 1;
#X connect 28 0 33 0;
#X connect 29 0 31 0;
#X connect 30 0 29 0;
#X connect 31 0 35 0;
#X connect 32 0 0 0;
#X connect 34 0 30 0;
#X connect 36 0 29 1;
#X connect 37 0 29 1;
