#N canvas 91 25 550 329 10;
#X declare -path ../jwy-bibliothek;
#X declare -path ../jwy-bibliothek;
#X obj 17 16 declare -path ../jwy-bibliothek;
#N canvas 0 23 420 233 output~ 0;
#X obj 49 111 *~ 0.7;
#X obj 226 94 / 127;
#X msg 226 115 master-vol \$1;
#X obj 49 141 cross-over-out 3200 4000 1 0.5;
#X obj 249 67 inlet;
#X obj 226 41 r master-vol;
#X obj 49 80 catch~ main-bus;
#X connect 0 0 3 0;
#X connect 1 0 2 0;
#X connect 2 0 3 1;
#X connect 4 0 1 0;
#X connect 5 0 1 0;
#X connect 6 0 0 0;
#X restore 26 300 pd output~;
#N canvas 138 255 517 492 init 1;
#X text 5 6 This is the master computer when the 4 are doing the installation
composition;
#X obj 11 36 loadbang;
#X msg 200 107 \; pd dsp 1;
#N canvas 686 178 450 486 connect 0;
#X obj 21 15 inlet;
#X obj 21 56 t b b b, f 11;
#X obj 198 384 r local-2-400;
#X obj 198 263 r local-2-300;
#X obj 198 133 r local-2-200;
#X obj 118 91 r local-2-all;
#X obj 118 11 r local-reKon;
#X obj 21 163 jwy-sync-s razi-200.local 3011;
#X obj 21 293 jwy-sync-s razi-300.local 3011;
#X obj 21 414 jwy-sync-s razi-400.local 3011;
#X obj 21 192 sel 0;
#X obj 21 437 sel 0;
#X obj 48 214 t b;
#X obj 21 321 sel 0;
#X obj 48 343 t b;
#X obj 48 459 t b;
#X obj 116 330 f 0;
#X obj 144 331 + 1;
#X obj 116 372 s konnekted;
#X obj 111 229 print 200-con;
#X obj 199 340 print 300-con;
#X obj 108 458 print 400-con;
#X obj 116 351 sel 2;
#X connect 0 0 1 0;
#X connect 1 0 7 0;
#X connect 1 1 8 0;
#X connect 1 2 9 0;
#X connect 2 0 9 1;
#X connect 3 0 8 1;
#X connect 4 0 7 1;
#X connect 5 0 7 1;
#X connect 5 0 8 1;
#X connect 5 0 9 1;
#X connect 6 0 1 0;
#X connect 7 0 10 0;
#X connect 7 0 19 0;
#X connect 8 0 13 0;
#X connect 8 0 20 0;
#X connect 9 0 11 0;
#X connect 9 0 21 0;
#X connect 10 1 12 0;
#X connect 11 1 15 0;
#X connect 12 0 16 0;
#X connect 13 1 14 0;
#X connect 14 0 16 0;
#X connect 15 0 16 0;
#X connect 16 0 17 0;
#X connect 16 0 22 0;
#X connect 17 0 16 1;
#X connect 22 0 18 0;
#X restore 74 150 pd connect;
#X obj 11 83 t b b b b, f 32;
#X obj 179 297 s local-init;
#X obj 157 429 s local-start;
#X obj 152 398 s local-2-all;
#X obj 75 304 s metro-pulse;
#X msg 38 349 pulse bang;
#X msg 158 341 start bang;
#X obj 15 268 t b b b b b b, f 26;
#X obj 11 62 del 15000;
#X obj 15 222 r konnekted;
#X obj 74 116 del 20000;
#X msg 149 131 1;
#X obj 149 156 s metro-start;
#X connect 1 0 12 0;
#X connect 4 1 14 0;
#X connect 4 2 15 0;
#X connect 4 3 2 0;
#X connect 9 0 7 0;
#X connect 10 0 7 0;
#X connect 11 1 9 0;
#X connect 11 2 8 0;
#X connect 11 3 6 0;
#X connect 11 4 10 0;
#X connect 11 5 5 0;
#X connect 12 0 4 0;
#X connect 13 0 11 0;
#X connect 14 0 3 0;
#X connect 15 0 16 0;
#X restore 15 47 pd init;
#N canvas 532 237 450 300 init-options 0;
#X obj 20 70 s master-vol;
#X obj 20 176 t f f;
#X obj 20 20 r local-init;
#X obj 20 109 r local-init;
#X obj 20 269 s metro-bpm;
#X obj 47 231 s local-2-all;
#X msg 20 154 120;
#X msg 20 46 32;
#X msg 47 201 bpm \$1;
#X obj 20 130 t b;
#X connect 1 0 4 0;
#X connect 1 1 8 0;
#X connect 2 0 7 0;
#X connect 3 0 9 0;
#X connect 6 0 1 0;
#X connect 7 0 0 0;
#X connect 8 0 5 0;
#X connect 9 0 6 0;
#X restore 17 79 pd init-options;
#N canvas 0 23 343 252 local-metro 0;
#X obj 77 175 master-ticks 360;
#X obj 77 196 s main-ticks;
#X obj 77 21 r metro-start;
#X obj 123 71 r metro-pulse;
#X obj 170 114 r metro-bpm;
#X connect 0 0 1 0;
#X connect 2 0 0 0;
#X connect 3 0 0 1;
#X connect 4 0 0 2;
#X restore 17 113 pd local-metro;
#N canvas 327 217 363 262 main-count 1;
#X obj 69 134 + 1;
#X msg 36 48 1;
#X obj 36 134 f 0;
#X obj 36 111 metro 60000;
#X obj 36 205 s master-count;
#X msg 96 164 count \$1;
#X obj 96 185 s local-2-all;
#X obj 36 20 r local-start;
#X obj 126 19 r REEE-LOOOOp;
#X obj 126 40 t b b;
#X msg 153 61 0;
#X connect 0 0 2 1;
#X connect 1 0 3 0;
#X connect 2 0 0 0;
#X connect 2 0 4 0;
#X connect 2 0 5 0;
#X connect 3 0 2 0;
#X connect 5 0 6 0;
#X connect 7 0 1 0;
#X connect 8 0 9 0;
#X connect 9 1 10 0;
#X connect 10 0 3 0;
#X restore 17 149 pd main-count;
#X obj 29 274 hsl 128 15 0 127 0 0 empty empty empty -2 -8 0 10 -262144
-1 -1 0 1;
#N canvas 128 43 1117 743 the-movements-100 0;
#X msg 37 102 1;
#X msg 133 118 0;
#X obj 134 39 r master-count;
#X text 226 37 the minutes;
#X obj 134 81 t b b;
#X msg 161 119 1;
#X obj 259 82 t b b;
#X msg 287 104 1;
#X msg 259 103 0;
#X obj 384 82 t b b;
#X msg 411 103 1;
#X msg 384 103 0;
#X obj 134 60 sel 5 10 15 20 25 30, f 126;
#X obj 37 210 drum-spin nSpin 1;
#X obj 161 207 drum-spin kSpin 1;
#X text 43 13 the Movements 100;
#X text 700 367 last 10 minutes is feedback stuff;
#X obj 508 85 t b b;
#X msg 535 106 1;
#X msg 508 106 0;
#X obj 635 87 t b b;
#X msg 662 108 1;
#X msg 635 108 0;
#N canvas 492 81 948 660 fmloop-2 0;
#X obj 209 175 count-ticks 360 4;
#X msg 473 88 openTxt;
#X obj 209 477 *~ 0.7;
#X obj 374 473 *~ 0.7;
#X msg 441 450 p-1 \$1;
#X msg 533 322 0;
#X obj 440 388 pow 2;
#X obj 486 254 r jwy-sync-bpm;
#X obj 440 352 control-LFO 24 8;
#X obj 440 430 + 0.1;
#X obj 440 409 * 0.95;
#X obj 617 381 inlet switch;
#X obj 533 298 r jwy-sync-pulse;
#X msg 487 164 read 1;
#X obj 345 58 t f f;
#X obj 372 84 sel 1;
#X obj 209 525 *~, f 35;
#X obj 586 545 switch~;
#X obj 418 497 switch-control 2000 4000;
#X obj 559 520 t f f;
#X obj 209 253 unpack 0 0 0, f 14;
#X obj 209 274 makenote 0 0 0;
#X obj 209 295 pack 0 0, f 14;
#X obj 209 437 fm/fm-main presets/simple2 8;
#X obj 689 17 declare -path ../jwy-bibliothek;
#X msg 483 135 write 1;
#X msg 543 166 read 1;
#X obj 210 202 seqq 360 ../bs-compose/texts100/fm1 3;
#X msg 374 401 trans 0;
#X obj 209 546 throw~ main-bus;
#X obj 209 78 r main-ticks;
#X connect 0 0 27 0;
#X connect 1 0 27 1;
#X connect 2 0 16 0;
#X connect 3 0 16 0;
#X connect 4 0 23 1;
#X connect 5 0 8 2;
#X connect 6 0 10 0;
#X connect 7 0 8 1;
#X connect 8 0 6 0;
#X connect 9 0 4 0;
#X connect 10 0 9 0;
#X connect 11 0 18 0;
#X connect 12 0 5 0;
#X connect 13 0 27 1;
#X connect 14 0 0 3;
#X connect 14 1 15 0;
#X connect 15 0 13 0;
#X connect 15 0 28 0;
#X connect 16 0 29 0;
#X connect 18 0 16 1;
#X connect 18 1 19 0;
#X connect 19 0 14 0;
#X connect 19 0 8 0;
#X connect 19 1 17 0;
#X connect 20 0 21 0;
#X connect 20 1 21 1;
#X connect 20 2 21 2;
#X connect 21 0 22 0;
#X connect 21 1 22 1;
#X connect 22 0 23 0;
#X connect 23 0 2 0;
#X connect 23 1 3 0;
#X connect 25 0 27 1;
#X connect 26 0 27 1;
#X connect 27 0 20 0;
#X connect 28 0 23 1;
#X connect 30 0 0 0;
#X restore 758 202 pd fmloop-2;
#X obj 471 203 fm-spiral fm2 1 fb2;
#X obj 37 81 r local-start;
#X obj 72 236 % 5;
#X obj 72 259 sel 0;
#X obj 99 334 s local-2-all;
#X msg 99 312 pulse bang;
#X obj 72 363 s metro-pulse;
#X obj 72 280 t b b;
#X obj 287 207 fm-spiral fm1 1 fb1;
#X obj 197 441 s metro-bpm;
#X obj 224 403 s local-2-all;
#X msg 224 373 bpm \$1;
#X obj 197 324 line 60 1000;
#X obj 197 348 t f f;
#X obj 131 581 sel 35 40 45 50 55 60, f 117;
#X obj 871 656 s REEE-LOOOOp;
#X obj 830 616 t b b;
#X msg 830 637 0;
#X obj 654 692 s free-feedback;
#X obj 765 87 t b b;
#X msg 792 108 1;
#X msg 765 108 0;
#X obj 121 607 t b b;
#X msg 149 629 1;
#X msg 121 628 0;
#X obj 246 607 t b b;
#X msg 273 628 1;
#X msg 246 628 0;
#X obj 370 610 t b b;
#X msg 397 631 1;
#X msg 370 631 0;
#X obj 497 612 t b b;
#X msg 524 633 1;
#X msg 497 633 0;
#X obj 627 612 t b b;
#X msg 654 633 1;
#X msg 627 633 0;
#X msg 377 293 120 30000;
#X msg 302 295 60 120000;
#X msg 197 298 420 60000;
#X obj 147 248 sel 1 2 4 15, f 35;
#X connect 0 0 13 0;
#X connect 1 0 13 0;
#X connect 2 0 12 0;
#X connect 2 0 26 0;
#X connect 2 0 64 0;
#X connect 4 0 1 0;
#X connect 4 1 5 0;
#X connect 5 0 14 0;
#X connect 6 0 8 0;
#X connect 6 1 7 0;
#X connect 7 0 32 0;
#X connect 8 0 14 0;
#X connect 9 0 11 0;
#X connect 9 1 10 0;
#X connect 10 0 24 0;
#X connect 11 0 32 0;
#X connect 12 0 4 0;
#X connect 12 1 6 0;
#X connect 12 2 9 0;
#X connect 12 3 17 0;
#X connect 12 4 20 0;
#X connect 12 5 43 0;
#X connect 12 6 38 0;
#X connect 17 0 19 0;
#X connect 17 1 18 0;
#X connect 19 0 32 0;
#X connect 20 0 22 0;
#X connect 20 1 21 0;
#X connect 25 0 0 0;
#X connect 26 0 27 0;
#X connect 27 0 31 0;
#X connect 29 0 28 0;
#X connect 31 0 30 0;
#X connect 31 1 29 0;
#X connect 35 0 34 0;
#X connect 36 0 37 0;
#X connect 37 0 33 0;
#X connect 37 1 35 0;
#X connect 38 0 46 0;
#X connect 38 1 49 0;
#X connect 38 2 52 0;
#X connect 38 3 55 0;
#X connect 38 4 58 0;
#X connect 38 6 40 0;
#X connect 40 0 41 0;
#X connect 40 1 39 0;
#X connect 43 0 45 0;
#X connect 43 1 44 0;
#X connect 46 0 48 0;
#X connect 46 1 47 0;
#X connect 49 0 51 0;
#X connect 49 1 50 0;
#X connect 52 0 54 0;
#X connect 52 1 53 0;
#X connect 55 0 57 0;
#X connect 55 1 56 0;
#X connect 58 0 60 0;
#X connect 58 1 59 0;
#X connect 59 0 42 0;
#X connect 62 0 36 0;
#X connect 63 0 36 0;
#X connect 64 0 31 0;
#X connect 64 1 31 0;
#X connect 64 1 63 0;
#X connect 64 2 62 0;
#X connect 64 3 61 0;
#X restore 215 144 pd the-movements-100;
#N canvas 744 250 474 401 incoming-messages 0;
#X obj 65 43 jwy-sync-r 3013;
#X text 165 42 the master computer;
#X obj 303 174 outlet;
#X obj 145 282 s metro-pulse;
#X obj 93 308 s local-reKon;
#X obj 42 335 s master-vol;
#X obj 197 257 s metro-bpm;
#X obj 212 232 s metro-start;
#X msg 214 209 1;
#X obj 42 149 route vol reKon pulse bpm start count, f 44;
#X obj 257 200 s master-count;
#X obj 43 13 jwy-sync-r 3014;
#X text 139 13 'the feedback;
#X connect 0 0 9 0;
#X connect 8 0 7 0;
#X connect 9 0 5 0;
#X connect 9 1 4 0;
#X connect 9 2 3 0;
#X connect 9 3 6 0;
#X connect 9 4 8 0;
#X connect 9 5 10 0;
#X connect 9 6 2 0;
#X connect 11 0 9 0;
#X restore 374 17 pd incoming-messages;
#X connect 6 0 1 0;
