#N canvas 674 422 527 328 10;
#X declare -path ../jwy-bibliothek;
#X declare -path ../jwy-bibliothek;
#X declare -path ../jwy-bibliothek;
#X obj 15 15 declare -path ../jwy-bibliothek;
#N canvas 0 23 420 233 output~ 0;
#X obj 49 111 *~ 0.7;
#X obj 226 94 / 127;
#X msg 226 115 master-vol \$1;
#X obj 49 141 cross-over-out 3200 4000 1 0.5;
#X obj 249 67 inlet;
#X obj 226 41 r master-vol;
#X obj 49 80 catch~ main-bus;
#X connect 0 0 3 0;
#X connect 1 0 2 0;
#X connect 2 0 3 1;
#X connect 4 0 1 0;
#X connect 5 0 1 0;
#X connect 6 0 0 0;
#X restore 15 286 pd output~;
#N canvas 146 255 358 324 init 0;
#X text 5 6 This is the master computer when the 4 are doing the installation
composition;
#X obj 11 56 loadbang;
#X obj 11 82 del 2000;
#X msg 200 127 \; pd dsp 1;
#X obj 11 103 t b b b b, f 32;
#X obj 11 194 del 10000;
#X msg 168 238 pulse \, start;
#X obj 15 219 t b b b;
#X msg 128 267 1;
#X obj 145 164 s local-init;
#X obj 15 300 s local-start;
#X obj 128 292 s metro-start;
#X obj 168 265 s local-2-all;
#X connect 1 0 2 0;
#X connect 2 0 4 0;
#X connect 4 0 5 0;
#X connect 4 2 9 0;
#X connect 4 3 3 0;
#X connect 5 0 7 0;
#X connect 6 0 12 0;
#X connect 7 0 10 0;
#X connect 7 1 8 0;
#X connect 7 2 6 0;
#X connect 8 0 11 0;
#X restore 13 46 pd init;
#N canvas 532 237 450 300 init-options 0;
#X obj 20 70 s master-vol;
#X obj 20 20 r local-init;
#X msg 20 46 32;
#X connect 1 0 2 0;
#X connect 2 0 0 0;
#X restore 15 78 pd init-options;
#N canvas 0 23 343 252 local-metro 0;
#X obj 77 175 master-ticks 360;
#X floatatom 207 143 5 0 0 0 - - -;
#X obj 77 196 s main-ticks;
#X obj 77 21 r metro-start;
#X obj 123 71 r metro-pulse;
#X obj 170 114 r metro-bpm;
#X connect 0 0 2 0;
#X connect 1 0 0 2;
#X connect 3 0 0 0;
#X connect 4 0 0 1;
#X connect 5 0 0 2;
#X restore 15 112 pd local-metro;
#X obj 18 260 hsl 128 15 0 127 0 0 empty empty empty -2 -8 0 10 -262144
-1 -1 0 1;
#N canvas 744 250 474 401 incoming-messages 0;
#X obj 43 13 jwy-sync-r 3011;
#X obj 65 43 jwy-sync-r 3013;
#X text 139 13 'the peers' the other computers;
#X text 165 42 the master computer;
#X obj 303 174 outlet;
#X obj 145 282 s metro-pulse;
#X obj 93 308 s local-reKon;
#X obj 42 335 s master-vol;
#X obj 197 257 s metro-bpm;
#X obj 212 232 s metro-start;
#X msg 214 209 1;
#X obj 42 149 route vol reKon pulse bpm start count, f 44;
#X obj 257 200 s master-count;
#X connect 0 0 11 0;
#X connect 1 0 11 0;
#X connect 10 0 9 0;
#X connect 11 0 7 0;
#X connect 11 1 6 0;
#X connect 11 2 5 0;
#X connect 11 3 8 0;
#X connect 11 4 10 0;
#X connect 11 5 12 0;
#X connect 11 6 4 0;
#X restore 374 17 pd incoming-messages;
#N canvas 128 43 1117 835 the-movements 0;
#X msg 37 97 1;
#X msg 133 113 0;
#X obj 134 34 r master-count;
#X text 226 32 the minutes;
#X obj 134 76 t b b;
#X msg 161 114 1;
#N canvas 140 66 1082 676 fm-spiral-200 0;
#X msg 375 360 p-1 \$1;
#X obj 551 433 inlet switch;
#X obj 209 525 *~, f 35;
#X obj 584 545 switch~;
#X obj 416 497 switch-control 2000 4000;
#X obj 557 519 t f f;
#X obj 689 17 declare -path ../jwy-bibliothek;
#X obj 209 436 fm/fm-main presets/simple2 4;
#X obj 375 314 / 10;
#X obj 209 477 *~ 0.6;
#X obj 374 473 *~ 0.6;
#X obj 749 500 drum-bank;
#X obj 749 467 pack 0 100;
#X obj 782 386 + 1;
#X obj 749 386 f 1;
#X obj 749 407 % 5;
#X obj 749 428 + 1;
#X obj 749 521 *~ 0.8;
#X obj 209 175 count-ticks 360 4;
#X msg 473 88 openTxt;
#X msg 372 121 read 1;
#X obj 345 58 t f f;
#X obj 372 84 sel 1;
#X msg 483 135 write 1;
#X msg 543 166 read 1;
#X obj 209 283 unpack 0 0 0, f 14;
#X obj 209 304 makenote 0 0 0;
#X obj 209 325 pack 0 0, f 14;
#X obj 356 259 f;
#X obj 383 261 + 1;
#X obj 383 282 % 10;
#X obj 375 335 * 0.75;
#X msg 374 415 open;
#X msg 533 336 trans \$1;
#X floatatom 569 301 5 0 0 0 - - -;
#X floatatom 785 435 5 0 0 0 - - -;
#X obj 273 248 sel 0;
#X obj 209 78 r main-ticks;
#X obj 209 546 throw~ main-bus;
#X obj 749 542 throw~ main-bus;
#X obj 209 205 seqq 360 ../bs-compose/texts200/fm1 3;
#X connect 0 0 7 1;
#X connect 1 0 4 0;
#X connect 2 0 38 0;
#X connect 4 0 2 1;
#X connect 4 1 5 0;
#X connect 5 0 21 0;
#X connect 5 1 3 0;
#X connect 7 0 9 0;
#X connect 7 1 10 0;
#X connect 8 0 31 0;
#X connect 9 0 2 0;
#X connect 10 0 2 0;
#X connect 11 0 17 0;
#X connect 12 0 11 0;
#X connect 13 0 14 1;
#X connect 14 0 13 0;
#X connect 14 0 15 0;
#X connect 15 0 16 0;
#X connect 16 0 12 0;
#X connect 16 0 35 0;
#X connect 17 0 39 0;
#X connect 18 0 36 0;
#X connect 18 0 40 0;
#X connect 19 0 40 1;
#X connect 20 0 40 1;
#X connect 21 0 18 3;
#X connect 21 1 22 0;
#X connect 22 0 20 0;
#X connect 22 0 33 0;
#X connect 23 0 40 1;
#X connect 24 0 40 1;
#X connect 25 0 26 0;
#X connect 25 1 26 1;
#X connect 25 2 26 2;
#X connect 26 0 27 0;
#X connect 26 1 27 1;
#X connect 27 0 7 0;
#X connect 28 0 29 0;
#X connect 29 0 28 1;
#X connect 29 0 30 0;
#X connect 30 0 8 0;
#X connect 31 0 0 0;
#X connect 32 0 7 2;
#X connect 33 0 7 1;
#X connect 34 0 33 0;
#X connect 36 0 28 0;
#X connect 36 0 14 0;
#X connect 37 0 18 0;
#X connect 40 0 25 0;
#X restore 287 202 pd fm-spiral-200;
#N canvas 492 81 948 660 fmloop-2 0;
#X obj 209 175 count-ticks 360 4;
#X msg 473 88 openTxt;
#X obj 209 477 *~ 0.7;
#X obj 374 473 *~ 0.7;
#X msg 441 450 p-1 \$1;
#X msg 533 322 0;
#X obj 440 388 pow 2;
#X obj 486 254 r jwy-sync-bpm;
#X obj 440 352 control-LFO 24 8;
#X obj 440 430 + 0.1;
#X obj 440 409 * 0.95;
#X obj 617 381 inlet switch;
#X obj 533 298 r jwy-sync-pulse;
#X msg 487 164 read 1;
#X obj 345 58 t f f;
#X obj 372 84 sel 1;
#X obj 209 525 *~, f 35;
#X obj 586 545 switch~;
#X obj 418 497 switch-control 2000 4000;
#X obj 559 520 t f f;
#X obj 209 253 unpack 0 0 0, f 14;
#X obj 209 274 makenote 0 0 0;
#X obj 209 295 pack 0 0, f 14;
#X obj 209 437 fm/fm-main presets/simple2 8;
#X obj 689 17 declare -path ../jwy-bibliothek;
#X msg 483 135 write 1;
#X msg 543 166 read 1;
#X obj 210 202 seqq 360 ../bs-compose/texts100/fm1 3;
#X msg 374 401 trans 0;
#X obj 209 546 throw~ main-bus;
#X obj 209 78 r main-ticks;
#X connect 0 0 27 0;
#X connect 1 0 27 1;
#X connect 2 0 16 0;
#X connect 3 0 16 0;
#X connect 4 0 23 1;
#X connect 5 0 8 2;
#X connect 6 0 10 0;
#X connect 7 0 8 1;
#X connect 8 0 6 0;
#X connect 9 0 4 0;
#X connect 10 0 9 0;
#X connect 11 0 18 0;
#X connect 12 0 5 0;
#X connect 13 0 27 1;
#X connect 14 0 0 3;
#X connect 14 1 15 0;
#X connect 15 0 13 0;
#X connect 15 0 28 0;
#X connect 16 0 29 0;
#X connect 18 0 16 1;
#X connect 18 1 19 0;
#X connect 19 0 14 0;
#X connect 19 0 8 0;
#X connect 19 1 17 0;
#X connect 20 0 21 0;
#X connect 20 1 21 1;
#X connect 20 2 21 2;
#X connect 21 0 22 0;
#X connect 21 1 22 1;
#X connect 22 0 23 0;
#X connect 23 0 2 0;
#X connect 23 1 3 0;
#X connect 25 0 27 1;
#X connect 26 0 27 1;
#X connect 27 0 20 0;
#X connect 28 0 23 1;
#X connect 30 0 0 0;
#X restore 411 202 pd fmloop-2;
#X obj 259 77 t b b;
#X msg 287 99 1;
#X msg 259 98 0;
#X obj 384 77 t b b;
#X msg 411 98 1;
#X msg 384 98 0;
#X obj 134 55 sel 5 10 15 20 25 30, f 126;
#X obj 131 416 sel 35 40 45 50 55, f 117;
#X text 40 6 THE MOVEMENTS 400;
#X obj 37 205 drum-spin nSpin 4;
#X obj 161 202 drum-spin kSpin 4;
#X obj 37 76 r local-start;
#X connect 0 0 17 0;
#X connect 1 0 17 0;
#X connect 2 0 14 0;
#X connect 4 0 1 0;
#X connect 4 1 5 0;
#X connect 5 0 18 0;
#X connect 8 0 10 0;
#X connect 8 1 9 0;
#X connect 9 0 6 0;
#X connect 10 0 18 0;
#X connect 11 0 13 0;
#X connect 11 1 12 0;
#X connect 12 0 7 0;
#X connect 13 0 6 0;
#X connect 14 0 4 0;
#X connect 14 1 8 0;
#X connect 14 2 11 0;
#X connect 14 6 15 0;
#X connect 19 0 0 0;
#X restore 205 134 pd the-movements;
#X connect 5 0 1 0;
