#N canvas 168 116 739 546 10;
#X declare -path ../jwy-bibliothek;
#X obj 36 14 declare -path ../jwy-bibliothek;
#X obj 31 69 jwy-sync-s razi-4.local;
#X obj 283 151 unpack 0 0 0;
#X obj 283 172 makenote, f 12;
#X obj 283 195 pack 0 0, f 12;
#X obj 283 224 add/additive-main 1 12 4;
#X obj 283 245 *~ 0.7;
#X obj 423 245 *~ 0.7;
#X obj 283 303 *~ 1;
#X obj 283 454 cross-over-out 5000 5000 1 0.5;
#X msg 71 322 master-vol \$1;
#X obj 75 275 hsl 128 15 0 127 0 0 empty empty empty -2 -8 0 10 -262144
-1 -1 2500 1;
#X obj 72 295 / 127;
#X obj 13 107 loadbang;
#X obj 12 129 del 2000;
#X obj 12 150 t b b b b b b;
#X msg 87 181 \; pd dsp 1;
#X msg 332 27 120, f 8;
#X msg 285 25 1;
#X obj 283 123 seqq ../bs-compose/texts400/texts 3;
#X msg 400 69 openTxt;
#X obj 283 102 count-360 4;
#X msg 72 240 25;
#N canvas 0 23 450 300 control 0;
#X obj 36 13 inlet;
#X obj 36 34 t b b b b b b;
#X msg 17 124 loadbang bang;
#X obj 29 236 outlet;
#X msg 148 82 hip 2;
#X msg 54 151 wave 4;
#X msg 162 123 lop 4;
#X floatatom 158 190 5 0 0 0 - - -;
#X msg 154 219 trans \$1;
#X msg 44 97 trans -25;
#X connect 0 0 1 0;
#X connect 1 0 2 0;
#X connect 1 1 9 0;
#X connect 1 2 5 0;
#X connect 1 3 4 0;
#X connect 1 4 6 0;
#X connect 2 0 3 0;
#X connect 4 0 3 0;
#X connect 5 0 3 0;
#X connect 6 0 3 0;
#X connect 7 0 8 0;
#X connect 8 0 3 0;
#X connect 9 0 3 0;
#X restore 424 194 pd control;
#N canvas 0 23 450 300 filter 0;
#X obj 91 15 inlet;
#X obj 91 36 t b;
#X obj 91 131 f;
#X obj 127 133 + 1;
#X obj 91 215 outlet;
#X msg 91 194 filter \$1;
#X msg 91 77 1;
#X obj 91 97 metro 24;
#X obj 91 153 % 48;
#X obj 91 173 / 48;
#X connect 0 0 1 0;
#X connect 1 0 6 0;
#X connect 2 0 3 0;
#X connect 2 0 8 0;
#X connect 3 0 2 1;
#X connect 5 0 4 0;
#X connect 6 0 7 0;
#X connect 7 0 2 0;
#X connect 8 0 9 0;
#X connect 9 0 5 0;
#X restore 509 192 pd filter;
#X obj 166 167 jwy-sync-r 3003;
#X obj 309 6 r jwy-sync-pulse;
#X obj 412 17 r jwy-sync-bpm;
#X obj 166 188 route vol seq;
#X msg 203 217 read \$1;
#X msg 227 71 0;
#X floatatom 337 53 5 0 0 0 - - -;
#X obj 283 81 master-ticks 360;
#X msg 474 52 write 10;
#X msg 459 83 read 10;
#X msg 512 101 read 9;
#X connect 2 0 3 0;
#X connect 2 1 3 1;
#X connect 2 2 3 2;
#X connect 3 0 4 0;
#X connect 3 1 4 1;
#X connect 4 0 5 0;
#X connect 5 0 6 0;
#X connect 5 1 7 0;
#X connect 6 0 8 0;
#X connect 7 0 8 0;
#X connect 8 0 9 0;
#X connect 10 0 9 1;
#X connect 11 0 12 0;
#X connect 12 0 10 0;
#X connect 13 0 14 0;
#X connect 14 0 15 0;
#X connect 15 0 24 0;
#X connect 15 1 18 0;
#X connect 15 2 17 0;
#X connect 15 3 34 0;
#X connect 15 4 22 0;
#X connect 15 4 23 0;
#X connect 15 5 16 0;
#X connect 17 0 32 2;
#X connect 18 0 32 0;
#X connect 19 0 2 0;
#X connect 20 0 19 1;
#X connect 21 0 19 0;
#X connect 22 0 11 0;
#X connect 23 0 5 1;
#X connect 24 0 5 1;
#X connect 25 0 28 0;
#X connect 26 0 32 1;
#X connect 27 0 32 2;
#X connect 28 0 11 0;
#X connect 28 1 29 0;
#X connect 29 0 19 1;
#X connect 30 0 32 0;
#X connect 31 0 32 2;
#X connect 32 0 21 0;
#X connect 33 0 19 1;
#X connect 34 0 19 1;
#X connect 35 0 19 1;
