#N canvas 208 247 588 425 10;
#X declare -path ../jwy-bibliothek;
#X obj 36 14 declare -path ../jwy-bibliothek;
#X obj 31 69 jwy-sync-s razi-4.local;
#X obj 290 77 master-360;
#X obj 283 161 unpack 0 0 0;
#X obj 283 182 makenote, f 12;
#X obj 283 203 pack 0 0;
#X obj 283 224 add/additive-main 1 12 4;
#X obj 283 245 *~ 0.7;
#X obj 423 245 *~ 0.7;
#X obj 247 341 *~ 1;
#X obj 247 362 cross-over-out 5000 5000 1 0.5;
#X msg 31 337 master-vol \$1;
#X obj 35 290 hsl 128 15 0 127 0 0 empty empty empty -2 -8 0 10 -262144
-1 -1 3400 1;
#X obj 32 310 / 127;
#X obj 20 147 loadbang;
#X obj 20 168 del 2000;
#X obj 20 189 t b b b b b b;
#X msg 109 223 \; pd dsp 1;
#X msg 339 23 120, f 8;
#X msg 291 21 1;
#X msg 412 177 loadbang bang;
#X obj 290 119 seqq ../bs-compose/texts400/texts 3;
#X msg 407 65 openTxt;
#X msg 439 150 trans -24;
#X msg 481 48 write 2;
#X msg 466 79 read 2;
#X obj 290 98 count-360 4;
#X msg 68 249 46;
#X msg 448 205 wave 2;
#X connect 2 0 26 0;
#X connect 3 0 4 0;
#X connect 3 1 4 1;
#X connect 3 2 4 2;
#X connect 4 0 5 0;
#X connect 4 1 5 1;
#X connect 5 0 6 0;
#X connect 6 0 7 0;
#X connect 6 1 8 0;
#X connect 7 0 9 0;
#X connect 8 0 9 0;
#X connect 9 0 10 0;
#X connect 11 0 10 1;
#X connect 12 0 13 0;
#X connect 13 0 11 0;
#X connect 14 0 15 0;
#X connect 15 0 16 0;
#X connect 16 1 19 0;
#X connect 16 2 18 0;
#X connect 16 3 25 0;
#X connect 16 4 27 0;
#X connect 16 4 23 0;
#X connect 16 4 28 0;
#X connect 16 5 17 0;
#X connect 16 5 20 0;
#X connect 18 0 2 2;
#X connect 19 0 2 0;
#X connect 20 0 6 1;
#X connect 21 0 3 0;
#X connect 22 0 21 1;
#X connect 23 0 6 1;
#X connect 24 0 21 1;
#X connect 25 0 21 1;
#X connect 26 0 21 0;
#X connect 27 0 12 0;
#X connect 28 0 6 1;
