#N canvas 44 116 862 576 10;
#X declare -path ../jwy-bibliothek;
#X obj 36 14 declare -path ../jwy-bibliothek;
#X obj 486 203 jwy-sync-s razi-4.local 3003;
#X obj 487 167 bng 15 250 50 0 empty empty empty 17 7 0 10 -262144
-1 -1;
#X obj 77 162 bng 15 250 50 0 empty empty empty 17 7 0 10 -262144 -1
-1;
#X floatatom 312 33 5 0 0 0 - - -;
#X floatatom 156 164 5 0 0 0 - - -;
#X msg 694 173 vol \$1;
#X obj 696 146 hsl 128 15 0 127 0 0 empty empty empty -2 -8 0 10 -262144
-1 -1 0 1;
#X msg 241 166 vol \$1;
#X obj 249 143 hsl 128 15 0 127 0 0 empty empty empty -2 -8 0 10 -262144
-1 -1 0 1;
#X msg 640 98 seq \$1;
#X floatatom 655 76 5 0 0 0 - - -;
#X msg 160 95 seq \$1;
#X floatatom 175 73 5 0 0 0 - - -;
#X floatatom 749 83 5 0 0 0 - - -;
#X msg 749 103 trans \$1;
#X floatatom 90 74 5 0 0 0 - - -;
#X msg 90 94 trans \$1;
#X msg 389 27 start bang;
#X obj 573 44 tgl 15 0 empty empty empty 17 7 0 10 -262144 -1 -1 0
1;
#X obj 573 64 + 1;
#X msg 574 86 switch \$1;
#X msg 477 27 0;
#X floatatom 226 331 5 0 0 0 - - -;
#X floatatom 263 331 5 0 0 0 - - -;
#X floatatom 298 327 5 0 0 0 - - -;
#X obj 225 298 ctlin;
#X obj 402 296 notein;
#X obj 222 392 swap;
#X obj 221 414 pack 0 0;
#X obj 221 435 route 1 2;
#X obj 77 198 jwy-sync-s razi-100.local 3003;
#X connect 2 0 1 0;
#X connect 3 0 31 0;
#X connect 4 0 5 0;
#X connect 4 0 1 1;
#X connect 5 0 31 1;
#X connect 6 0 1 3;
#X connect 7 0 6 0;
#X connect 8 0 31 3;
#X connect 9 0 8 0;
#X connect 10 0 1 3;
#X connect 11 0 10 0;
#X connect 12 0 31 3;
#X connect 13 0 12 0;
#X connect 14 0 15 0;
#X connect 15 0 1 3;
#X connect 16 0 17 0;
#X connect 17 0 31 3;
#X connect 18 0 1 3;
#X connect 18 0 31 3;
#X connect 19 0 20 0;
#X connect 20 0 21 0;
#X connect 21 0 1 3;
#X connect 22 0 1 2;
#X connect 22 0 31 2;
#X connect 23 0 28 0;
#X connect 24 0 28 1;
#X connect 26 0 23 0;
#X connect 26 1 24 0;
#X connect 26 2 25 0;
#X connect 28 0 29 0;
#X connect 28 1 29 1;
#X connect 29 0 30 0;
#X connect 30 0 9 0;
#X connect 30 1 7 0;
