#N canvas 239 45 1024 733 10;
#X declare -path ../jwy-bibliothek;
#X declare -path ../jwy-bibliothek;
#X declare -path ../jwy-bibliothek;
#X obj 36 14 declare -path ../jwy-bibliothek;
#X obj 44 585 cross-over-out 5000 5000 1 0.5;
#X msg 221 558 master-vol \$1;
#X obj 222 531 / 127;
#X obj 424 67 r jwy-sync-bpm;
#X obj 331 92 master-ticks 360;
#X obj 331 14 r jwy-sync-start;
#X msg 331 35 1;
#N canvas 0 23 632 420 incoming-messages 0;
#X obj 42 11 jwy-sync-r 3003;
#X obj 42 74 route vol seq, f 35;
#X obj 42 114 s master-vol;
#X obj 148 42 jwy-sync-r 3004;
#X text 138 11 LAPTOP;
#X text 244 42 RAZI-100;
#X connect 0 0 1 0;
#X connect 1 0 2 0;
#X connect 3 0 1 0;
#X restore 564 45 pd incoming-messages;
#X obj 222 496 r master-vol;
#N canvas 444 52 996 697 init 0;
#X obj 105 66 loadbang;
#X obj 105 87 del 2000;
#X obj 105 108 t b b b b b, f 76;
#X msg 558 169 \; pd dsp 1;
#X text 206 78 delay 2 seconds after bash script runs this \, just
to be safe;
#X obj 331 189 s local-init;
#X connect 0 0 1 0;
#X connect 1 0 2 0;
#X connect 2 2 5 0;
#X connect 2 4 3 0;
#X restore 31 99 pd init;
#X msg 135 273 34;
#X obj 135 301 s master-vol;
#X obj 41 217 r local-init;
#X obj 41 238 t b b b b, f 24;
#X obj 88 328 s load-on;
#X obj 517 141 r jwy-sync-count;
#X obj 377 37 r jwy-sync-pulse;
#X msg 377 58 0;
#N canvas 0 23 1105 699 drumz 0;
#X obj 90 430 count-ticks 360 4;
#X obj 157 375 r jwy-sync-pulse;
#X msg 157 396 sync bang;
#X msg 342 421 read 15;
#X msg 313 397 write 15;
#X obj 89 485 drum-bank;
#X obj 89 506 *~ 0.7;
#X msg 287 370 openTxt;
#X obj 89 527 throw~ main400-bus;
#X msg 239 418 start;
#X obj 90 457 seqq 360 ../bs-compose/texts400/texts 2;
#X obj 493 393 r jwy-sync-pulse;
#X msg 493 414 sync bang;
#X obj 425 503 drum-bank;
#X obj 425 524 *~ 0.7;
#X msg 623 388 openTxt;
#X obj 425 545 throw~ main400-bus;
#X msg 575 436 start;
#X obj 426 475 seqq 360 ../bs-compose/texts400/texts 2;
#X msg 649 415 write 16;
#X msg 678 439 read 16;
#X msg 681 476 read 15;
#X obj 426 448 count-ticks 360 3;
#X connect 0 0 10 0;
#X connect 1 0 2 0;
#X connect 2 0 0 2;
#X connect 3 0 10 1;
#X connect 4 0 10 1;
#X connect 5 0 6 0;
#X connect 6 0 8 0;
#X connect 7 0 10 1;
#X connect 9 0 10 1;
#X connect 10 0 5 0;
#X connect 11 0 12 0;
#X connect 12 0 22 2;
#X connect 13 0 14 0;
#X connect 14 0 16 0;
#X connect 15 0 18 1;
#X connect 17 0 18 1;
#X connect 18 0 13 0;
#X connect 19 0 18 1;
#X connect 20 0 18 1;
#X connect 21 0 18 1;
#X connect 22 0 18 0;
#X restore 311 275 pd drumz;
#X msg 517 183 1;
#X obj 580 195 t b b;
#X msg 580 216 0;
#X msg 607 217 1;
#X text 80 150 this is the last receiver install;
#X obj 263 456 hsl 128 15 0 127 0 0 empty empty empty -2 -8 0 10 -262144
-1 -1 10400 1;
#X obj 517 162 sel 0 16, f 26;
#X msg 446 101 120;
#X obj 331 113 s main200-ticks;
#N canvas 0 23 948 660 fmloop-1 0;
#X obj 209 175 count-ticks 360 4;
#X msg 473 88 openTxt;
#X obj 209 477 *~ 0.7;
#X obj 374 473 *~ 0.7;
#X msg 441 450 p-1 \$1;
#X msg 533 322 0;
#X obj 440 388 pow 2;
#X obj 486 254 r jwy-sync-bpm;
#X obj 440 352 control-LFO 24 8;
#X obj 440 430 + 0.1;
#X obj 440 409 * 0.95;
#X obj 617 381 inlet switch;
#X obj 533 298 r jwy-sync-pulse;
#X obj 440 223 r fmloop1-switch;
#X msg 487 164 read 1;
#X obj 345 58 t f f;
#X obj 372 84 sel 1;
#X obj 209 525 *~, f 35;
#X obj 586 545 switch~;
#X obj 418 497 switch-control 2000 4000;
#X obj 559 520 t f f;
#X msg 374 401 trans -12;
#X obj 209 253 unpack 0 0 0, f 14;
#X obj 209 274 makenote 0 0 0;
#X obj 209 295 pack 0 0, f 14;
#X obj 209 436 fm/fm-main presets/simple2 8;
#X obj 689 17 declare -path ../jwy-bibliothek;
#X obj 209 78 r main200-ticks;
#X msg 543 166 read 2;
#X obj 209 202 seqq 360 ../bs-compose/texts200/fm1 3;
#X msg 483 135 write 1;
#X obj 209 546 throw~ main200-bus;
#X connect 0 0 29 0;
#X connect 1 0 29 1;
#X connect 2 0 17 0;
#X connect 3 0 17 0;
#X connect 4 0 25 1;
#X connect 5 0 8 2;
#X connect 6 0 10 0;
#X connect 7 0 8 1;
#X connect 8 0 6 0;
#X connect 9 0 4 0;
#X connect 10 0 9 0;
#X connect 11 0 19 0;
#X connect 12 0 5 0;
#X connect 13 0 8 0;
#X connect 14 0 29 1;
#X connect 15 0 0 3;
#X connect 15 1 16 0;
#X connect 16 0 14 0;
#X connect 16 0 21 0;
#X connect 17 0 31 0;
#X connect 19 0 17 1;
#X connect 19 1 20 0;
#X connect 20 0 15 0;
#X connect 20 1 18 0;
#X connect 21 0 25 1;
#X connect 22 0 23 0;
#X connect 22 1 23 1;
#X connect 22 2 23 2;
#X connect 23 0 24 0;
#X connect 23 1 24 1;
#X connect 24 0 25 0;
#X connect 25 0 2 0;
#X connect 25 1 3 0;
#X connect 27 0 0 0;
#X connect 28 0 29 1;
#X connect 29 0 22 0;
#X connect 30 0 29 1;
#X restore 517 296 pd fmloop-1;
#N canvas 417 59 948 660 fmloop-2 0;
#X obj 209 175 count-ticks 360 4;
#X msg 406 115 openTxt;
#X obj 209 477 *~ 0.7;
#X obj 374 473 *~ 0.7;
#X msg 533 322 0;
#X obj 486 254 r jwy-sync-bpm;
#X obj 441 347 control-LFO 24 8;
#X obj 617 381 inlet switch;
#X obj 533 298 r jwy-sync-pulse;
#X obj 440 223 r fmloop1-switch;
#X msg 487 164 read 1;
#X obj 345 58 t f f;
#X obj 372 84 sel 1;
#X obj 209 525 *~, f 35;
#X obj 586 545 switch~;
#X obj 418 497 switch-control 2000 4000;
#X obj 559 520 t f f;
#X msg 374 401 trans -12;
#X obj 209 253 unpack 0 0 0, f 14;
#X obj 209 274 makenote 0 0 0;
#X obj 209 295 pack 0 0, f 14;
#X obj 689 17 declare -path ../jwy-bibliothek;
#X obj 209 78 r main200-ticks;
#X msg 483 135 write 2;
#X msg 543 166 read 2;
#X obj 443 379 pow 2;
#X msg 262 365 p1 0.13;
#X msg 322 365 p2 0.3;
#X obj 443 400 * 0.4;
#X msg 442 426 p-2 \$1;
#X obj 209 436 fm/fm-main presets/fb-2 4;
#X obj 209 202 seqq 360 ../bs-compose/texts200/fm2 3;
#X obj 210 546 throw~ main200-bus;
#X connect 0 0 31 0;
#X connect 1 0 31 1;
#X connect 2 0 13 0;
#X connect 3 0 13 0;
#X connect 4 0 6 2;
#X connect 5 0 6 1;
#X connect 6 0 25 0;
#X connect 7 0 15 0;
#X connect 8 0 4 0;
#X connect 9 0 6 0;
#X connect 10 0 31 1;
#X connect 11 0 0 3;
#X connect 11 1 12 0;
#X connect 12 0 10 0;
#X connect 12 0 17 0;
#X connect 12 0 26 0;
#X connect 12 0 27 0;
#X connect 13 0 32 0;
#X connect 15 0 13 1;
#X connect 15 1 16 0;
#X connect 16 0 11 0;
#X connect 16 1 14 0;
#X connect 17 0 30 1;
#X connect 18 0 19 0;
#X connect 18 1 19 1;
#X connect 18 2 19 2;
#X connect 19 0 20 0;
#X connect 19 1 20 1;
#X connect 20 0 30 0;
#X connect 22 0 0 0;
#X connect 23 0 31 1;
#X connect 24 0 31 1;
#X connect 25 0 28 0;
#X connect 26 0 30 1;
#X connect 27 0 30 1;
#X connect 28 0 29 0;
#X connect 29 0 30 1;
#X connect 30 0 2 0;
#X connect 30 1 3 0;
#X connect 31 0 18 0;
#X restore 607 295 pd fmloop-2;
#X obj 45 510 catch~ main200-bus;
#X connect 2 0 1 1;
#X connect 3 0 2 0;
#X connect 4 0 5 2;
#X connect 5 0 28 0;
#X connect 6 0 7 0;
#X connect 7 0 5 0;
#X connect 9 0 3 0;
#X connect 11 0 12 0;
#X connect 13 0 14 0;
#X connect 14 1 15 0;
#X connect 14 2 11 0;
#X connect 16 0 26 0;
#X connect 17 0 18 0;
#X connect 18 0 5 1;
#X connect 20 0 29 0;
#X connect 21 0 22 0;
#X connect 21 1 23 0;
#X connect 22 0 29 0;
#X connect 23 0 30 0;
#X connect 25 0 3 0;
#X connect 26 0 20 0;
#X connect 26 1 21 0;
#X connect 27 0 5 2;
#X connect 31 0 1 0;
