#N canvas 379 70 862 576 10;
#X declare -path ../jwy-bibliothek;
#X obj 36 14 declare -path ../jwy-bibliothek;
#X msg 663 170 vol \$1;
#X obj 666 144 hsl 128 15 0 127 0 0 empty empty empty -2 -8 0 10 -262144
-1 -1 2700 1;
#X msg 223 217 vol \$1;
#X obj 252 189 hsl 128 15 0 127 0 0 empty empty empty -2 -8 0 10 -262144
-1 -1 0 1;
#X msg 236 486 vol \$1;
#X obj 244 463 hsl 128 15 0 127 0 0 empty empty empty -2 -8 0 10 -262144
-1 -1 5000 1;
#X msg 643 470 vol \$1;
#X obj 646 447 hsl 128 15 0 127 0 0 empty empty empty -2 -8 0 10 -262144
-1 -1 1200 1;
#X obj 46 259 jwy-sync-s razi-100.local 3013;
#X obj 486 203 jwy-sync-s razi-400.local 3013;
#X obj 458 509 jwy-sync-s razi-300.local 3013;
#X obj 71 513 jwy-sync-s razi-200.local 3013;
#X msg 446 53 pulse bang;
#X msg 153 82 bpm \$1;
#X floatatom 153 52 5 0 0 0 - - -;
#X obj 24 97 s conneKt;
#X obj 24 71 bng 15 250 50 0 empty empty empty 17 7 0 10 -262144 -1
-1;
#X obj 46 233 r conneKt;
#X obj 486 174 r conneKt;
#X obj 71 477 r conneKt;
#X obj 465 474 r conneKt;
#X obj 153 106 s 2-all;
#X obj 155 200 r 2-all;
#X obj 700 229 r 2-all;
#X obj 197 439 r 2-all;
#X obj 615 411 r 2-all;
#X obj 446 74 s 2-all;
#X floatatom 213 52 5 0 0 0 - - -;
#X obj 213 106 s 2-all;
#X msg 213 82 man-count \$1;
#X msg 379 241 24;
#X obj 405 314 f;
#X text 437 220 opening vol;
#X text 407 242 talks;
#X text 478 300 installation;
#X msg 455 301 50;
#X msg 411 220 100;
#N canvas 0 23 450 300 cc-in 0;
#X obj 82 44 ctlin, f 19;
#X obj 82 134 pack 0 0;
#X obj 82 91 t b a, f 8;
#X obj 82 112 f;
#X obj 82 155 s cC-kontrol;
#X connect 0 0 2 0;
#X connect 0 1 3 1;
#X connect 1 0 4 0;
#X connect 2 0 3 0;
#X connect 2 1 1 1;
#X connect 3 0 1 0;
#X restore 351 95 pd cc-in;
#X obj 249 144 r cC-kontrol;
#X obj 249 165 route 0;
#X obj 663 80 r cC-kontrol;
#X obj 663 101 route 1;
#X obj 249 344 r cC-kontrol;
#X obj 249 365 route 2;
#X obj 674 368 r cC-kontrol;
#X obj 674 389 route 3;
#X obj 7 49 loadbang;
#X connect 1 0 10 1;
#X connect 2 0 1 0;
#X connect 3 0 9 1;
#X connect 4 0 3 0;
#X connect 5 0 12 1;
#X connect 6 0 5 0;
#X connect 7 0 11 1;
#X connect 8 0 7 0;
#X connect 13 0 27 0;
#X connect 14 0 22 0;
#X connect 15 0 14 0;
#X connect 17 0 16 0;
#X connect 18 0 9 0;
#X connect 19 0 10 0;
#X connect 20 0 12 0;
#X connect 21 0 11 0;
#X connect 23 0 9 1;
#X connect 24 0 10 1;
#X connect 25 0 12 1;
#X connect 26 0 11 1;
#X connect 28 0 30 0;
#X connect 30 0 29 0;
#X connect 31 0 32 0;
#X connect 32 0 4 0;
#X connect 32 0 2 0;
#X connect 32 0 6 0;
#X connect 32 0 8 0;
#X connect 36 0 32 0;
#X connect 37 0 32 0;
#X connect 39 0 40 0;
#X connect 40 0 4 0;
#X connect 41 0 42 0;
#X connect 42 0 2 0;
#X connect 43 0 44 0;
#X connect 44 0 6 0;
#X connect 45 0 46 0;
#X connect 46 0 8 0;
#X connect 47 0 16 0;
