#N canvas 476 89 927 643 10;
#X declare -path ../jwy-bibliothek;
#X obj 36 14 declare -path ../jwy-bibliothek;
#X obj 44 585 cross-over-out 5000 5000 1 0.5;
#X msg 221 558 master-vol \$1;
#X obj 222 531 / 127;
#X obj 45 510 catch~ main400-bus;
#X obj 517 310 tgl 15 0 empty empty empty 17 7 0 10 -262144 -1 -1 1
1;
#N canvas 0 23 1221 745 fm-loop-simple 0;
#X obj 79 187 unpack 0 0 0;
#X obj 79 208 makenote, f 12;
#X obj 79 231 pack 0 0, f 12;
#X obj 79 361 *~ 0.7;
#X obj 244 357 *~ 0.7;
#X obj 79 409 *~ 1;
#X obj 79 159 seqq 360 ../bs-compose/texts400/texts 3;
#X msg 311 334 p-1 \$1;
#X obj 79 320 fm/fm-main presets/simple2 8;
#X msg 200 273 trans \$1;
#X floatatom 200 247 5 0 0 0 - - -;
#X msg 415 210 0;
#X obj 310 272 pow 2;
#X obj 510 430 switch~;
#X obj 79 430 *~, f 48;
#X obj 79 451 throw~ main400-bus;
#X obj 527 47 inlet;
#X obj 79 89 r main400-ticks;
#X obj 287 78 r load-on;
#X obj 401 106 spigot 1;
#X msg 466 116 0;
#X msg 211 214 12;
#X obj 393 149 sel 0;
#X msg 292 215 1;
#X obj 393 170 t b b;
#X obj 316 195 r jwy-sync-bpm;
#X obj 79 120 count-ticks 360 4;
#X obj 311 251 control-LFO 24 8;
#X msg 219 76 write 15;
#X obj 680 46 inlet;
#X obj 756 44 inlet;
#X obj 310 314 + 0.1;
#X obj 310 293 * 0.95;
#X obj 146 15 r jwy-sync-pulse;
#X msg 146 36 free bang;
#X obj 380 380 switch-control 2000 4000;
#X msg 369 70 openTxt;
#X msg 331 120 read 14;
#X connect 0 0 1 0;
#X connect 0 1 1 1;
#X connect 0 2 1 2;
#X connect 1 0 2 0;
#X connect 1 1 2 1;
#X connect 2 0 8 0;
#X connect 3 0 5 0;
#X connect 4 0 5 0;
#X connect 5 0 14 0;
#X connect 6 0 0 0;
#X connect 7 0 8 1;
#X connect 8 0 3 0;
#X connect 8 1 4 0;
#X connect 9 0 8 1;
#X connect 10 0 9 0;
#X connect 11 0 27 2;
#X connect 12 0 32 0;
#X connect 14 0 15 0;
#X connect 16 0 35 0;
#X connect 17 0 26 0;
#X connect 18 0 37 0;
#X connect 18 0 21 0;
#X connect 18 0 23 0;
#X connect 19 0 22 0;
#X connect 20 0 19 1;
#X connect 21 0 10 0;
#X connect 22 0 24 0;
#X connect 23 0 27 0;
#X connect 24 0 11 0;
#X connect 24 1 20 0;
#X connect 25 0 27 1;
#X connect 26 0 19 0;
#X connect 26 0 6 0;
#X connect 27 0 12 0;
#X connect 28 0 6 1;
#X connect 29 0 6 1;
#X connect 30 0 10 0;
#X connect 31 0 7 0;
#X connect 32 0 31 0;
#X connect 33 0 34 0;
#X connect 34 0 26 2;
#X connect 35 0 14 1;
#X connect 35 1 13 0;
#X connect 35 1 26 3;
#X connect 36 0 6 1;
#X connect 37 0 6 1;
#X restore 517 336 pd fm-loop-simple;
#X obj 653 311 tgl 15 0 empty empty empty 17 7 0 10 -262144 -1 -1 0
1;
#N canvas 385 148 803 492 fm-loop-fb 0;
#X obj 79 187 unpack 0 0 0;
#X obj 79 208 makenote, f 12;
#X obj 79 231 pack 0 0, f 12;
#X obj 79 361 *~ 0.7;
#X obj 244 357 *~ 0.7;
#X obj 79 159 seqq 360 ../bs-compose/texts400/texts 3;
#X msg 200 273 trans \$1;
#X floatatom 200 247 5 0 0 0 - - -;
#X msg 415 210 0;
#X obj 480 291 pow 2;
#X obj 510 430 switch~;
#X obj 79 430 *~, f 48;
#X obj 79 451 throw~ main400-bus;
#X obj 527 47 inlet;
#X obj 79 89 r main400-ticks;
#X obj 287 78 r load-on;
#X obj 401 106 spigot 1;
#X msg 466 116 0;
#X obj 393 149 sel 0;
#X msg 292 215 1;
#X obj 393 170 t b b;
#X obj 316 195 r jwy-sync-bpm;
#X obj 311 251 control-LFO 24 8;
#X obj 380 380 switch-control 10 4000;
#X obj 680 46 inlet;
#X obj 756 44 inlet;
#X obj 80 320 fm/fm-main presets/fb-2 8;
#X msg 266 304 p1 \$1;
#X msg 276 332 p2 \$1;
#X msg 211 214 12;
#X msg 329 297 0.15;
#X msg 189 29 openTxt;
#X obj 480 312 * 0.45;
#X msg 219 75 write 17;
#X msg 332 120 read 17;
#X obj 79 120 count-ticks 360 2;
#X obj 71 29 r jwy-sync-pulse;
#X msg 71 50 free bang;
#X obj 79 409 *~ 0.5;
#X connect 0 0 1 0;
#X connect 0 1 1 1;
#X connect 0 2 1 2;
#X connect 1 0 2 0;
#X connect 1 1 2 1;
#X connect 2 0 26 0;
#X connect 3 0 38 0;
#X connect 4 0 38 0;
#X connect 5 0 0 0;
#X connect 6 0 26 1;
#X connect 7 0 6 0;
#X connect 8 0 22 2;
#X connect 9 0 32 0;
#X connect 11 0 12 0;
#X connect 13 0 23 0;
#X connect 14 0 35 0;
#X connect 15 0 34 0;
#X connect 15 0 29 0;
#X connect 15 0 19 0;
#X connect 15 0 30 0;
#X connect 16 0 18 0;
#X connect 17 0 16 1;
#X connect 18 0 20 0;
#X connect 19 0 22 0;
#X connect 20 0 8 0;
#X connect 20 1 17 0;
#X connect 21 0 22 1;
#X connect 22 0 9 0;
#X connect 23 0 11 1;
#X connect 23 1 10 0;
#X connect 23 1 35 3;
#X connect 24 0 5 1;
#X connect 25 0 7 0;
#X connect 26 0 3 0;
#X connect 26 1 4 0;
#X connect 27 0 26 1;
#X connect 28 0 26 1;
#X connect 29 0 7 0;
#X connect 30 0 27 0;
#X connect 31 0 5 1;
#X connect 32 0 28 0;
#X connect 33 0 5 1;
#X connect 34 0 5 1;
#X connect 35 0 16 0;
#X connect 35 0 5 0;
#X connect 36 0 37 0;
#X connect 37 0 35 2;
#X connect 38 0 11 0;
#X restore 653 336 pd fm-loop-fb;
#X obj 424 67 r jwy-sync-bpm;
#X obj 331 92 master-ticks 360;
#X obj 331 113 s main400-ticks;
#X obj 331 14 r jwy-sync-start;
#X msg 331 35 1;
#X obj 678 272 r \$0-seloff;
#X obj 562 271 r \$0-seloff;
#N canvas 0 23 632 420 incoming-messages 0;
#X obj 42 11 jwy-sync-r 3003;
#X obj 42 74 route vol seq, f 35;
#X obj 42 114 s master-vol;
#X obj 148 42 jwy-sync-r 3004;
#X text 138 11 LAPTOP;
#X text 244 42 RAZI-100;
#X connect 0 0 1 0;
#X connect 1 0 2 0;
#X connect 3 0 1 0;
#X restore 564 45 pd incoming-messages;
#X obj 222 496 r master-vol;
#N canvas 444 52 996 697 init 0;
#X obj 105 66 loadbang;
#X obj 105 87 del 2000;
#X obj 105 108 t b b b b b, f 76;
#X msg 558 169 \; pd dsp 1;
#X text 206 78 delay 2 seconds after bash script runs this \, just
to be safe;
#X obj 331 189 s local-init;
#X connect 0 0 1 0;
#X connect 1 0 2 0;
#X connect 2 2 5 0;
#X connect 2 4 3 0;
#X restore 31 99 pd init;
#X msg 135 273 34;
#X obj 135 301 s master-vol;
#X obj 41 217 r local-init;
#X obj 41 238 t b b b b, f 24;
#X obj 88 328 s load-on;
#X obj 517 141 r jwy-sync-count;
#X obj 377 37 r jwy-sync-pulse;
#X msg 377 58 0;
#N canvas 0 23 1105 699 drumz 0;
#X obj 90 430 count-ticks 360 4;
#X obj 157 375 r jwy-sync-pulse;
#X msg 157 396 sync bang;
#X msg 342 421 read 15;
#X msg 313 397 write 15;
#X obj 89 485 drum-bank;
#X obj 89 506 *~ 0.7;
#X msg 287 370 openTxt;
#X obj 89 527 throw~ main400-bus;
#X msg 239 418 start;
#X obj 90 457 seqq 360 ../bs-compose/texts400/texts 2;
#X obj 493 393 r jwy-sync-pulse;
#X msg 493 414 sync bang;
#X obj 425 503 drum-bank;
#X obj 425 524 *~ 0.7;
#X msg 623 388 openTxt;
#X obj 425 545 throw~ main400-bus;
#X msg 575 436 start;
#X obj 426 475 seqq 360 ../bs-compose/texts400/texts 2;
#X msg 649 415 write 16;
#X msg 678 439 read 16;
#X msg 681 476 read 15;
#X obj 426 448 count-ticks 360 3;
#X connect 0 0 10 0;
#X connect 1 0 2 0;
#X connect 2 0 0 2;
#X connect 3 0 10 1;
#X connect 4 0 10 1;
#X connect 5 0 6 0;
#X connect 6 0 8 0;
#X connect 7 0 10 1;
#X connect 9 0 10 1;
#X connect 10 0 5 0;
#X connect 11 0 12 0;
#X connect 12 0 22 2;
#X connect 13 0 14 0;
#X connect 14 0 16 0;
#X connect 15 0 18 1;
#X connect 17 0 18 1;
#X connect 18 0 13 0;
#X connect 19 0 18 1;
#X connect 20 0 18 1;
#X connect 21 0 18 1;
#X connect 22 0 18 0;
#X restore 311 275 pd drumz;
#X msg 517 183 1;
#X obj 517 162 sel 0 50, f 26;
#X obj 580 195 t b b;
#X msg 580 216 0;
#X msg 608 216 1;
#X text 80 150 this is the last receiver install;
#X obj 263 456 hsl 128 15 0 127 0 0 empty empty empty -2 -8 0 10 -262144
-1 -1 10700 1;
#X connect 2 0 1 1;
#X connect 3 0 2 0;
#X connect 4 0 1 0;
#X connect 5 0 6 0;
#X connect 7 0 8 0;
#X connect 9 0 10 2;
#X connect 10 0 11 0;
#X connect 12 0 13 0;
#X connect 13 0 10 0;
#X connect 14 0 7 0;
#X connect 15 0 5 0;
#X connect 17 0 3 0;
#X connect 19 0 20 0;
#X connect 21 0 22 0;
#X connect 22 1 23 0;
#X connect 22 2 19 0;
#X connect 24 0 29 0;
#X connect 25 0 26 0;
#X connect 26 0 10 1;
#X connect 28 0 5 0;
#X connect 29 0 28 0;
#X connect 29 1 30 0;
#X connect 30 0 31 0;
#X connect 30 1 32 0;
#X connect 31 0 5 0;
#X connect 32 0 7 0;
#X connect 34 0 3 0;
