#N canvas 90 25 550 349 10;
#X declare -path ../jwy-bibliothek;
#X obj 17 16 declare -path ../jwy-bibliothek;
#N canvas 0 23 420 233 output~ 0;
#X obj 49 111 *~ 0.7;
#X obj 226 94 / 127;
#X msg 226 115 master-vol \$1;
#X obj 49 141 cross-over-out 3200 4000 1 0.5;
#X obj 249 67 inlet;
#X obj 226 41 r master-vol;
#X obj 49 80 catch~ main-bus;
#X connect 0 0 3 0;
#X connect 1 0 2 0;
#X connect 2 0 3 1;
#X connect 4 0 1 0;
#X connect 5 0 1 0;
#X connect 6 0 0 0;
#X restore 26 300 pd output~;
#N canvas 138 255 517 492 init 0;
#X text 5 6 This is the master computer when the 4 are doing the installation
composition;
#X obj 11 36 loadbang;
#X msg 200 107 \; pd dsp 1;
#N canvas 686 178 450 486 connect 0;
#X obj 21 15 inlet;
#X obj 21 56 t b b b, f 11;
#X obj 198 384 r local-2-400;
#X obj 198 263 r local-2-300;
#X obj 198 133 r local-2-200;
#X obj 118 91 r local-2-all;
#X obj 118 11 r local-reKon;
#X obj 21 163 jwy-sync-s razi-200.local 3011;
#X obj 21 293 jwy-sync-s razi-300.local 3011;
#X obj 21 414 jwy-sync-s razi-400.local 3011;
#X obj 21 192 sel 0;
#X obj 21 437 sel 0;
#X obj 48 214 t b;
#X obj 21 321 sel 0;
#X obj 48 343 t b;
#X obj 48 459 t b;
#X obj 111 229 print 200-con;
#X obj 199 340 print 300-con;
#X obj 108 458 print 400-con;
#X obj 97 364 outlet;
#X connect 0 0 1 0;
#X connect 1 0 7 0;
#X connect 1 1 8 0;
#X connect 1 2 9 0;
#X connect 2 0 9 1;
#X connect 3 0 8 1;
#X connect 4 0 7 1;
#X connect 5 0 7 1;
#X connect 5 0 8 1;
#X connect 5 0 9 1;
#X connect 6 0 1 0;
#X connect 7 0 10 0;
#X connect 7 0 16 0;
#X connect 8 0 13 0;
#X connect 8 0 17 0;
#X connect 9 0 11 0;
#X connect 9 0 18 0;
#X connect 10 1 12 0;
#X connect 11 1 15 0;
#X connect 12 0 19 0;
#X connect 13 1 14 0;
#X restore 74 150 pd connect;
#X obj 11 83 t b b b b, f 32;
#X obj 227 226 s local-init;
#X obj 165 316 s local-start;
#X obj 196 288 s local-2-all;
#X msg 196 260 start bang;
#X obj 74 197 t b b b b b b, f 26;
#X msg 149 131 1;
#X obj 149 156 s metro-start;
#X obj 11 62 del 1000;
#X obj 74 116 del 80000;
#X connect 1 0 12 0;
#X connect 3 0 9 0;
#X connect 4 1 13 0;
#X connect 4 2 10 0;
#X connect 4 3 2 0;
#X connect 8 0 7 0;
#X connect 9 3 6 0;
#X connect 9 4 8 0;
#X connect 9 5 5 0;
#X connect 10 0 11 0;
#X connect 12 0 4 0;
#X connect 13 0 3 0;
#X restore 15 47 pd init;
#N canvas 532 237 450 300 init-options 0;
#X obj 20 70 s master-vol;
#X obj 20 176 t f f;
#X obj 20 20 r local-init;
#X obj 20 109 r local-init;
#X obj 20 269 s metro-bpm;
#X obj 47 231 s local-2-all;
#X msg 20 154 120;
#X msg 47 201 bpm \$1;
#X obj 20 130 t b;
#X msg 20 46 45;
#X connect 1 0 4 0;
#X connect 1 1 7 0;
#X connect 2 0 9 0;
#X connect 3 0 8 0;
#X connect 6 0 1 0;
#X connect 7 0 5 0;
#X connect 8 0 6 0;
#X connect 9 0 0 0;
#X restore 17 79 pd init-options;
#N canvas 0 23 343 252 local-metro 0;
#X obj 77 175 master-ticks 360;
#X obj 77 196 s main-ticks;
#X obj 77 21 r metro-start;
#X obj 123 71 r metro-pulse;
#X obj 170 114 r metro-bpm;
#X connect 0 0 1 0;
#X connect 2 0 0 0;
#X connect 3 0 0 1;
#X connect 4 0 0 2;
#X restore 17 113 pd local-metro;
#N canvas 327 217 363 262 main-count 0;
#X obj 69 104 + 1;
#X msg 36 48 1;
#X obj 36 104 f 0;
#X obj 36 81 metro 60000;
#X obj 36 205 s master-count;
#X msg 96 164 count \$1;
#X obj 96 185 s local-2-all;
#X obj 36 20 r local-start;
#X obj 126 19 r REEE-LOOOOp;
#X obj 36 125 % 60;
#X obj 221 21 r man-the-count;
#X connect 0 0 2 1;
#X connect 1 0 3 0;
#X connect 2 0 0 0;
#X connect 2 0 9 0;
#X connect 3 0 2 0;
#X connect 5 0 6 0;
#X connect 7 0 1 0;
#X connect 9 0 4 0;
#X connect 9 0 5 0;
#X connect 10 0 2 0;
#X restore 17 149 pd main-count;
#X obj 29 274 hsl 128 15 0 127 0 0 empty empty empty -2 -8 0 10 -262144
-1 -1 0 1;
#N canvas 744 250 474 401 incoming-messages 0;
#X obj 65 43 jwy-sync-r 3013;
#X text 165 42 the master computer;
#X obj 325 137 outlet;
#X obj 145 282 s metro-pulse;
#X obj 93 308 s local-reKon;
#X obj 42 335 s master-vol;
#X obj 197 257 s metro-bpm;
#X obj 212 232 s metro-start;
#X msg 214 209 1;
#X obj 257 200 s master-count;
#X obj 43 13 jwy-sync-r 3014;
#X text 139 13 'the feedback;
#X obj 42 108 route vol reKon pulse bpm start count man-count;
#X obj 281 166 s man-the-count;
#X connect 0 0 12 0;
#X connect 8 0 7 0;
#X connect 10 0 12 0;
#X connect 12 0 5 0;
#X connect 12 1 4 0;
#X connect 12 2 3 0;
#X connect 12 3 6 0;
#X connect 12 4 8 0;
#X connect 12 5 9 0;
#X connect 12 6 13 0;
#X connect 12 7 2 0;
#X restore 374 17 pd incoming-messages;
#X obj 374 44 fb-mess 1;
#N canvas 0 23 718 518 pulse-2-sync+BPM-control 0;
#X obj 27 20 inlet;
#X obj 50 333 s local-2-all;
#X msg 50 311 pulse bang;
#X obj 23 362 s metro-pulse;
#X obj 23 279 t b b;
#X obj 276 366 s metro-bpm;
#X obj 303 328 s local-2-all;
#X msg 303 298 bpm \$1;
#X obj 276 249 line 60 1000;
#X obj 276 273 t f f;
#X msg 265 119 120 30000;
#X msg 190 120 60 120000;
#X obj 27 108 s re-cue'd;
#X obj 23 251 r re-cue'd;
#X msg 116 118 520 60000;
#X obj 27 54 sel 5 8 10, f 63;
#X connect 0 0 15 0;
#X connect 2 0 1 0;
#X connect 4 0 3 0;
#X connect 4 1 2 0;
#X connect 7 0 6 0;
#X connect 8 0 9 0;
#X connect 9 0 5 0;
#X connect 9 1 7 0;
#X connect 10 0 8 0;
#X connect 11 0 8 0;
#X connect 13 0 4 0;
#X connect 14 0 8 0;
#X connect 15 0 12 0;
#X connect 15 0 14 0;
#X connect 15 1 11 0;
#X connect 15 2 10 0;
#X restore 213 211 pd pulse-2-sync+BPM-control;
#X obj 213 187 r master-count;
#X obj 218 41 r master-count;
#X msg 218 83 200 2 2;
#X obj 217 122 the-movements 1;
#X obj 218 62 sel 45 50, f 16;
#X msg 278 84 3 3;
#X connect 6 0 1 0;
#X connect 7 0 8 0;
#X connect 10 0 9 0;
#X connect 11 0 14 0;
#X connect 12 0 13 0;
#X connect 14 0 12 0;
#X connect 14 1 15 0;
#X connect 15 0 13 1;
