#N canvas 521 99 578 439 10;
#X declare -path ../jwy-bibliothek;
#X declare -path ../jwy-bibliothek;
#X declare -path ../jwy-bibliothek;
#X obj 15 15 declare -path ../jwy-bibliothek;
#N canvas 0 23 420 233 output~ 0;
#X obj 49 111 *~ 0.7;
#X obj 226 94 / 127;
#X msg 226 115 master-vol \$1;
#X obj 49 80 catch~ main100-bus;
#X obj 49 141 cross-over-out 3200 4000 1 0.5;
#X obj 226 41 r master-vol-100;
#X obj 249 67 inlet;
#X connect 0 0 4 0;
#X connect 1 0 2 0;
#X connect 2 0 4 1;
#X connect 3 0 0 0;
#X connect 5 0 1 0;
#X connect 6 0 1 0;
#X restore 14 404 pd output~;
#N canvas 146 255 358 324 init 0;
#X text 5 6 This is the master computer when the 4 are doing the installation
composition;
#X obj 11 56 loadbang;
#X obj 11 82 del 2000;
#X msg 200 127 \; pd dsp 1;
#N canvas 621 29 450 486 connect 0;
#X obj 21 15 inlet;
#X obj 21 163 jwy-sync-s razi-200.local 3010;
#X obj 21 56 t b b b, f 11;
#X obj 198 133 r local-100-2-200;
#X obj 198 263 r local-100-2-300;
#X obj 21 293 jwy-sync-s razi-300.local 3010;
#X obj 198 384 r local-100-2-400;
#X obj 21 414 jwy-sync-s razi-400.local 3010;
#X obj 118 11 r local-100-reKon;
#X obj 118 91 r local-100-2-all;
#X connect 0 0 2 0;
#X connect 2 0 1 0;
#X connect 2 1 5 0;
#X connect 2 2 7 0;
#X connect 3 0 1 1;
#X connect 4 0 5 1;
#X connect 6 0 7 1;
#X connect 8 0 2 0;
#X connect 9 0 1 1;
#X connect 9 0 7 1;
#X connect 9 0 5 1;
#X restore 74 170 pd connect;
#X obj 74 136 del 8000;
#X obj 145 164 s local-100-init;
#X obj 11 103 t b b b b, f 32;
#X obj 15 300 s local-100-start;
#X obj 11 194 del 10000;
#X obj 168 265 s local-100-2-all;
#X msg 168 238 pulse \, start;
#X obj 128 292 s metro-100-start;
#X obj 15 219 t b b b;
#X msg 128 267 1;
#X connect 1 0 2 0;
#X connect 2 0 7 0;
#X connect 5 0 4 0;
#X connect 7 0 9 0;
#X connect 7 1 5 0;
#X connect 7 2 6 0;
#X connect 7 3 3 0;
#X connect 9 0 13 0;
#X connect 11 0 10 0;
#X connect 13 0 8 0;
#X connect 13 1 14 0;
#X connect 13 2 11 0;
#X connect 14 0 12 0;
#X restore 13 46 pd init;
#N canvas 744 250 474 401 incoming-messages 0;
#X obj 43 13 jwy-sync-r 3011;
#X obj 42 304 s master-vol-100;
#X obj 65 43 jwy-sync-r 3013;
#X text 139 13 'the peers' the other computers;
#X text 165 42 the master computer;
#X obj 93 277 s local-100-reKon;
#X obj 145 251 s metro-100-pulse;
#X obj 197 226 s metro-100-bpm;
#X obj 303 174 outlet;
#X obj 42 149 route vol reKon pulse bpm start, f 44;
#X connect 0 0 9 0;
#X connect 2 0 9 0;
#X connect 9 0 1 0;
#X connect 9 1 5 0;
#X connect 9 2 6 0;
#X connect 9 3 7 0;
#X connect 9 5 8 0;
#X restore 374 17 pd incoming-messages;
#N canvas 532 237 450 300 init-options 0;
#X obj 20 70 s master-vol;
#X msg 20 46 24;
#X obj 20 20 r local-100-init;
#X obj 20 109 r local-100-init;
#X msg 20 134 60;
#X obj 20 198 s metro-100-bpm;
#X obj 120 198 s local-100-2-all;
#X obj 20 156 t f f;
#X connect 1 0 0 0;
#X connect 2 0 1 0;
#X connect 3 0 4 0;
#X connect 4 0 7 0;
#X connect 7 0 5 0;
#X connect 7 1 6 0;
#X restore 15 78 pd init-options;
#N canvas 0 23 343 252 local-metro 0;
#X obj 77 175 master-ticks 360;
#X obj 77 196 s main100-ticks;
#X obj 77 21 r metro-100-start;
#X obj 123 71 r metro-100-pulse;
#X obj 170 112 r metro-100-bpm;
#X floatatom 207 143 5 0 0 0 - - -;
#X connect 0 0 1 0;
#X connect 2 0 0 0;
#X connect 3 0 0 1;
#X connect 4 0 0 2;
#X connect 5 0 0 2;
#X restore 15 112 pd local-metro;
#X text 211 79 THE MOVEMENTS;
#N canvas 620 80 731 630 feedback 0;
#X msg 191 238 1 0 500;
#X obj 191 217 del 500;
#X obj 191 142 r local-100-start;
#X msg 320 292 1;
#X obj 191 163 t b b;
#N canvas 201 83 948 660 fmFEEDBACK 0;
#X msg 373 387 p-1 \$1;
#X obj 551 433 inlet switch;
#X obj 209 525 *~, f 35;
#X obj 584 545 switch~;
#X obj 416 497 switch-control 2000 4000;
#X obj 557 520 t f f;
#X obj 207 303 unpack 0 0 0, f 14;
#X obj 207 324 makenote 0 0 0;
#X obj 207 345 pack 0 0, f 14;
#X obj 689 17 declare -path ../jwy-bibliothek;
#X obj 209 546 throw~ main100-bus;
#X msg 457 353 trans \$1;
#X obj 555 397 outlet bounce-back;
#X obj 208 28 inlet bang;
#X msg 753 154 stop;
#X obj 672 235 del, f 10;
#X obj 697 141 + 1;
#X obj 697 183 i;
#X obj 697 120 random 8;
#X obj 697 204 t f f;
#X obj 555 329 pack s 0 0 0;
#X obj 240 119 + 1;
#X obj 207 119 f 1;
#X obj 240 140 % 10;
#X obj 559 280 symbol chord;
#X obj 208 58 unpack 0 0 0;
#X obj 323 117 + 1;
#X obj 290 117 f 1;
#X obj 323 138 % 24;
#X obj 624 89 t a a b b b, f 22;
#X obj 209 436 fm/fm-main presets/simple2 4;
#X msg 207 277 40 100 300 \, 54 100 300 \, 57 100 300 \, 61 100 300
;
#X obj 372 321 / 10;
#X obj 372 342 * 0.6;
#X obj 209 477 *~ 0.6;
#X obj 374 473 *~ 0.6;
#X obj 519 222 + 5;
#X obj 59 348 drum-bank;
#X obj 80 305 pack 0 100;
#X obj 92 184 + 1;
#X obj 59 184 f 1;
#X obj 59 205 % 5;
#X obj 59 226 + 1;
#X obj 59 369 *~ 0.8;
#X obj 207 220 t b a a b;
#X obj 284 199 random 100;
#X obj 284 220 + 10;
#X obj 59 390 throw~ main100-bus;
#X obj 697 162 * 65;
#X obj 555 350 list prepend 1;
#X connect 0 0 30 1;
#X connect 1 0 4 0;
#X connect 2 0 10 0;
#X connect 4 0 2 1;
#X connect 4 1 5 0;
#X connect 5 1 3 0;
#X connect 6 0 7 0;
#X connect 6 1 7 1;
#X connect 6 2 7 2;
#X connect 7 0 8 0;
#X connect 7 1 8 1;
#X connect 8 0 30 0;
#X connect 11 0 30 1;
#X connect 13 0 25 0;
#X connect 14 0 15 0;
#X connect 15 0 24 0;
#X connect 16 0 48 0;
#X connect 17 0 19 0;
#X connect 18 0 16 0;
#X connect 19 0 20 3;
#X connect 19 1 15 1;
#X connect 20 0 49 0;
#X connect 21 0 22 1;
#X connect 21 0 23 0;
#X connect 22 0 21 0;
#X connect 23 0 44 0;
#X connect 24 0 20 0;
#X connect 25 0 22 0;
#X connect 25 1 27 0;
#X connect 26 0 27 1;
#X connect 26 0 28 0;
#X connect 27 0 26 0;
#X connect 28 0 29 0;
#X connect 29 0 36 0;
#X connect 29 1 20 2;
#X connect 29 2 15 0;
#X connect 29 3 18 0;
#X connect 29 4 14 0;
#X connect 30 0 34 0;
#X connect 30 1 35 0;
#X connect 31 0 6 0;
#X connect 32 0 33 0;
#X connect 33 0 0 0;
#X connect 34 0 2 0;
#X connect 35 0 2 0;
#X connect 36 0 11 0;
#X connect 37 0 43 0;
#X connect 38 0 37 0;
#X connect 39 0 40 1;
#X connect 40 0 39 0;
#X connect 40 0 41 0;
#X connect 41 0 42 0;
#X connect 42 0 38 0;
#X connect 43 0 47 0;
#X connect 44 0 31 0;
#X connect 44 0 40 0;
#X connect 44 1 32 0;
#X connect 44 2 20 1;
#X connect 44 3 45 0;
#X connect 45 0 46 0;
#X connect 46 0 38 1;
#X connect 48 0 17 0;
#X connect 49 0 12 0;
#X restore 191 337 pd fmFEEDBACK - - - -;
#X obj 191 379 s local-100-2-200;
#X connect 0 0 5 0;
#X connect 1 0 0 0;
#X connect 2 0 4 0;
#X connect 3 0 5 1;
#X connect 4 0 1 0;
#X connect 4 1 3 0;
#X connect 5 0 6 0;
#X restore 404 129 pd feedback;
#N canvas 140 66 1082 676 fm-spiral 0;
#X msg 375 360 p-1 \$1;
#X obj 551 433 inlet switch;
#X obj 209 525 *~, f 35;
#X obj 584 545 switch~;
#X obj 416 497 switch-control 2000 4000;
#X obj 557 519 t f f;
#X obj 689 17 declare -path ../jwy-bibliothek;
#X obj 209 546 throw~ main100-bus;
#X obj 209 436 fm/fm-main presets/simple2 4;
#X obj 375 314 / 10;
#X obj 209 477 *~ 0.6;
#X obj 374 473 *~ 0.6;
#X obj 749 500 drum-bank;
#X obj 749 467 pack 0 100;
#X obj 782 386 + 1;
#X obj 749 386 f 1;
#X obj 749 407 % 5;
#X obj 749 428 + 1;
#X obj 749 521 *~ 0.8;
#X obj 749 542 throw~ main100-bus;
#X obj 209 175 count-ticks 360 4;
#X msg 473 88 openTxt;
#X msg 372 121 read 1;
#X obj 345 58 t f f;
#X obj 372 84 sel 1;
#X msg 483 135 write 1;
#X msg 543 166 read 1;
#X obj 209 78 r main100-ticks;
#X obj 209 205 seqq 360 ../bs-compose/texts100/fm1 3;
#X obj 209 283 unpack 0 0 0, f 14;
#X obj 209 304 makenote 0 0 0;
#X obj 209 325 pack 0 0, f 14;
#X obj 356 259 f;
#X obj 383 261 + 1;
#X obj 383 282 % 10;
#X obj 375 335 * 0.75;
#N canvas 0 23 450 300 poop 0;
#X text 220 99 poooooooop;
#X obj 0 100 100;
#X restore 746 218 pd poop;
#X msg 374 415 open;
#X msg 533 336 trans \$1;
#X floatatom 569 301 5 0 0 0 - - -;
#X floatatom 785 435 5 0 0 0 - - -;
#X obj 273 248 sel 0;
#X connect 0 0 8 1;
#X connect 1 0 4 0;
#X connect 2 0 7 0;
#X connect 4 0 2 1;
#X connect 4 1 5 0;
#X connect 5 0 23 0;
#X connect 5 1 3 0;
#X connect 8 0 10 0;
#X connect 8 1 11 0;
#X connect 9 0 35 0;
#X connect 10 0 2 0;
#X connect 11 0 2 0;
#X connect 12 0 18 0;
#X connect 13 0 12 0;
#X connect 14 0 15 1;
#X connect 15 0 14 0;
#X connect 15 0 16 0;
#X connect 16 0 17 0;
#X connect 17 0 13 0;
#X connect 17 0 40 0;
#X connect 18 0 19 0;
#X connect 20 0 28 0;
#X connect 20 0 41 0;
#X connect 21 0 28 1;
#X connect 22 0 28 1;
#X connect 23 0 20 3;
#X connect 23 1 24 0;
#X connect 24 0 22 0;
#X connect 24 0 38 0;
#X connect 25 0 28 1;
#X connect 26 0 28 1;
#X connect 27 0 20 0;
#X connect 28 0 29 0;
#X connect 29 0 30 0;
#X connect 29 1 30 1;
#X connect 29 2 30 2;
#X connect 30 0 31 0;
#X connect 30 1 31 1;
#X connect 31 0 8 0;
#X connect 32 0 33 0;
#X connect 33 0 32 1;
#X connect 33 0 34 0;
#X connect 34 0 9 0;
#X connect 35 0 0 0;
#X connect 37 0 8 2;
#X connect 38 0 8 1;
#X connect 39 0 38 0;
#X connect 41 0 32 0;
#X connect 41 0 15 0;
#X restore 207 141 pd fm-spiral;
#N canvas 327 217 868 466 main-count 0;
#X obj 35 77 sel 0;
#X obj 68 106 + 1;
#X obj 35 54 spigot 0;
#X obj 35 106 f 0;
#X obj 35 168 sel 8, f 96;
#X obj 236 57 metro 60000;
#X obj 35 16 r main100-ticks;
#X obj 269 80 + 1;
#X obj 236 80 f 0;
#X connect 0 0 3 0;
#X connect 1 0 3 1;
#X connect 2 0 0 0;
#X connect 3 0 1 0;
#X connect 3 0 4 0;
#X connect 5 0 8 0;
#X connect 6 0 2 0;
#X connect 7 0 8 1;
#X connect 8 0 7 0;
#X restore 15 148 pd main-count;
#X obj 207 98 r local-100-init;
#X msg 207 119 1;
#X obj 30 378 hsl 128 15 0 127 0 0 empty empty empty -2 -8 0 10 -262144
-1 -1 2400 1;
#X msg 243 117 0;
#X connect 10 0 11 0;
#X connect 11 0 8 0;
#X connect 12 0 1 0;
#X connect 13 0 8 0;
