#N canvas 656 23 544 342 10;
#X declare -path ../jwy-bibliothek;
#X obj 15 15 declare -path ../jwy-bibliothek;
#N canvas 0 23 420 233 output~ 0;
#X obj 49 111 *~ 0.7;
#X obj 226 94 / 127;
#X msg 226 115 master-vol \$1;
#X obj 49 141 cross-over-out 3200 4000 1 0.5;
#X obj 249 67 inlet;
#X obj 226 41 r master-vol;
#X obj 49 80 catch~ main-bus;
#X connect 0 0 3 0;
#X connect 1 0 2 0;
#X connect 2 0 3 1;
#X connect 4 0 1 0;
#X connect 5 0 1 0;
#X connect 6 0 0 0;
#X restore 19 258 pd output~;
#N canvas 744 250 474 401 incoming-messages 0;
#X obj 43 13 jwy-sync-r 3011;
#X obj 65 43 jwy-sync-r 3013;
#X text 139 13 'the peers' the other computers;
#X text 165 42 the master computer;
#X obj 303 174 outlet;
#X obj 145 282 s metro-pulse;
#X obj 93 308 s local-reKon;
#X obj 42 335 s master-vol;
#X obj 197 257 s metro-bpm;
#X obj 42 149 route vol reKon pulse bpm start count, f 44;
#X obj 257 200 s master-count;
#X obj 221 230 s local-start;
#X connect 0 0 9 0;
#X connect 1 0 9 0;
#X connect 9 0 7 0;
#X connect 9 1 6 0;
#X connect 9 2 5 0;
#X connect 9 3 8 0;
#X connect 9 4 11 0;
#X connect 9 5 10 0;
#X connect 9 6 4 0;
#X restore 374 17 pd incoming-messages;
#N canvas 532 237 450 300 init-options 0;
#X obj 20 70 s master-vol;
#X obj 20 20 r local-init;
#X msg 20 46 32;
#X obj 120 24 r local-init;
#X msg 120 45 1;
#X obj 120 66 s metro-start;
#X connect 1 0 2 0;
#X connect 2 0 0 0;
#X connect 3 0 4 0;
#X connect 4 0 5 0;
#X restore 15 78 pd init-options;
#N canvas 0 23 343 252 local-metro 0;
#X obj 77 175 master-ticks 360;
#X floatatom 207 143 5 0 0 0 - - -;
#X obj 77 196 s main-ticks;
#X obj 77 21 r metro-start;
#X obj 123 71 r metro-pulse;
#X obj 170 114 r metro-bpm;
#X connect 0 0 2 0;
#X connect 1 0 0 2;
#X connect 3 0 0 0;
#X connect 4 0 0 1;
#X connect 5 0 0 2;
#X restore 15 112 pd local-metro;
#X obj 22 232 hsl 128 15 0 127 0 0 empty empty empty -2 -8 0 10 -262144
-1 -1 0 1;
#N canvas 146 255 358 324 init-200 0;
#X text 5 6 This is the master computer when the 4 are doing the installation
composition;
#X obj 11 56 loadbang;
#X obj 11 82 del 2000;
#X msg 200 127 \; pd dsp 1;
#X obj 11 103 t b b b b, f 32;
#X obj 145 164 s local-init;
#N canvas 686 178 450 486 connect 0;
#X obj 21 15 inlet;
#X obj 21 56 t b b b, f 11;
#X obj 198 384 r local-2-400;
#X obj 198 263 r local-2-300;
#X obj 346 62 r local-2-all;
#X obj 118 11 r local-reKon;
#X obj 21 293 jwy-sync-s razi-300.local 3011;
#X obj 21 414 jwy-sync-s razi-400.local 3011;
#X obj 21 192 sel 0;
#X obj 21 437 sel 0;
#X obj 48 214 t b;
#X obj 21 321 sel 0;
#X obj 48 343 t b;
#X obj 48 459 t b;
#X obj 199 340 print 300-con;
#X obj 108 458 print 400-con;
#X obj 97 364 outlet;
#X obj 21 163 jwy-sync-s razi-100.local 3011;
#X obj 198 133 r local-2-100;
#X obj 111 229 print 100-con;
#X connect 0 0 1 0;
#X connect 1 0 17 0;
#X connect 1 1 6 0;
#X connect 1 2 7 0;
#X connect 2 0 7 1;
#X connect 3 0 6 1;
#X connect 4 0 6 1;
#X connect 4 0 7 1;
#X connect 4 0 17 1;
#X connect 5 0 1 0;
#X connect 6 0 11 0;
#X connect 6 0 14 0;
#X connect 7 0 9 0;
#X connect 7 0 15 0;
#X connect 8 1 10 0;
#X connect 9 1 13 0;
#X connect 10 0 16 0;
#X connect 11 1 12 0;
#X connect 17 0 8 0;
#X connect 17 0 19 0;
#X connect 18 0 17 1;
#X restore 74 173 pd connect;
#X obj 74 139 del 80000;
#X connect 1 0 2 0;
#X connect 2 0 4 0;
#X connect 4 1 7 0;
#X connect 4 2 5 0;
#X connect 4 3 3 0;
#X connect 7 0 6 0;
#X restore 13 46 pd init-200;
#N canvas 0 23 450 300 feedback-200 0;
#X obj 37 17 inlet;
#X obj 37 38 route fB-1;
#X obj 37 80 s local-fB-1;
#X obj 37 59 route 2;
#X connect 0 0 1 0;
#X connect 1 0 3 0;
#X connect 3 0 2 0;
#X restore 374 41 pd feedback-200;
#N canvas 128 43 1117 835 the-movements200 1;
#X msg 230 116 0;
#X obj 134 34 r master-count;
#X text 226 32 the minutes;
#X obj 231 79 t b b;
#X msg 258 117 1;
#X text 40 6 THE MOVEMENTS 200;
#X obj 356 80 t b b;
#X msg 384 102 1;
#X msg 356 101 0;
#X obj 481 80 t b b;
#X msg 508 101 1;
#X msg 481 101 0;
#X obj 131 416 sel 35 40 45 50 55 60, f 117;
#X obj 830 475 s wait-for-start;
#X obj 597 469 fB-1;
#X obj 134 55 sel 0 5 10 15 20 25 30, f 126;
#X obj 134 208 drum-spin nSpin 2;
#X obj 258 205 drum-spin kSpin 2;
#X obj 384 205 fm-spiral fm1 2 fb1;
#X obj 508 205 fm-spiral fm2 2 fb2;
#X msg 91 136 0;
#X obj 92 99 t b b;
#X msg 119 137 1;
#X connect 0 0 16 0;
#X connect 1 0 15 0;
#X connect 3 0 0 0;
#X connect 3 1 4 0;
#X connect 4 0 17 0;
#X connect 6 0 8 0;
#X connect 6 1 7 0;
#X connect 7 0 18 0;
#X connect 8 0 17 0;
#X connect 9 0 11 0;
#X connect 9 1 10 0;
#X connect 10 0 19 0;
#X connect 11 0 18 0;
#X connect 12 4 14 0;
#X connect 12 6 13 0;
#X connect 15 0 21 0;
#X connect 15 1 3 0;
#X connect 15 2 6 0;
#X connect 15 3 9 0;
#X connect 15 7 12 0;
#X connect 21 0 20 0;
#X connect 21 1 22 0;
#X connect 22 0 16 0;
#X restore 215 144 pd the-movements200;
#X connect 2 0 7 0;
#X connect 5 0 1 0;
