#N canvas 268 132 927 828 10;
#X declare -path ../jwy-bibliothek;
#X obj 36 14 declare -path ../jwy-bibliothek;
#X obj 283 494 cross-over-out 5000 5000 1 0.5;
#X msg 460 467 master-vol \$1;
#X obj 461 440 / 127;
#X obj 284 420 catch~ main400-bus;
#X obj 534 310 tgl 15 0 empty empty empty 17 7 0 10 -262144 -1 -1 1
1;
#N canvas 0 23 1221 745 fm-loop-simple 0;
#X obj 79 187 unpack 0 0 0;
#X obj 79 208 makenote, f 12;
#X obj 79 231 pack 0 0, f 12;
#X obj 79 361 *~ 0.7;
#X obj 244 357 *~ 0.7;
#X obj 79 409 *~ 1;
#X obj 79 159 seqq 360 ../bs-compose/texts400/texts 3;
#X msg 311 334 p-1 \$1;
#X obj 79 320 fm/fm-main presets/simple2 8;
#X msg 200 273 trans \$1;
#X floatatom 200 247 5 0 0 0 - - -;
#X msg 415 210 0;
#X obj 310 272 pow 2;
#X obj 510 430 switch~;
#X obj 79 430 *~, f 48;
#X obj 79 451 throw~ main400-bus;
#X obj 527 47 inlet;
#X obj 79 89 r main400-ticks;
#X obj 287 78 r load-on;
#X obj 401 106 spigot 1;
#X msg 466 116 0;
#X msg 211 214 12;
#X obj 393 149 sel 0;
#X msg 292 215 1;
#X obj 393 170 t b b;
#X obj 316 195 r jwy-sync-bpm;
#X msg 331 120 read 15;
#X obj 79 120 count-ticks 360 4;
#X obj 311 251 control-LFO 24 8;
#X obj 380 380 switch-control 10 4000;
#X msg 219 76 write 15;
#X obj 680 46 inlet;
#X obj 756 44 inlet;
#X obj 310 314 + 0.1;
#X obj 310 293 * 0.95;
#X obj 175 1 r jwy-sync-pulse;
#X connect 0 0 1 0;
#X connect 0 1 1 1;
#X connect 0 2 1 2;
#X connect 1 0 2 0;
#X connect 1 1 2 1;
#X connect 2 0 8 0;
#X connect 3 0 5 0;
#X connect 4 0 5 0;
#X connect 5 0 14 0;
#X connect 6 0 0 0;
#X connect 7 0 8 1;
#X connect 8 0 3 0;
#X connect 8 1 4 0;
#X connect 9 0 8 1;
#X connect 10 0 9 0;
#X connect 11 0 28 2;
#X connect 12 0 34 0;
#X connect 14 0 15 0;
#X connect 16 0 29 0;
#X connect 17 0 27 0;
#X connect 18 0 26 0;
#X connect 18 0 21 0;
#X connect 18 0 23 0;
#X connect 19 0 22 0;
#X connect 20 0 19 1;
#X connect 21 0 10 0;
#X connect 22 0 24 0;
#X connect 23 0 28 0;
#X connect 24 0 11 0;
#X connect 24 1 20 0;
#X connect 25 0 28 1;
#X connect 26 0 6 1;
#X connect 27 0 6 0;
#X connect 27 0 19 0;
#X connect 28 0 12 0;
#X connect 29 0 14 1;
#X connect 29 1 13 0;
#X connect 29 1 27 3;
#X connect 30 0 6 1;
#X connect 31 0 6 1;
#X connect 32 0 10 0;
#X connect 33 0 7 0;
#X connect 34 0 33 0;
#X connect 35 0 27 2;
#X restore 534 336 pd fm-loop-simple;
#X obj 653 311 tgl 15 0 empty empty empty 17 7 0 10 -262144 -1 -1 0
1;
#N canvas 385 148 803 492 fm-loop-fb 0;
#X obj 79 187 unpack 0 0 0;
#X obj 79 208 makenote, f 12;
#X obj 79 231 pack 0 0, f 12;
#X obj 79 361 *~ 0.7;
#X obj 244 357 *~ 0.7;
#X obj 79 409 *~ 1;
#X obj 79 159 seqq 360 ../bs-compose/texts400/texts 3;
#X msg 200 273 trans \$1;
#X floatatom 200 247 5 0 0 0 - - -;
#X msg 415 210 0;
#X obj 480 291 pow 2;
#X obj 510 430 switch~;
#X obj 79 430 *~, f 48;
#X obj 79 451 throw~ main400-bus;
#X obj 527 47 inlet;
#X obj 79 89 r main400-ticks;
#X obj 287 78 r load-on;
#X obj 401 106 spigot 1;
#X msg 466 116 0;
#X obj 393 149 sel 0;
#X msg 292 215 1;
#X obj 393 170 t b b;
#X obj 316 195 r jwy-sync-bpm;
#X obj 311 251 control-LFO 24 8;
#X obj 380 380 switch-control 10 4000;
#X obj 680 46 inlet;
#X obj 756 44 inlet;
#X obj 80 320 fm/fm-main presets/fb-2 8;
#X msg 266 304 p1 \$1;
#X msg 276 332 p2 \$1;
#X msg 211 214 12;
#X msg 329 297 0.15;
#X msg 189 29 openTxt;
#X obj 480 312 * 0.45;
#X msg 219 75 write 17;
#X msg 332 120 read 17;
#X obj 79 120 count-ticks 360 2;
#X connect 0 0 1 0;
#X connect 0 1 1 1;
#X connect 0 2 1 2;
#X connect 1 0 2 0;
#X connect 1 1 2 1;
#X connect 2 0 27 0;
#X connect 3 0 5 0;
#X connect 4 0 5 0;
#X connect 5 0 12 0;
#X connect 6 0 0 0;
#X connect 7 0 27 1;
#X connect 8 0 7 0;
#X connect 9 0 23 2;
#X connect 10 0 33 0;
#X connect 12 0 13 0;
#X connect 14 0 24 0;
#X connect 15 0 36 0;
#X connect 16 0 35 0;
#X connect 16 0 30 0;
#X connect 16 0 20 0;
#X connect 16 0 31 0;
#X connect 17 0 19 0;
#X connect 18 0 17 1;
#X connect 19 0 21 0;
#X connect 20 0 23 0;
#X connect 21 0 9 0;
#X connect 21 1 18 0;
#X connect 22 0 23 1;
#X connect 23 0 10 0;
#X connect 24 0 12 1;
#X connect 24 1 11 0;
#X connect 24 1 36 3;
#X connect 25 0 6 1;
#X connect 26 0 8 0;
#X connect 27 0 3 0;
#X connect 27 1 4 0;
#X connect 28 0 27 1;
#X connect 29 0 27 1;
#X connect 30 0 8 0;
#X connect 31 0 28 0;
#X connect 32 0 6 1;
#X connect 33 0 29 0;
#X connect 34 0 6 1;
#X connect 35 0 6 1;
#X connect 36 0 17 0;
#X connect 36 0 6 0;
#X restore 653 336 pd fm-loop-fb;
#X obj 424 47 r jwy-sync-bpm;
#X obj 331 92 master-ticks 360;
#X obj 331 113 s main400-ticks;
#X obj 331 14 r jwy-sync-start;
#X msg 331 35 1;
#X obj 682 149 t a b;
#X msg 709 174 0;
#X obj 682 220 sel 1 2;
#X obj 709 195 s \$0-seloff;
#X obj 678 272 r \$0-seloff;
#X obj 579 271 r \$0-seloff;
#N canvas 0 23 632 420 incoming-messages 0;
#X obj 42 11 jwy-sync-r 3003;
#X obj 42 74 route vol seq, f 35;
#X obj 42 114 s master-vol;
#X obj 148 42 jwy-sync-r 3004;
#X text 138 11 LAPTOP;
#X text 244 42 RAZI-100;
#X connect 0 0 1 0;
#X connect 1 0 2 0;
#X connect 3 0 1 0;
#X restore 564 45 pd incoming-messages;
#X obj 461 405 r master-vol;
#N canvas 444 52 996 697 init 0;
#X obj 105 66 loadbang;
#X obj 105 87 del 2000;
#X obj 105 108 t b b b b b, f 76;
#X msg 558 169 \; pd dsp 1;
#X text 206 78 delay 2 seconds after bash script runs this \, just
to be safe;
#X obj 331 189 s local-init;
#X connect 0 0 1 0;
#X connect 1 0 2 0;
#X connect 2 2 5 0;
#X connect 2 4 3 0;
#X restore 31 99 pd init;
#X msg 282 242 34;
#X obj 282 270 s master-vol;
#X obj 329 250 s local-bpm;
#X obj 188 186 r local-init;
#X obj 188 207 t b b b b, f 24;
#X msg 329 230 60;
#X obj 188 300 s local-start;
#X obj 213 272 s load-on;
#X obj 517 141 r jwy-sync-count;
#X obj 517 162 sel 0;
#X connect 2 0 1 1;
#X connect 3 0 2 0;
#X connect 4 0 1 0;
#X connect 5 0 6 0;
#X connect 7 0 8 0;
#X connect 9 0 10 1;
#X connect 10 0 11 0;
#X connect 12 0 13 0;
#X connect 13 0 10 0;
#X connect 14 0 16 0;
#X connect 14 1 15 0;
#X connect 15 0 17 0;
#X connect 18 0 7 0;
#X connect 19 0 5 0;
#X connect 21 0 3 0;
#X connect 23 0 24 0;
#X connect 26 0 27 0;
#X connect 27 0 29 0;
#X connect 27 1 30 0;
#X connect 27 2 23 0;
#X connect 27 3 28 0;
#X connect 28 0 25 0;
#X connect 31 0 32 0;
#X connect 32 0 5 0;
