#N canvas 71 74 1066 683 10;
#X declare -path ../jwy-bibliothek;
#X obj 85 540 declare -path ../jwy-bibliothek;
#X msg 283 605 pulse bang;
#X obj 562 310 s conneKt;
#X obj 562 284 bng 15 250 50 0 empty empty empty 17 7 0 10 -262144
-1 -1;
#X obj 283 626 s 2-all;
#N canvas 0 23 450 300 cc-in 0;
#X obj 82 44 ctlin, f 19;
#X obj 82 235 s cC-kontrol;
#X obj 82 134 pack 0 0 0, f 15;
#X obj 103 211 s cC-kontrol-clck;
#X obj 82 107 f;
#X obj 82 71 t b a, f 15;
#X obj 82 155 route 1 2 4;
#X obj 124 184 s cC-kontrol-glob;
#X connect 0 0 5 0;
#X connect 0 1 2 1;
#X connect 0 2 4 1;
#X connect 2 0 6 0;
#X connect 4 0 2 0;
#X connect 5 0 4 0;
#X connect 5 1 2 2;
#X connect 6 0 1 0;
#X connect 6 1 3 0;
#X connect 6 2 7 0;
#X restore 116 564 pd cc-in;
#X obj 283 539 r cC-kontrol-glob;
#X obj 283 560 route 11;
#X obj 283 581 sel 127;
#X msg 388 601 bpm \$1;
#X floatatom 388 571 5 0 0 0 - - -;
#X obj 388 625 s 2-all;
#X floatatom 448 571 5 0 0 0 - - -;
#X obj 448 625 s 2-all;
#X msg 448 601 man-count \$1;
#X obj 22 15 heads-up-manual;
#X obj 556 171 bng 15 250 50 0 empty empty empty 17 7 0 10 -262144
-1 -1;
#X obj 556 242 s 2-all;
#X msg 556 214 man-control bang;
#X obj 395 539 route man-control pattern voice temp0 param1;
#X text 647 60 start timer;
#N canvas 0 23 450 300 timer-30 0;
#X obj 57 27 inlet;
#X obj 57 157 f;
#X obj 91 158 + 1;
#X obj 84 72 sel 0;
#X obj 57 48 t f f;
#X msg 84 130 0;
#X obj 57 211 outlet;
#X obj 57 104 metro 60000;
#X obj 57 178 i;
#X connect 0 0 4 0;
#X connect 1 0 2 0;
#X connect 1 0 8 0;
#X connect 2 0 1 1;
#X connect 3 0 5 0;
#X connect 4 0 7 0;
#X connect 4 1 3 0;
#X connect 5 0 1 0;
#X connect 7 0 1 0;
#X connect 8 0 6 0;
#X restore 630 86 pd timer-30;
#X obj 630 60 tgl 15 0 empty empty empty 17 7 0 10 -262144 -1 -1 0
1;
#X floatatom 630 107 5 0 0 0 - - -;
#X connect 1 0 4 0;
#X connect 3 0 2 0;
#X connect 6 0 7 0;
#X connect 7 0 8 0;
#X connect 8 0 1 0;
#X connect 9 0 11 0;
#X connect 10 0 9 0;
#X connect 12 0 14 0;
#X connect 14 0 13 0;
#X connect 16 0 18 0;
#X connect 18 0 17 0;
#X connect 21 0 23 0;
#X connect 22 0 21 0;
