#N canvas 429 23 862 576 10;
#X declare -path ../jwy-bibliothek;
#X obj 36 14 declare -path ../jwy-bibliothek;
#X obj 34 155 jwy-sync-s razi-4.local 3003;
#X obj 35 119 bng 15 250 50 0 empty empty empty 17 7 0 10 -262144 -1
-1;
#X obj 52 205 bng 15 250 50 0 empty empty empty 17 7 0 10 -262144 -1
-1;
#X obj 52 241 jwy-sync-s razi-1.local 3003;
#X floatatom 121 87 5 0 0 0 - - -;
#X obj 171 113 bng 15 250 50 0 empty empty empty 17 7 0 10 -262144
-1 -1;
#X floatatom 131 207 5 0 0 0 - - -;
#X msg 242 125 vol \$1;
#X obj 244 98 hsl 128 15 0 127 0 0 empty empty empty -2 -8 0 10 -262144
-1 -1 700 1;
#X msg 234 210 vol \$1;
#X obj 236 183 hsl 128 15 0 127 0 0 empty empty empty -2 -8 0 10 -262144
-1 -1 2700 1;
#X msg 214 60 seq \$1;
#X floatatom 229 38 5 0 0 0 - - -;
#X msg 405 153 seq \$1;
#X floatatom 420 131 5 0 0 0 - - -;
#X floatatom 297 35 5 0 0 0 - - -;
#X msg 297 55 trans \$1;
#X floatatom 297 126 5 0 0 0 - - -;
#X msg 297 146 trans \$1;
#X msg 125 42 start bang;
#X connect 2 0 1 0;
#X connect 3 0 4 0;
#X connect 5 0 1 1;
#X connect 5 0 7 0;
#X connect 6 0 1 2;
#X connect 6 0 4 2;
#X connect 7 0 4 1;
#X connect 8 0 1 3;
#X connect 9 0 8 0;
#X connect 10 0 4 3;
#X connect 11 0 10 0;
#X connect 12 0 1 3;
#X connect 13 0 12 0;
#X connect 14 0 4 3;
#X connect 15 0 14 0;
#X connect 16 0 17 0;
#X connect 17 0 1 3;
#X connect 18 0 19 0;
#X connect 19 0 4 3;
#X connect 20 0 1 3;
#X connect 20 0 4 3;
