#N canvas 100 125 927 623 10;
#X declare -path ../jwy-bibliothek;
#X obj 36 14 declare -path ../jwy-bibliothek;
#X obj 31 69 jwy-sync-s razi-4.local;
#X obj 283 454 cross-over-out 5000 5000 1 0.5;
#X msg 71 322 master-vol \$1;
#X obj 75 270 hsl 128 15 0 127 0 0 empty empty empty -2 -8 0 10 -262144
-1 -1 1000 1;
#X obj 72 295 / 127;
#X obj 13 107 loadbang;
#X obj 12 129 del 2000;
#X obj 12 150 t b b b b b b;
#X msg 87 181 \; pd dsp 1;
#X obj 597 10 jwy-sync-r 3003;
#X msg 634 82 read \$1;
#X obj 598 136 s \$0-vol;
#X obj 111 247 r \$0-vol;
#X floatatom 699 110 5 0 0 0 - - -;
#X obj 284 330 catch~ main400-bus;
#X obj 42 368 s load-on;
#X obj 534 310 tgl 15 0 empty empty empty 17 7 0 10 -262144 -1 -1 0
1;
#X obj 462 189 s jwy-sync-bpm;
#X msg 462 159 120;
#X floatatom 498 159 5 0 0 0 - - -;
#N canvas 0 23 1221 745 fm-loop-simple 0;
#X obj 79 187 unpack 0 0 0;
#X obj 79 208 makenote, f 12;
#X obj 79 231 pack 0 0, f 12;
#X obj 79 361 *~ 0.7;
#X obj 244 357 *~ 0.7;
#X obj 79 409 *~ 1;
#X obj 79 159 seqq 360 ../bs-compose/texts400/texts 3;
#X msg 311 334 p-1 \$1;
#X obj 79 320 fm/fm-main presets/simple2 8;
#X msg 200 273 trans \$1;
#X floatatom 200 247 5 0 0 0 - - -;
#X msg 415 210 0;
#X obj 310 272 pow 2;
#X obj 510 430 switch~;
#X obj 79 430 *~, f 48;
#X obj 79 451 throw~ main400-bus;
#X obj 527 47 inlet;
#X obj 79 89 r main400-ticks;
#X obj 287 78 r load-on;
#X obj 401 106 spigot 1;
#X msg 466 116 0;
#X msg 211 214 12;
#X obj 393 149 sel 0;
#X msg 292 215 1;
#X obj 393 170 t b b;
#X obj 316 195 r jwy-sync-bpm;
#X msg 331 120 read 15;
#X obj 79 120 count-ticks 360 4;
#X obj 311 251 control-LFO 24 8;
#X obj 380 380 switch-control 10 4000;
#X msg 219 76 write 15;
#X obj 680 46 inlet;
#X obj 756 44 inlet;
#X obj 310 314 + 0.1;
#X obj 310 293 * 0.95;
#X connect 0 0 1 0;
#X connect 0 1 1 1;
#X connect 0 2 1 2;
#X connect 1 0 2 0;
#X connect 1 1 2 1;
#X connect 2 0 8 0;
#X connect 3 0 5 0;
#X connect 4 0 5 0;
#X connect 5 0 14 0;
#X connect 6 0 0 0;
#X connect 7 0 8 1;
#X connect 8 0 3 0;
#X connect 8 1 4 0;
#X connect 9 0 8 1;
#X connect 10 0 9 0;
#X connect 11 0 28 2;
#X connect 12 0 34 0;
#X connect 14 0 15 0;
#X connect 16 0 29 0;
#X connect 17 0 27 0;
#X connect 18 0 26 0;
#X connect 18 0 21 0;
#X connect 18 0 23 0;
#X connect 19 0 22 0;
#X connect 20 0 19 1;
#X connect 21 0 10 0;
#X connect 22 0 24 0;
#X connect 23 0 28 0;
#X connect 24 0 11 0;
#X connect 24 1 20 0;
#X connect 25 0 28 1;
#X connect 26 0 6 1;
#X connect 27 0 6 0;
#X connect 27 0 19 0;
#X connect 28 0 12 0;
#X connect 29 0 14 1;
#X connect 29 1 13 0;
#X connect 29 1 27 3;
#X connect 30 0 6 1;
#X connect 31 0 6 1;
#X connect 32 0 10 0;
#X connect 33 0 7 0;
#X connect 34 0 33 0;
#X restore 534 336 pd fm-loop-simple;
#X obj 653 311 tgl 15 0 empty empty empty 17 7 0 10 -262144 -1 -1 1
1;
#N canvas 385 148 803 492 fm-loop-fb 0;
#X obj 79 187 unpack 0 0 0;
#X obj 79 208 makenote, f 12;
#X obj 79 231 pack 0 0, f 12;
#X obj 79 361 *~ 0.7;
#X obj 244 357 *~ 0.7;
#X obj 79 409 *~ 1;
#X obj 79 159 seqq 360 ../bs-compose/texts400/texts 3;
#X msg 200 273 trans \$1;
#X floatatom 200 247 5 0 0 0 - - -;
#X msg 415 210 0;
#X obj 480 291 pow 2;
#X obj 510 430 switch~;
#X obj 79 430 *~, f 48;
#X obj 79 451 throw~ main400-bus;
#X obj 527 47 inlet;
#X obj 79 89 r main400-ticks;
#X obj 287 78 r load-on;
#X obj 401 106 spigot 1;
#X msg 466 116 0;
#X obj 393 149 sel 0;
#X msg 292 215 1;
#X obj 393 170 t b b;
#X obj 316 195 r jwy-sync-bpm;
#X obj 311 251 control-LFO 24 8;
#X obj 380 380 switch-control 10 4000;
#X obj 680 46 inlet;
#X obj 756 44 inlet;
#X obj 80 320 fm/fm-main presets/fb-2 8;
#X msg 266 304 p1 \$1;
#X msg 276 332 p2 \$1;
#X msg 211 214 12;
#X msg 329 297 0.15;
#X msg 189 29 openTxt;
#X obj 480 312 * 0.45;
#X msg 219 75 write 17;
#X msg 332 120 read 17;
#X obj 79 120 count-ticks 360 2;
#X connect 0 0 1 0;
#X connect 0 1 1 1;
#X connect 0 2 1 2;
#X connect 1 0 2 0;
#X connect 1 1 2 1;
#X connect 2 0 27 0;
#X connect 3 0 5 0;
#X connect 4 0 5 0;
#X connect 5 0 12 0;
#X connect 6 0 0 0;
#X connect 7 0 27 1;
#X connect 8 0 7 0;
#X connect 9 0 23 2;
#X connect 10 0 33 0;
#X connect 12 0 13 0;
#X connect 14 0 24 0;
#X connect 15 0 36 0;
#X connect 16 0 35 0;
#X connect 16 0 30 0;
#X connect 16 0 20 0;
#X connect 16 0 31 0;
#X connect 17 0 19 0;
#X connect 18 0 17 1;
#X connect 19 0 21 0;
#X connect 20 0 23 0;
#X connect 21 0 9 0;
#X connect 21 1 18 0;
#X connect 22 0 23 1;
#X connect 23 0 10 0;
#X connect 24 0 12 1;
#X connect 24 1 11 0;
#X connect 24 1 36 3;
#X connect 25 0 6 1;
#X connect 26 0 8 0;
#X connect 27 0 3 0;
#X connect 27 1 4 0;
#X connect 28 0 27 1;
#X connect 29 0 27 1;
#X connect 30 0 8 0;
#X connect 31 0 28 0;
#X connect 32 0 6 1;
#X connect 33 0 29 0;
#X connect 34 0 6 1;
#X connect 35 0 6 1;
#X connect 36 0 17 0;
#X connect 36 0 6 0;
#X restore 653 336 pd fm-loop-fb;
#X obj 341 112 r jwy-sync-bpm;
#X obj 248 157 master-ticks 360;
#X obj 248 178 s main400-ticks;
#X obj 258 32 r jwy-sync-start;
#X msg 258 53 1;
#X obj 593 47 route vol seq trans switch;
#X obj 610 207 t a b;
#X msg 637 232 0;
#X obj 610 278 sel 1 2;
#X obj 637 253 s \$0-seloff;
#X obj 670 295 r \$0-seloff;
#X obj 518 288 r \$0-seloff;
#X obj 318 66 del 5000;
#X msg 72 240 10;
#X obj 710 18 jwy-sync-r 3004;
#X connect 3 0 2 1;
#X connect 4 0 5 0;
#X connect 5 0 3 0;
#X connect 6 0 7 0;
#X connect 7 0 8 0;
#X connect 8 1 36 0;
#X connect 8 2 16 0;
#X connect 8 2 22 0;
#X connect 8 4 37 0;
#X connect 8 5 9 0;
#X connect 8 5 19 0;
#X connect 10 0 29 0;
#X connect 11 0 23 1;
#X connect 11 0 21 1;
#X connect 13 0 5 0;
#X connect 14 0 11 0;
#X connect 15 0 2 0;
#X connect 17 0 21 0;
#X connect 19 0 18 0;
#X connect 20 0 18 0;
#X connect 22 0 23 0;
#X connect 24 0 25 1;
#X connect 25 0 26 0;
#X connect 27 0 28 0;
#X connect 28 0 25 0;
#X connect 29 0 12 0;
#X connect 29 1 11 0;
#X connect 29 2 23 2;
#X connect 29 2 21 2;
#X connect 29 3 30 0;
#X connect 30 0 32 0;
#X connect 30 1 31 0;
#X connect 31 0 33 0;
#X connect 32 0 17 0;
#X connect 32 1 22 0;
#X connect 34 0 22 0;
#X connect 35 0 17 0;
#X connect 36 0 28 0;
#X connect 37 0 4 0;
#X connect 38 0 29 0;
