#N canvas 176 97 969 659 10;
#X declare -path ../jwy-bibliothek;
#X declare -path ../jwy-bibliothek;
#X declare -path ../jwy-bibliothek;
#X declare -path ../jwy-bibliothek;
#X obj 286 556 *~ 0.7;
#X obj 466 514 hsl 128 15 0 127 0 0 empty empty empty -2 -8 0 10 -262144
-1 -1 0 1;
#X obj 463 539 / 127;
#X msg 463 560 master-vol \$1;
#X obj 25 16 declare -path ../jwy-bibliothek;
#X obj 332 123 master-ticks 360;
#X obj 286 525 catch~ main100-bus;
#X msg 332 36 1;
#X obj 332 144 s main100-ticks;
#X obj 286 586 cross-over-out 3200 4000 1 0.5;
#N canvas 444 52 996 697 init 0;
#X obj 105 66 loadbang;
#X obj 105 87 del 2000;
#X obj 105 108 t b b b b b, f 76;
#X msg 558 169 \; pd dsp 1;
#X text 206 78 delay 2 seconds after bash script runs this \, just
to be safe;
#X obj 444 159 del 5000;
#X obj 444 180 s conekt-2-da-3;
#X obj 331 219 s local-init;
#X obj 331 183 del 10000;
#X connect 0 0 1 0;
#X connect 1 0 2 0;
#X connect 2 2 8 0;
#X connect 2 3 5 0;
#X connect 2 4 3 0;
#X connect 5 0 6 0;
#X connect 8 0 7 0;
#X restore 28 144 pd init;
#X obj 463 475 r master-vol;
#N canvas 0 23 632 420 incoming-messages 0;
#X obj 42 114 s master-vol;
#X obj 43 74 route vol seq chord, f 35;
#X obj 181 122 s chord;
#X obj 42 13 jwy-sync-r 3005;
#X obj 65 43 jwy-sync-r 3003;
#X text 142 17 feedback loop;
#X connect 1 0 0 0;
#X connect 1 2 2 0;
#X connect 3 0 1 0;
#X connect 4 0 1 0;
#X restore 758 86 pd incoming-messages;
#X text 207 217 This will be the control patch for the install;
#N canvas 411 282 813 441 konnekt 0;
#X obj 20 128 jwy-sync-s razi-400.local 3004;
#X obj 126 67 t b b b;
#X obj 21 188 jwy-sync-s razi-300.local 3004;
#X obj 20 258 jwy-sync-s razi-200.local 3004;
#X obj 291 23 r local-bpm;
#X obj 126 15 r conekt-2-da-3;
#X obj 427 93 r local-master-count;
#X msg 427 114 count \$1;
#X obj 325 57 r sync-pulse-connect;
#X obj 446 187 r send-2-400;
#X connect 1 0 0 0;
#X connect 4 0 0 1;
#X connect 4 0 2 1;
#X connect 4 0 3 1;
#X connect 5 0 1 0;
#X connect 6 0 7 0;
#X connect 7 0 0 3;
#X connect 7 0 3 3;
#X connect 7 0 2 3;
#X connect 8 0 0 2;
#X connect 8 0 3 2;
#X connect 8 0 2 2;
#X connect 9 0 0 3;
#X restore 26 183 pd konnekt;
#X obj 308 373 s master-vol;
#X obj 355 353 s local-bpm;
#X obj 214 289 r local-init;
#X obj 214 310 t b b b b, f 24;
#X msg 355 333 60;
#X obj 568 11 r main100-ticks;
#X obj 563 41 sel 0;
#X obj 621 62 + 1;
#X obj 332 15 r local-start;
#X obj 563 161 s local-master-count;
#X obj 563 61 f 0, f 7;
#X obj 553 198 r local-master-count;
#X msg 531 269 1;
#X obj 425 60 r local-bpm;
#X obj 563 82 % 4;
#X obj 563 106 sel 0;
#X obj 621 129 + 1;
#X obj 563 128 f 0, f 7;
#X obj 378 39 r local-sync-pulse;
#X obj 577 264 t b b;
#X msg 577 285 0;
#X msg 604 285 1;
#X msg 378 64 0;
#X obj 430 11 r jwy-sync-pulse;
#X obj 442 83 r jwy-sync-bpm;
#X msg 124 451 read \$1;
#N canvas 0 23 688 475 steady-drum-beat 0;
#X obj 189 27 inlet switch;
#X msg 221 186 openTxt;
#X obj 72 221 seqq 360 ../bs-compose/texts100/texts 2;
#X obj 72 165 count-ticks 360 4;
#X obj 72 255 drum-bank;
#X obj 72 326 throw~ main100-bus;
#X obj 72 276 *~, f 15;
#X obj 318 115 switch~;
#X obj 72 112 spigot 0;
#X obj 409 30 inlet change preset;
#X obj 72 61 r main100-ticks;
#X obj 400 110 loadbang;
#X msg 380 212 read \$1;
#X floatatom 414 253 5 0 0 0 - - -;
#X msg 380 181 read 8;
#X msg 304 155 write 8;
#X obj 189 77 switch-control 500 5000;
#X obj 139 120 r local-sync-pulse;
#X msg 139 141 free bang;
#X connect 0 0 16 0;
#X connect 1 0 2 1;
#X connect 2 0 4 0;
#X connect 3 0 2 0;
#X connect 4 0 6 0;
#X connect 6 0 5 0;
#X connect 8 0 3 0;
#X connect 9 0 2 1;
#X connect 10 0 8 0;
#X connect 11 0 14 0;
#X connect 12 0 2 1;
#X connect 13 0 12 0;
#X connect 14 0 2 1;
#X connect 15 0 2 1;
#X connect 16 0 6 1;
#X connect 16 1 7 0;
#X connect 16 1 8 1;
#X connect 17 0 18 0;
#X connect 18 0 3 2;
#X restore 13 477 pd steady-drum-beat;
#X obj 13 448 tgl 15 0 empty empty empty 17 7 0 10 -262144 -1 -1 0
1;
#N canvas 492 81 948 660 fmloop-1 0;
#X obj 209 175 count-ticks 360 4;
#X msg 473 88 openTxt;
#X obj 209 477 *~ 0.7;
#X obj 374 473 *~ 0.7;
#X msg 441 450 p-1 \$1;
#X msg 533 322 0;
#X obj 440 388 pow 2;
#X obj 486 254 r jwy-sync-bpm;
#X obj 440 352 control-LFO 24 8;
#X obj 440 430 + 0.1;
#X obj 440 409 * 0.95;
#X obj 617 381 inlet switch;
#X obj 533 298 r jwy-sync-pulse;
#X msg 487 164 read 1;
#X obj 345 58 t f f;
#X obj 372 84 sel 1;
#X obj 209 525 *~, f 35;
#X obj 586 545 switch~;
#X obj 418 497 switch-control 2000 4000;
#X obj 559 520 t f f;
#X obj 209 253 unpack 0 0 0, f 14;
#X obj 209 274 makenote 0 0 0;
#X obj 209 295 pack 0 0, f 14;
#X obj 209 436 fm/fm-main presets/simple2 8;
#X obj 689 17 declare -path ../jwy-bibliothek;
#X msg 483 135 write 1;
#X msg 543 166 read 1;
#X obj 209 78 r main100-ticks;
#X obj 210 202 seqq 360 ../bs-compose/texts100/fm1 3;
#X obj 209 546 throw~ main100-bus;
#X msg 374 401 trans 0;
#X connect 0 0 28 0;
#X connect 1 0 28 1;
#X connect 2 0 16 0;
#X connect 3 0 16 0;
#X connect 4 0 23 1;
#X connect 5 0 8 2;
#X connect 6 0 10 0;
#X connect 7 0 8 1;
#X connect 8 0 6 0;
#X connect 9 0 4 0;
#X connect 10 0 9 0;
#X connect 11 0 18 0;
#X connect 12 0 5 0;
#X connect 13 0 28 1;
#X connect 14 0 0 3;
#X connect 14 1 15 0;
#X connect 15 0 13 0;
#X connect 15 0 30 0;
#X connect 16 0 29 0;
#X connect 18 0 16 1;
#X connect 18 1 19 0;
#X connect 19 0 14 0;
#X connect 19 0 8 0;
#X connect 19 1 17 0;
#X connect 20 0 21 0;
#X connect 20 1 21 1;
#X connect 20 2 21 2;
#X connect 21 0 22 0;
#X connect 21 1 22 1;
#X connect 22 0 23 0;
#X connect 23 0 2 0;
#X connect 23 1 3 0;
#X connect 25 0 28 1;
#X connect 26 0 28 1;
#X connect 27 0 0 0;
#X connect 28 0 20 0;
#X connect 30 0 23 1;
#X restore 531 334 pd fmloop-1;
#X obj 718 459 s sync-pulse-connect;
#X obj 699 388 t b b b;
#X obj 699 491 del 5;
#X obj 699 522 s local-sync-pulse;
#X obj 261 396 s local-start;
#X msg 261 349 1;
#X obj 531 238 sel 8 24;
#N canvas 0 23 688 475 busier-drum-beat 0;
#X obj 250 244 inlet switch;
#X msg 287 94 openTxt;
#X obj 72 221 seqq 360 ../bs-compose/texts100/texts 2;
#X obj 72 125 count-ticks 360 4;
#X obj 72 255 drum-bank;
#X obj 72 326 throw~ main100-bus;
#X obj 72 276 *~, f 15;
#X obj 72 61 r main100-ticks;
#X obj 418 317 switch~;
#X obj 391 292 t f f;
#X obj 251 269 switch-control 5000 4000;
#X obj 422 127 sel 1;
#X msg 351 109 write 1;
#X msg 380 181 read 9;
#X connect 0 0 10 0;
#X connect 1 0 2 1;
#X connect 2 0 4 0;
#X connect 3 0 2 0;
#X connect 4 0 6 0;
#X connect 6 0 5 0;
#X connect 7 0 3 0;
#X connect 9 0 3 3;
#X connect 9 0 11 0;
#X connect 9 1 8 0;
#X connect 10 0 6 1;
#X connect 10 1 9 0;
#X connect 11 0 13 0;
#X connect 12 0 2 1;
#X connect 13 0 2 1;
#X restore 785 359 pd busier-drum-beat;
#N canvas 492 81 948 660 fmloop-2 0;
#X obj 209 175 count-ticks 360 4;
#X msg 473 88 openTxt;
#X obj 209 477 *~ 0.7;
#X obj 374 473 *~ 0.7;
#X msg 441 450 p-1 \$1;
#X msg 533 322 0;
#X obj 440 388 pow 2;
#X obj 486 254 r jwy-sync-bpm;
#X obj 440 352 control-LFO 24 8;
#X obj 440 430 + 0.1;
#X obj 440 409 * 0.95;
#X obj 617 381 inlet switch;
#X obj 533 298 r jwy-sync-pulse;
#X msg 487 164 read 1;
#X obj 345 58 t f f;
#X obj 372 84 sel 1;
#X obj 209 525 *~, f 35;
#X obj 586 545 switch~;
#X obj 418 497 switch-control 2000 4000;
#X obj 559 520 t f f;
#X obj 209 253 unpack 0 0 0, f 14;
#X obj 209 274 makenote 0 0 0;
#X obj 209 295 pack 0 0, f 14;
#X obj 209 437 fm/fm-main presets/simple2 8;
#X obj 689 17 declare -path ../jwy-bibliothek;
#X msg 483 135 write 1;
#X msg 543 166 read 1;
#X obj 209 78 r main100-ticks;
#X obj 210 202 seqq 360 ../bs-compose/texts100/fm1 3;
#X obj 209 546 throw~ main100-bus;
#X msg 374 401 trans 0;
#X connect 0 0 28 0;
#X connect 1 0 28 1;
#X connect 2 0 16 0;
#X connect 3 0 16 0;
#X connect 4 0 23 1;
#X connect 5 0 8 2;
#X connect 6 0 10 0;
#X connect 7 0 8 1;
#X connect 8 0 6 0;
#X connect 9 0 4 0;
#X connect 10 0 9 0;
#X connect 11 0 18 0;
#X connect 12 0 5 0;
#X connect 13 0 28 1;
#X connect 14 0 0 3;
#X connect 14 1 15 0;
#X connect 15 0 13 0;
#X connect 15 0 30 0;
#X connect 16 0 29 0;
#X connect 18 0 16 1;
#X connect 18 1 19 0;
#X connect 19 0 14 0;
#X connect 19 0 8 0;
#X connect 19 1 17 0;
#X connect 20 0 21 0;
#X connect 20 1 21 1;
#X connect 20 2 21 2;
#X connect 21 0 22 0;
#X connect 21 1 22 1;
#X connect 22 0 23 0;
#X connect 23 0 2 0;
#X connect 23 1 3 0;
#X connect 25 0 28 1;
#X connect 26 0 28 1;
#X connect 27 0 0 0;
#X connect 28 0 20 0;
#X connect 30 0 23 1;
#X restore 615 334 pd fmloop-2;
#N canvas 201 83 948 660 fmFEEDBACK 0;
#X msg 373 387 p-1 \$1;
#X obj 553 433 inlet switch;
#X obj 209 525 *~, f 35;
#X obj 586 545 switch~;
#X obj 418 497 switch-control 2000 4000;
#X obj 559 520 t f f;
#X obj 207 303 unpack 0 0 0, f 14;
#X obj 207 324 makenote 0 0 0;
#X obj 207 345 pack 0 0, f 14;
#X obj 689 17 declare -path ../jwy-bibliothek;
#X obj 209 546 throw~ main100-bus;
#X msg 457 353 trans \$1;
#X obj 550 386 outlet bounce-back;
#X obj 205 30 inlet bang;
#X msg 753 154 stop;
#X obj 672 235 del, f 10;
#X obj 697 141 + 1;
#X obj 697 183 i;
#X obj 697 120 random 8;
#X obj 697 204 t f f;
#X obj 555 329 pack s 0 0 0;
#X obj 240 119 + 1;
#X obj 207 119 f 1;
#X obj 240 140 % 10;
#X obj 559 280 symbol chord;
#X obj 208 58 unpack 0 0 0;
#X obj 323 117 + 1;
#X obj 290 117 f 1;
#X obj 323 138 % 24;
#X obj 624 89 t a a b b b, f 22;
#X obj 209 436 fm/fm-main presets/simple2 4;
#X msg 207 277 40 100 300 \, 54 100 300 \, 57 100 300 \, 61 100 300
;
#X obj 372 321 / 10;
#X obj 372 342 * 0.6;
#X obj 209 477 *~ 0.6;
#X obj 374 473 *~ 0.6;
#X obj 519 222 + 5;
#X obj 59 348 drum-bank;
#X obj 80 305 pack 0 100;
#X obj 92 184 + 1;
#X obj 59 184 f 1;
#X obj 59 205 % 5;
#X obj 59 226 + 1;
#X obj 59 369 *~ 0.8;
#X obj 207 220 t b a a b;
#X obj 284 199 random 100;
#X obj 284 220 + 10;
#X obj 59 390 throw~ main100-bus;
#X obj 697 162 * 65;
#X connect 0 0 30 1;
#X connect 1 0 4 0;
#X connect 2 0 10 0;
#X connect 4 0 2 1;
#X connect 4 1 5 0;
#X connect 5 1 3 0;
#X connect 6 0 7 0;
#X connect 6 1 7 1;
#X connect 6 2 7 2;
#X connect 7 0 8 0;
#X connect 7 1 8 1;
#X connect 8 0 30 0;
#X connect 11 0 30 1;
#X connect 13 0 25 0;
#X connect 14 0 15 0;
#X connect 15 0 24 0;
#X connect 16 0 48 0;
#X connect 17 0 19 0;
#X connect 18 0 16 0;
#X connect 19 0 20 3;
#X connect 19 1 15 1;
#X connect 20 0 12 0;
#X connect 21 0 22 1;
#X connect 21 0 23 0;
#X connect 22 0 21 0;
#X connect 23 0 44 0;
#X connect 24 0 20 0;
#X connect 25 0 22 0;
#X connect 25 1 27 0;
#X connect 26 0 27 1;
#X connect 26 0 28 0;
#X connect 27 0 26 0;
#X connect 28 0 29 0;
#X connect 29 0 36 0;
#X connect 29 1 20 2;
#X connect 29 2 15 0;
#X connect 29 3 18 0;
#X connect 29 4 14 0;
#X connect 30 0 34 0;
#X connect 30 1 35 0;
#X connect 31 0 6 0;
#X connect 32 0 33 0;
#X connect 33 0 0 0;
#X connect 34 0 2 0;
#X connect 35 0 2 0;
#X connect 36 0 11 0;
#X connect 37 0 43 0;
#X connect 38 0 37 0;
#X connect 39 0 40 1;
#X connect 40 0 39 0;
#X connect 40 0 41 0;
#X connect 41 0 42 0;
#X connect 42 0 38 0;
#X connect 43 0 47 0;
#X connect 44 0 31 0;
#X connect 44 0 40 0;
#X connect 44 1 32 0;
#X connect 44 2 20 1;
#X connect 44 3 45 0;
#X connect 45 0 46 0;
#X connect 46 0 38 1;
#X connect 48 0 17 0;
#X restore 63 319 pd fmFEEDBACK;
#X obj 138 271 del 5000;
#X obj 63 267 r chord;
#X obj 63 340 s send-2-400;
#X msg 178 396 1 0 500;
#X msg 138 292 1;
#X obj 178 375 del 500;
#X msg 308 345 24;
#X connect 0 0 9 0;
#X connect 1 0 2 0;
#X connect 2 0 3 0;
#X connect 3 0 9 1;
#X connect 5 0 8 0;
#X connect 6 0 0 0;
#X connect 11 0 1 0;
#X connect 17 0 18 0;
#X connect 18 0 54 0;
#X connect 18 1 49 0;
#X connect 18 2 60 0;
#X connect 18 3 19 0;
#X connect 19 0 16 0;
#X connect 21 0 25 0;
#X connect 22 0 25 1;
#X connect 23 0 7 0;
#X connect 25 0 22 0;
#X connect 25 0 29 0;
#X connect 27 0 43 0;
#X connect 28 0 5 2;
#X connect 29 0 30 0;
#X connect 30 0 32 0;
#X connect 31 0 32 1;
#X connect 32 0 31 0;
#X connect 33 0 37 0;
#X connect 34 0 35 0;
#X connect 34 1 36 0;
#X connect 35 0 43 0;
#X connect 36 0 52 0;
#X connect 37 0 5 1;
#X connect 38 0 37 0;
#X connect 39 0 5 2;
#X connect 40 0 41 1;
#X connect 42 0 41 0;
#X connect 45 0 46 0;
#X connect 45 1 44 0;
#X connect 46 0 47 0;
#X connect 49 0 48 0;
#X connect 50 0 27 0;
#X connect 50 0 45 0;
#X connect 50 1 34 0;
#X connect 53 0 56 0;
#X connect 54 0 58 0;
#X connect 54 0 59 0;
#X connect 55 0 53 0;
#X connect 57 0 53 0;
#X connect 58 0 53 1;
#X connect 59 0 57 0;
#X connect 60 0 15 0;
