#N canvas 107 141 740 556 10;
#X declare -path ../externals/JWY-Pd-Library;
#X obj 25 17 declare -path ../externals/JWY-Pd-Library;
#X obj 29 117 jwy-abl-link;
#X obj 226 94 r master-phase-360;
#X obj 226 416 1-drum, f 25;
#X obj 226 339 t b b;
#X msg 226 361 100;
#X obj 226 468 *~ 0.7;
#X floatatom 398 353 5 0 0 0 - - -, f 5;
#N canvas 4 163 641 323 kick 0;
#X obj 148 3 inlet;
#X obj 143 290 outlet~;
#X obj 161 161 vline~;
#X obj 143 224 *~, f 9;
#X obj 161 183 pow~ 2;
#X obj 237 35 vline~;
#X obj 59 155 +~;
#X obj 59 177 osc~;
#X obj 143 246 *~ 0.4;
#X obj 335 82 noise~;
#X obj 280 262 *~;
#X obj 242 178 vline~;
#X obj 148 25 t b b b;
#X obj 335 104 *~ 0.75;
#X obj 59 101 sig~ 55;
#X floatatom 64 51 5 0 0 0 - - -, f 5;
#X obj 143 268 hip~ 1;
#X obj 414 130 *~ 12000;
#X obj 415 152 +~ 2000;
#X obj 242 200 pow~ 4;
#X obj 389 215 vcf~ 4, f 8;
#X obj 336 186 vcf~ 2, f 8;
#X msg 244 155 1 1 \, 0 60 1;
#X obj 237 57 pow~ 4;
#X obj 129 101 *~ 1000;
#X msg 238 11 0.9 1 \, 0 43 1;
#X msg 160 129 0.9 18 \, 0 2000 18;
#X connect 0 0 12 0;
#X connect 2 0 4 0;
#X connect 3 0 8 0;
#X connect 4 0 3 1;
#X connect 5 0 23 0;
#X connect 6 0 7 0;
#X connect 7 0 3 0;
#X connect 8 0 16 0;
#X connect 9 0 13 0;
#X connect 10 0 3 0;
#X connect 11 0 19 0;
#X connect 12 0 26 0;
#X connect 12 1 25 0;
#X connect 12 2 22 0;
#X connect 13 0 21 0;
#X connect 14 0 6 0;
#X connect 15 0 14 0;
#X connect 16 0 1 0;
#X connect 17 0 18 0;
#X connect 18 0 20 1;
#X connect 18 0 21 1;
#X connect 19 0 10 1;
#X connect 19 0 17 0;
#X connect 20 0 10 0;
#X connect 21 1 20 0;
#X connect 22 0 11 0;
#X connect 23 0 24 0;
#X connect 24 0 6 1;
#X connect 25 0 5 0;
#X connect 26 0 2 0;
#X restore 255 265 pd kick;
#N canvas 2 113 641 323 tom 0;
#X obj 148 3 inlet;
#X obj 143 294 outlet~;
#X obj 161 161 vline~;
#X obj 143 224 *~, f 9;
#X obj 161 183 pow~ 2;
#X obj 237 35 vline~;
#X obj 59 155 +~;
#X obj 237 57 pow~ 2;
#X obj 59 177 osc~;
#X obj 142 247 *~ 0.4;
#X obj 335 82 noise~;
#X obj 362 154 +~ 2000;
#X obj 381 226 *~;
#X obj 242 178 vline~;
#X obj 242 200 pow~ 2;
#X obj 148 25 t b b b;
#X obj 362 132 *~ 16000;
#X obj 335 104 *~ 0.75;
#X msg 244 155 1 8 \, 0 30 8;
#X msg 237 10 0.9 5 \, 0 10 5;
#X obj 335 185 vcf~ 6, f 8;
#X obj 60 101 sig~ 100;
#X msg 160 129 0.9 10 \, 0 300 10;
#X obj 129 101 *~ 200;
#X obj 142 269 hip~ 1;
#X floatatom 78 74 5 0 0 0 - - -, f 5;
#X connect 0 0 15 0;
#X connect 2 0 4 0;
#X connect 3 0 9 0;
#X connect 4 0 3 1;
#X connect 5 0 7 0;
#X connect 6 0 8 0;
#X connect 7 0 16 0;
#X connect 7 0 23 0;
#X connect 8 0 3 0;
#X connect 9 0 24 0;
#X connect 10 0 17 0;
#X connect 11 0 20 1;
#X connect 12 0 3 0;
#X connect 13 0 14 0;
#X connect 14 0 12 1;
#X connect 15 0 22 0;
#X connect 15 1 19 0;
#X connect 15 2 18 0;
#X connect 16 0 11 0;
#X connect 17 0 20 0;
#X connect 18 0 13 0;
#X connect 19 0 5 0;
#X connect 20 1 12 0;
#X connect 21 0 6 0;
#X connect 22 0 2 0;
#X connect 23 0 6 1;
#X connect 24 0 1 0;
#X connect 25 0 21 0;
#X restore 313 266 pd tom;
#X obj 438 401 hsl 128 15 0 127 0 0 empty empty empty -2 -8 0 10 -262144
-1 -1 0 1;
#X obj 435 421 / 127;
#X msg 435 462 master-vol \$1;
#X obj 579 446 hsl 128 15 0 127 0 0 empty empty empty -2 -8 0 10 -262144
-1 -1 0 1;
#X obj 576 472 / 127;
#X msg 576 503 tweet-vol \$1;
#X msg 495 571 lo-x \$1;
#X msg 560 571 hi-x \$1;
#X floatatom 495 549 5 0 0 0 - - -, f 5;
#X floatatom 560 548 5 0 0 0 - - -, f 5;
#X obj 228 568 cross-over-out 2500 4000 1 0.5;
#X obj 226 203 sel 0 360 980;
#X floatatom 29 89 5 0 0 0 - - -, f 5;
#X floatatom 29 139 5 0 0 0 - - -, f 5;
#X obj 267 239 bng 15 250 50 0 empty empty empty 17 7 0 10 -262144
-1 -1;
#X obj 318 236 bng 15 250 50 0 empty empty empty 17 7 0 10 -262144
-1 -1;
#X obj 197 245 bng 15 250 50 0 empty empty empty 17 7 0 10 -262144
-1 -1;
#X obj 226 125 count-360 4;
#X connect 1 0 23 0;
#X connect 2 0 27 0;
#X connect 3 0 6 0;
#X connect 3 1 6 0;
#X connect 4 0 5 0;
#X connect 4 1 3 2;
#X connect 5 0 3 0;
#X connect 6 0 20 0;
#X connect 7 0 3 3;
#X connect 8 0 6 0;
#X connect 9 0 6 0;
#X connect 10 0 11 0;
#X connect 11 0 12 0;
#X connect 12 0 20 1;
#X connect 13 0 14 0;
#X connect 14 0 15 0;
#X connect 15 0 20 1;
#X connect 16 0 20 1;
#X connect 17 0 20 1;
#X connect 18 0 16 0;
#X connect 19 0 17 0;
#X connect 21 0 4 0;
#X connect 21 0 26 0;
#X connect 22 0 1 0;
#X connect 27 0 21 0;
