#N canvas 55 67 969 659 10;
#X declare -path ../jwy-bibliothek;
#X obj 286 556 *~ 0.7;
#X obj 466 514 hsl 128 15 0 127 0 0 empty empty empty -2 -8 0 10 -262144
-1 -1 0 1;
#X obj 463 539 / 127;
#X msg 463 560 master-vol \$1;
#X obj 25 16 declare -path ../jwy-bibliothek;
#X msg 642 348 read \$1;
#X obj 332 123 master-ticks 360;
#X obj 286 525 catch~ main100-bus;
#N canvas 0 23 688 475 steady-drum-beat 0;
#X obj 189 27 inlet switch;
#X msg 221 186 openTxt;
#X obj 72 221 seqq 360 ../bs-compose/texts100/texts 2;
#X obj 72 165 count-ticks 360 4;
#X obj 72 255 drum-bank;
#X obj 72 326 throw~ main100-bus;
#X obj 72 276 *~, f 15;
#X obj 318 115 switch~;
#X obj 72 112 spigot 0;
#X obj 409 30 inlet change preset;
#X obj 72 61 r main100-ticks;
#X obj 400 110 loadbang;
#X msg 380 212 read \$1;
#X floatatom 414 253 5 0 0 0 - - -;
#X msg 380 181 read 8;
#X msg 304 155 write 8;
#X obj 189 77 switch-control 500 5000;
#X obj 139 120 r local-sync-pulse;
#X msg 139 141 free bang;
#X connect 0 0 16 0;
#X connect 1 0 2 1;
#X connect 2 0 4 0;
#X connect 3 0 2 0;
#X connect 4 0 6 0;
#X connect 6 0 5 0;
#X connect 8 0 3 0;
#X connect 9 0 2 1;
#X connect 10 0 8 0;
#X connect 11 0 14 0;
#X connect 12 0 2 1;
#X connect 13 0 12 0;
#X connect 14 0 2 1;
#X connect 15 0 2 1;
#X connect 16 0 6 1;
#X connect 16 1 7 0;
#X connect 16 1 8 1;
#X connect 17 0 18 0;
#X connect 18 0 3 2;
#X restore 531 374 pd steady-drum-beat;
#X obj 531 345 tgl 15 0 empty empty empty 17 7 0 10 -262144 -1 -1 0
1;
#X msg 332 36 1;
#X obj 332 144 s main100-ticks;
#X obj 286 586 cross-over-out 3200 4000 1 0.5;
#N canvas 444 52 996 697 init 0;
#X obj 105 66 loadbang;
#X obj 105 87 del 2000;
#X obj 105 108 t b b b b b, f 76;
#X msg 558 169 \; pd dsp 1;
#X text 206 78 delay 2 seconds after bash script runs this \, just
to be safe;
#X obj 444 159 del 5000;
#X obj 444 180 s conekt-2-da-3;
#X obj 105 220 del 10000;
#X obj 331 219 s local-init;
#X obj 331 183 del 10000;
#N canvas 476 210 450 300 multi-pulse-to-sync 0;
#X obj 37 37 inlet;
#X obj 37 221 outlet;
#X msg 37 134 1;
#X obj 37 108 t b b b b, f 18;
#X msg 162 146 stop;
#X obj 109 188 del 2000;
#X msg 109 212 0;
#X obj 37 174 metro 250;
#X connect 0 0 3 0;
#X connect 2 0 7 0;
#X connect 3 0 2 0;
#X connect 3 2 5 0;
#X connect 3 3 4 0;
#X connect 4 0 5 0;
#X connect 5 0 6 0;
#X connect 6 0 7 0;
#X connect 7 0 1 0;
#X restore 348 296 pd multi-pulse-to-sync;
#X obj 124 312 s sync-pulse-connect;
#X obj 144 280 s local-start;
#X obj 105 241 t b b b;
#X obj 87 362 del 5;
#X obj 83 393 s local-sync-pulse;
#X obj 10 157 r local-master-count;
#X obj 10 220 t b b;
#X obj 10 179 sel 4;
#X connect 0 0 1 0;
#X connect 1 0 2 0;
#X connect 2 0 7 0;
#X connect 2 2 9 0;
#X connect 2 3 5 0;
#X connect 2 4 3 0;
#X connect 5 0 6 0;
#X connect 7 0 13 0;
#X connect 9 0 8 0;
#X connect 13 0 14 0;
#X connect 13 1 11 0;
#X connect 13 2 12 0;
#X connect 14 0 15 0;
#X connect 16 0 18 0;
#X connect 17 0 11 0;
#X connect 17 1 14 0;
#X connect 18 0 17 0;
#X restore 27 144 pd init;
#X obj 463 475 r master-vol;
#N canvas 0 23 632 420 incoming-messages 0;
#X obj 42 12 jwy-sync-r 3003;
#X obj 42 74 route vol seq, f 35;
#X obj 42 114 s master-vol;
#X connect 0 0 1 0;
#X connect 1 0 2 0;
#X restore 758 86 pd incoming-messages;
#X text 207 218 This will be the control patch for the install;
#N canvas 466 305 813 441 konnekt 0;
#X msg 376 185 start bang;
#X obj 20 128 jwy-sync-s razi-400.local 3004;
#X obj 126 67 t b b b;
#X obj 21 188 jwy-sync-s razi-300.local 3004;
#X obj 20 258 jwy-sync-s razi-200.local 3004;
#X obj 291 23 r local-bpm;
#X obj 126 15 r conekt-2-da-3;
#X obj 427 93 r local-master-count;
#X msg 427 114 count \$1;
#X obj 376 160 r local-start;
#X obj 325 57 r sync-pulse-connect;
#X connect 0 0 1 3;
#X connect 0 0 3 3;
#X connect 0 0 4 3;
#X connect 2 0 1 0;
#X connect 5 0 1 1;
#X connect 5 0 3 1;
#X connect 5 0 4 1;
#X connect 6 0 2 0;
#X connect 7 0 8 0;
#X connect 8 0 1 3;
#X connect 8 0 4 3;
#X connect 8 0 3 3;
#X connect 9 0 0 0;
#X connect 10 0 1 2;
#X connect 10 0 4 2;
#X connect 10 0 3 2;
#X restore 26 183 pd konnekt;
#X msg 308 345 34;
#X obj 308 373 s master-vol;
#X obj 355 353 s local-bpm;
#X obj 214 289 r local-init;
#X obj 214 310 t b b b b, f 24;
#X msg 355 333 60;
#X obj 563 20 r main100-ticks;
#X obj 563 41 sel 0;
#X obj 621 62 + 1;
#X obj 332 15 r local-start;
#X obj 563 161 s local-master-count;
#X obj 563 61 f 0, f 7;
#X obj 531 217 r local-master-count;
#X msg 531 269 1;
#X obj 425 60 r local-bpm;
#X obj 563 82 % 4;
#X obj 563 106 sel 0;
#X obj 621 129 + 1;
#X obj 563 128 f 0, f 7;
#X obj 378 39 r local-sync-pulse;
#X obj 577 264 t b b;
#X msg 577 285 0;
#X msg 716 289 read \$1;
#X msg 605 289 1;
#N canvas 0 23 688 475 busier-drum-beat 0;
#X obj 189 27 inlet switch;
#X msg 221 186 openTxt;
#X obj 72 221 seqq 360 ../bs-compose/texts100/texts 2;
#X obj 72 165 count-ticks 360 4;
#X obj 72 255 drum-bank;
#X obj 72 326 throw~ main100-bus;
#X obj 72 276 *~, f 15;
#X obj 330 109 switch~;
#X obj 72 112 spigot 0;
#X obj 409 30 inlet change preset;
#X obj 72 61 r main100-ticks;
#X msg 304 155 write 8;
#X obj 139 120 r local-sync-pulse;
#X obj 189 77 switch-control 5000 5000;
#X obj 189 48 t f f;
#X obj 276 50 sel 1;
#X msg 380 181 read 9;
#X msg 139 141 free bang;
#X connect 0 0 14 0;
#X connect 1 0 2 1;
#X connect 2 0 4 0;
#X connect 3 0 2 0;
#X connect 4 0 6 0;
#X connect 6 0 5 0;
#X connect 8 0 3 0;
#X connect 9 0 2 1;
#X connect 10 0 8 0;
#X connect 11 0 2 1;
#X connect 12 0 17 0;
#X connect 13 0 6 1;
#X connect 13 1 7 0;
#X connect 13 1 8 1;
#X connect 14 0 13 0;
#X connect 14 1 15 0;
#X connect 15 0 16 0;
#X connect 16 0 2 1;
#X connect 17 0 3 2;
#X restore 605 315 pd busier-drum-beat;
#X msg 378 64 0;
#X obj 430 11 r jwy-sync-pulse;
#X obj 442 83 r jwy-sync-bpm;
#X obj 531 238 sel 0 12;
#X connect 0 0 12 0;
#X connect 1 0 2 0;
#X connect 2 0 3 0;
#X connect 3 0 12 1;
#X connect 5 0 8 1;
#X connect 6 0 11 0;
#X connect 7 0 0 0;
#X connect 9 0 8 0;
#X connect 10 0 6 0;
#X connect 14 0 1 0;
#X connect 18 0 19 0;
#X connect 21 0 22 0;
#X connect 22 2 18 0;
#X connect 22 3 23 0;
#X connect 23 0 20 0;
#X connect 24 0 25 0;
#X connect 25 0 29 0;
#X connect 26 0 29 1;
#X connect 27 0 10 0;
#X connect 29 0 26 0;
#X connect 29 0 33 0;
#X connect 30 0 46 0;
#X connect 31 0 9 0;
#X connect 32 0 6 2;
#X connect 33 0 34 0;
#X connect 34 0 36 0;
#X connect 35 0 36 1;
#X connect 36 0 35 0;
#X connect 36 0 28 0;
#X connect 37 0 43 0;
#X connect 38 0 39 0;
#X connect 38 1 41 0;
#X connect 39 0 9 0;
#X connect 40 0 42 1;
#X connect 41 0 42 0;
#X connect 43 0 6 1;
#X connect 44 0 43 0;
#X connect 45 0 6 2;
#X connect 46 0 31 0;
#X connect 46 1 38 0;
