#N canvas 319 114 969 659 10;
#X declare -path ../externals/jwy-bibliothek;
#X declare -path ../jwy-bibliothek;
#X obj 226 468 *~ 0.7;
#N canvas 4 163 641 620 kick 0;
#X obj 148 3 inlet;
#X obj 143 350 outlet~;
#X obj 161 221 vline~;
#X obj 143 284 *~, f 9;
#X obj 161 243 pow~ 2;
#X obj 237 95 vline~;
#X obj 59 215 +~;
#X obj 59 237 osc~;
#X obj 143 306 *~ 0.4;
#X obj 335 142 noise~;
#X obj 280 322 *~;
#X obj 242 238 vline~;
#X obj 335 164 *~ 0.75;
#X obj 59 161 sig~ 55;
#X floatatom 64 111 5 0 0 0 - - -;
#X obj 143 328 hip~ 1;
#X obj 414 190 *~ 12000;
#X obj 415 212 +~ 2000;
#X obj 242 260 pow~ 4;
#X obj 389 275 vcf~ 4, f 8;
#X obj 336 246 vcf~ 2, f 8;
#X obj 237 117 pow~ 4;
#X obj 129 161 *~ 1000;
#X obj 148 24 / 127;
#X obj 148 45 sqrt;
#X msg 238 71 \$1 1 \, 0 43 1;
#X msg 160 189 \$1 18 \, 0 2000 18;
#X msg 244 215 \$1 1 \, 0 60 1;
#X obj 148 85 t f f f;
#X connect 0 0 23 0;
#X connect 2 0 4 0;
#X connect 3 0 8 0;
#X connect 4 0 3 1;
#X connect 5 0 21 0;
#X connect 6 0 7 0;
#X connect 7 0 3 0;
#X connect 8 0 15 0;
#X connect 9 0 12 0;
#X connect 10 0 3 0;
#X connect 11 0 18 0;
#X connect 12 0 20 0;
#X connect 13 0 6 0;
#X connect 14 0 13 0;
#X connect 15 0 1 0;
#X connect 16 0 17 0;
#X connect 17 0 19 1;
#X connect 17 0 20 1;
#X connect 18 0 10 1;
#X connect 18 0 16 0;
#X connect 19 0 10 0;
#X connect 20 1 19 0;
#X connect 21 0 22 0;
#X connect 22 0 6 1;
#X connect 23 0 24 0;
#X connect 24 0 28 0;
#X connect 25 0 5 0;
#X connect 26 0 2 0;
#X connect 27 0 11 0;
#X connect 28 0 26 0;
#X connect 28 1 25 0;
#X connect 28 2 27 0;
#X restore 229 348 pd kick;
#N canvas 2 113 641 634 tom 0;
#X obj 148 3 inlet;
#X obj 143 405 outlet~;
#X obj 161 272 vline~;
#X obj 143 335 *~, f 9;
#X obj 161 294 pow~ 2;
#X obj 237 146 vline~;
#X obj 59 266 +~;
#X obj 237 168 pow~ 2;
#X obj 59 288 osc~;
#X obj 142 358 *~ 0.4;
#X obj 335 193 noise~;
#X obj 362 265 +~ 2000;
#X obj 381 337 *~;
#X obj 242 289 vline~;
#X obj 242 311 pow~ 2;
#X obj 362 243 *~ 16000;
#X obj 335 215 *~ 0.75;
#X obj 335 296 vcf~ 6, f 8;
#X obj 129 212 *~ 200;
#X obj 142 380 hip~ 1;
#X floatatom 78 185 5 0 0 0 - - -;
#X obj 148 136 t f f f;
#X msg 237 121 \$1 5 \, 0 10 5;
#X msg 160 240 \$1 10 \, 0 300 10;
#X msg 244 266 \$1 8 \, 0 30 8;
#X obj 148 24 / 127;
#X obj 148 45 sqrt;
#X obj 60 212 sig~ 200;
#X connect 0 0 25 0;
#X connect 2 0 4 0;
#X connect 3 0 9 0;
#X connect 4 0 3 1;
#X connect 5 0 7 0;
#X connect 6 0 8 0;
#X connect 7 0 15 0;
#X connect 7 0 18 0;
#X connect 8 0 3 0;
#X connect 9 0 19 0;
#X connect 10 0 16 0;
#X connect 11 0 17 1;
#X connect 12 0 3 0;
#X connect 13 0 14 0;
#X connect 14 0 12 1;
#X connect 15 0 11 0;
#X connect 16 0 17 0;
#X connect 17 1 12 0;
#X connect 18 0 6 1;
#X connect 19 0 1 0;
#X connect 20 0 27 0;
#X connect 21 0 23 0;
#X connect 21 1 22 0;
#X connect 21 2 24 0;
#X connect 22 0 5 0;
#X connect 23 0 2 0;
#X connect 24 0 13 0;
#X connect 25 0 26 0;
#X connect 26 0 21 0;
#X connect 27 0 6 0;
#X restore 287 349 pd tom;
#X obj 418 409 hsl 128 15 0 127 0 0 empty empty empty -2 -8 0 10 -262144
-1 -1 2500 1;
#X obj 403 451 / 127;
#X msg 403 492 master-vol \$1;
#X obj 579 446 hsl 128 15 0 127 0 0 empty empty empty -2 -8 0 10 -262144
-1 -1 0 1;
#X obj 576 472 / 127;
#X msg 576 503 tweet-vol \$1;
#X msg 495 571 lo-x \$1;
#X msg 560 571 hi-x \$1;
#X floatatom 495 549 5 0 0 0 - - -;
#X floatatom 560 548 5 0 0 0 - - -;
#X obj 226 568 cross-over-out 2500 4000 1 0.5;
#X obj 226 185 count-360 4;
#X obj 25 17 declare -path ../externals/jwy-bibliothek;
#X obj 25 46 declare -path ../jwy-bibliothek;
#X obj 485 172 loadbang;
#X obj 485 193 del 2000;
#X obj 485 214 t b b b b b;
#X msg 625 270 \; pd dsp 1;
#X msg 441 83 120;
#X msg 372 69 1;
#X msg 417 179 1;
#X obj 229 306 route 1 2;
#X msg 322 68 0;
#X msg 463 305 25;
#X msg 334 177 openTxt;
#X msg 490 255 read 2;
#X obj 227 221 seqq ../bs-compose/texts100/texts 2;
#X obj 709 126 jwy-sync-r 3003;
#X obj 406 27 r jwy-sync-bpm;
#X obj 296 26 r jwy-sync-pulse;
#X obj 709 147 route vol seq;
#X msg 747 195 read \$1;
#X msg 383 275 write 5;
#X obj 372 120 master-ticks 360;
#X connect 0 0 13 0;
#X connect 1 0 0 0;
#X connect 2 0 0 0;
#X connect 3 0 4 0;
#X connect 4 0 5 0;
#X connect 5 0 13 1;
#X connect 6 0 7 0;
#X connect 7 0 8 0;
#X connect 8 0 13 1;
#X connect 9 0 13 1;
#X connect 10 0 13 1;
#X connect 11 0 9 0;
#X connect 12 0 10 0;
#X connect 14 0 29 0;
#X connect 17 0 18 0;
#X connect 18 0 19 0;
#X connect 19 0 28 0;
#X connect 19 1 22 0;
#X connect 19 2 21 0;
#X connect 19 3 26 0;
#X connect 19 4 20 0;
#X connect 21 0 36 2;
#X connect 22 0 36 0;
#X connect 24 0 1 0;
#X connect 24 1 2 0;
#X connect 25 0 36 0;
#X connect 26 0 3 0;
#X connect 27 0 29 1;
#X connect 28 0 29 1;
#X connect 29 0 24 0;
#X connect 30 0 33 0;
#X connect 31 0 36 2;
#X connect 32 0 36 1;
#X connect 33 0 3 0;
#X connect 33 1 34 0;
#X connect 34 0 29 1;
#X connect 35 0 29 1;
#X connect 36 0 14 0;
