#N canvas 19 106 969 659 10;
#X declare -path ../externals/jwy-bibliothek;
#X declare -path ../jwy-bibliothek;
#X obj 286 486 *~ 0.7;
#X obj 466 444 hsl 128 15 0 127 0 0 empty empty empty -2 -8 0 10 -262144
-1 -1 8600 1;
#X obj 463 469 / 127;
#X msg 463 490 master-vol \$1;
#X obj 286 516 cross-over-out 2500 4000 1 0.5;
#X obj 25 17 declare -path ../externals/jwy-bibliothek;
#X obj 25 46 declare -path ../jwy-bibliothek;
#X obj 416 230 loadbang;
#X obj 416 251 del 2000;
#X obj 416 272 t b b b b b;
#X msg 479 329 \; pd dsp 1;
#X obj 605 127 jwy-sync-r 3003;
#X obj 425 59 r jwy-sync-bpm;
#X obj 605 148 route vol seq;
#X msg 642 185 read \$1;
#X obj 332 93 master-ticks 360;
#X obj 286 455 catch~ main100-bus;
#N canvas 0 23 688 475 steady-drum-beat 0;
#X obj 189 27 inlet switch;
#X msg 221 186 openTxt;
#X obj 72 221 seqq 360 ../bs-compose/texts100/texts 2;
#X obj 72 145 count-ticks 360 4;
#X obj 72 255 drum-bank;
#X obj 72 326 throw~ main100-bus;
#X obj 72 276 *~, f 15;
#X obj 318 115 switch~;
#X obj 72 112 spigot 0;
#X obj 189 77 switch-control 20 5000;
#X obj 409 30 inlet change preset;
#X obj 72 61 r main100-ticks;
#X obj 400 110 loadbang;
#X msg 380 212 read \$1;
#X floatatom 414 253 5 0 0 0 - - -;
#X msg 380 181 read 8;
#X msg 304 155 write 8;
#X connect 0 0 9 0;
#X connect 1 0 2 1;
#X connect 2 0 4 0;
#X connect 3 0 2 0;
#X connect 4 0 6 0;
#X connect 6 0 5 0;
#X connect 8 0 3 0;
#X connect 9 0 6 1;
#X connect 9 1 7 0;
#X connect 9 1 8 1;
#X connect 10 0 2 1;
#X connect 11 0 8 0;
#X connect 12 0 15 0;
#X connect 13 0 2 1;
#X connect 14 0 13 0;
#X connect 15 0 2 1;
#X connect 16 0 2 1;
#X restore 531 234 pd steady-drum-beat;
#X obj 531 205 tgl 15 0 empty empty empty 17 7 0 10 -262144 -1 -1 1
1;
#X obj 332 15 r jwy-sync-start;
#X msg 332 36 1;
#X obj 332 114 s main100-ticks;
#X floatatom 699 167 5 0 0 0 - - -;
#X obj 29 248 bng 15 250 50 0 empty empty empty 17 7 0 10 -262144 -1
-1;
#X obj 27 151 del 3000;
#X obj 27 192 t b b b b b;
#X obj 32 319 bng 15 250 50 0 empty empty empty 17 7 0 10 -262144 -1
-1;
#X obj 32 399 bng 15 250 50 0 empty empty empty 17 7 0 10 -262144 -1
-1;
#X obj 29 284 jwy-sync-s razi-200.local 3003;
#X obj 32 355 jwy-sync-s razi-300.local 3003;
#X obj 32 435 jwy-sync-s razi-400.local 3003;
#X msg 242 247 start bang;
#X obj 242 219 del 10000;
#X msg 456 96 100;
#X msg 463 304 34;
#X connect 0 0 4 0;
#X connect 1 0 2 0;
#X connect 2 0 3 0;
#X connect 3 0 4 1;
#X connect 7 0 8 0;
#X connect 8 0 9 0;
#X connect 9 0 32 0;
#X connect 9 1 18 0;
#X connect 9 2 33 0;
#X connect 9 3 34 0;
#X connect 9 4 10 0;
#X connect 11 0 13 0;
#X connect 12 0 15 1;
#X connect 13 0 1 0;
#X connect 13 1 14 0;
#X connect 14 0 17 1;
#X connect 15 0 21 0;
#X connect 16 0 0 0;
#X connect 18 0 17 0;
#X connect 19 0 20 0;
#X connect 20 0 15 0;
#X connect 22 0 14 0;
#X connect 23 0 28 0;
#X connect 25 1 32 0;
#X connect 25 2 30 0;
#X connect 25 3 29 0;
#X connect 25 4 28 0;
#X connect 26 0 29 0;
#X connect 27 0 30 0;
#X connect 31 0 28 3;
#X connect 31 0 30 3;
#X connect 31 0 29 3;
#X connect 32 0 20 0;
#X connect 33 0 15 1;
#X connect 34 0 1 0;
