#N canvas 365 361 927 643 10;
#X declare -path ../jwy-bibliothek;
#X declare -path ../jwy-bibliothek;
#X declare -path ../jwy-bibliothek;
#X declare -path ../jwy-bibliothek;
#X obj 36 14 declare -path ../jwy-bibliothek;
#X obj 44 585 cross-over-out 5000 5000 1 0.5;
#X msg 221 558 master-vol \$1;
#X obj 222 531 / 127;
#X obj 45 510 catch~ main400-bus;
#X obj 424 67 r jwy-sync-bpm;
#X obj 331 92 master-ticks 360;
#X msg 331 35 1;
#N canvas 471 240 632 420 incoming-messages 0;
#X obj 42 11 jwy-sync-r 3003;
#X obj 42 114 s master-vol;
#X text 138 11 LAPTOP;
#X text 244 42 RAZI-100;
#X obj 42 74 route vol seq chord, f 35;
#X obj 180 115 s chord;
#X obj 148 42 jwy-sync-r 3010;
#X connect 0 0 4 0;
#X connect 4 0 1 0;
#X connect 4 2 5 0;
#X connect 6 0 4 0;
#X restore 564 45 pd incoming-messages;
#X obj 222 496 r master-vol;
#N canvas 444 52 996 697 init 0;
#X obj 105 66 loadbang;
#X obj 105 87 del 2000;
#X obj 105 108 t b b b b b, f 76;
#X msg 558 169 \; pd dsp 1;
#X text 206 78 delay 2 seconds after bash script runs this \, just
to be safe;
#X obj 331 169 s local-init;
#X obj 186 165 del 10000;
#X obj 390 226 r send-2-100;
#X obj 116 287 s start-fb;
#X obj 213 280 jwy-sync-s razi-100.local 3011;
#X obj 186 186 t b b;
#X connect 0 0 1 0;
#X connect 1 0 2 0;
#X connect 2 1 6 0;
#X connect 2 2 5 0;
#X connect 2 4 3 0;
#X connect 6 0 10 0;
#X connect 7 0 9 3;
#X connect 10 0 8 0;
#X connect 10 1 9 0;
#X restore 31 99 pd init;
#X obj 135 301 s master-vol;
#X obj 41 217 r local-init;
#X obj 41 238 t b b b b, f 24;
#X obj 88 328 s load-on;
#X obj 517 141 r jwy-sync-count;
#X obj 377 37 r jwy-sync-pulse;
#X msg 377 58 0;
#N canvas 0 23 1105 699 drumz 0;
#X obj 90 430 count-ticks 360 4;
#X obj 157 375 r jwy-sync-pulse;
#X msg 157 396 sync bang;
#X msg 342 421 read 15;
#X msg 313 397 write 15;
#X msg 287 370 openTxt;
#X msg 239 418 start;
#X obj 90 457 seqq 360 ../bs-compose/texts400/texts 2;
#X obj 493 393 r jwy-sync-pulse;
#X msg 493 414 sync bang;
#X obj 425 503 drum-bank;
#X obj 425 524 *~ 0.7;
#X msg 623 388 openTxt;
#X obj 425 545 throw~ main400-bus;
#X msg 575 436 start;
#X obj 426 475 seqq 360 ../bs-compose/texts400/texts 2;
#X msg 649 415 write 16;
#X msg 678 439 read 16;
#X msg 681 476 read 15;
#X obj 426 448 count-ticks 360 3;
#X connect 0 0 7 0;
#X connect 1 0 2 0;
#X connect 2 0 0 2;
#X connect 3 0 7 1;
#X connect 4 0 7 1;
#X connect 5 0 7 1;
#X connect 6 0 7 1;
#X connect 8 0 9 0;
#X connect 9 0 19 2;
#X connect 10 0 11 0;
#X connect 11 0 13 0;
#X connect 12 0 15 1;
#X connect 14 0 15 1;
#X connect 15 0 10 0;
#X connect 16 0 15 1;
#X connect 17 0 15 1;
#X connect 18 0 15 1;
#X connect 19 0 15 0;
#X restore 311 275 pd drumz;
#X msg 517 183 1;
#X msg 580 216 0;
#X msg 643 217 1;
#X text 80 150 this is the last receiver install;
#X obj 263 456 hsl 128 15 0 127 0 0 empty empty empty -2 -8 0 10 -262144
-1 -1 0 1;
#X msg 446 101 120;
#N canvas 260 111 948 660 fmloop-1 0;
#X obj 209 175 count-ticks 360 4;
#X msg 473 88 openTxt;
#X obj 209 477 *~ 0.7;
#X obj 374 473 *~ 0.7;
#X msg 441 450 p-1 \$1;
#X msg 533 322 0;
#X obj 440 388 pow 2;
#X obj 486 254 r jwy-sync-bpm;
#X obj 440 430 + 0.1;
#X obj 440 409 * 0.95;
#X obj 617 381 inlet switch;
#X obj 533 298 r jwy-sync-pulse;
#X obj 209 546 throw~ main400-bus;
#X msg 487 164 read 1;
#X obj 345 58 t f f;
#X obj 372 84 sel 1;
#X obj 209 525 *~, f 35;
#X obj 586 545 switch~;
#X obj 418 497 switch-control 2000 4000;
#X obj 559 520 t f f;
#X msg 374 401 trans -12;
#X obj 209 253 unpack 0 0 0, f 14;
#X obj 209 274 makenote 0 0 0;
#X obj 209 295 pack 0 0, f 14;
#X obj 209 436 fm/fm-main presets/simple2 8;
#X obj 689 17 declare -path ../jwy-bibliothek;
#X msg 483 135 write 1;
#X msg 543 166 read 1;
#X obj 209 78 r main400-ticks;
#X obj 209 201 seqq 360 ../bs-compose/texts400/fm1 3;
#X obj 440 352 control-LFO 24 1;
#X connect 0 0 29 0;
#X connect 1 0 29 1;
#X connect 2 0 16 0;
#X connect 3 0 16 0;
#X connect 4 0 24 1;
#X connect 5 0 30 2;
#X connect 6 0 9 0;
#X connect 7 0 30 1;
#X connect 8 0 4 0;
#X connect 9 0 8 0;
#X connect 10 0 18 0;
#X connect 11 0 5 0;
#X connect 13 0 29 1;
#X connect 14 0 0 3;
#X connect 14 1 15 0;
#X connect 15 0 13 0;
#X connect 15 0 20 0;
#X connect 16 0 12 0;
#X connect 18 0 16 1;
#X connect 18 1 19 0;
#X connect 19 0 14 0;
#X connect 19 0 30 0;
#X connect 19 1 17 0;
#X connect 20 0 24 1;
#X connect 21 0 22 0;
#X connect 21 1 22 1;
#X connect 21 2 22 2;
#X connect 22 0 23 0;
#X connect 22 1 23 1;
#X connect 23 0 24 0;
#X connect 24 0 2 0;
#X connect 24 1 3 0;
#X connect 26 0 29 1;
#X connect 27 0 29 1;
#X connect 28 0 0 0;
#X connect 29 0 21 0;
#X connect 30 0 6 0;
#X restore 517 296 pd fmloop-1;
#N canvas 458 202 948 660 fmloop-2 0;
#X obj 209 175 count-ticks 360 4;
#X msg 406 115 openTxt;
#X obj 209 477 *~ 0.7;
#X obj 374 473 *~ 0.7;
#X msg 533 322 0;
#X obj 486 254 r jwy-sync-bpm;
#X obj 617 381 inlet switch;
#X obj 533 298 r jwy-sync-pulse;
#X obj 209 546 throw~ main400-bus;
#X msg 487 164 read 1;
#X obj 345 58 t f f;
#X obj 372 84 sel 1;
#X obj 209 525 *~, f 35;
#X obj 586 545 switch~;
#X obj 559 520 t f f;
#X msg 374 401 trans -12;
#X obj 209 253 unpack 0 0 0, f 14;
#X obj 209 274 makenote 0 0 0;
#X obj 209 295 pack 0 0, f 14;
#X obj 689 17 declare -path ../jwy-bibliothek;
#X msg 543 166 read 2;
#X obj 443 379 pow 2;
#X msg 262 365 p1 0.13;
#X msg 322 365 p2 0.3;
#X obj 443 400 * 0.4;
#X msg 443 423 p-2 \$1;
#X obj 209 436 fm/fm-main presets/fb-2 4;
#X obj 209 78 r main400-ticks;
#X msg 483 135 write 1;
#X obj 442 346 control-LFO 24 1;
#X obj 209 202 seqq 360 ../bs-compose/texts400/fm2 3;
#X obj 418 497 switch-control 4000 4000;
#X connect 0 0 30 0;
#X connect 1 0 30 1;
#X connect 2 0 12 0;
#X connect 3 0 12 0;
#X connect 4 0 29 2;
#X connect 5 0 29 1;
#X connect 6 0 31 0;
#X connect 7 0 4 0;
#X connect 9 0 30 1;
#X connect 10 0 0 3;
#X connect 10 1 11 0;
#X connect 11 0 9 0;
#X connect 11 0 15 0;
#X connect 11 0 22 0;
#X connect 11 0 23 0;
#X connect 12 0 8 0;
#X connect 14 0 10 0;
#X connect 14 0 29 0;
#X connect 14 1 13 0;
#X connect 15 0 26 1;
#X connect 16 0 17 0;
#X connect 16 1 17 1;
#X connect 16 2 17 2;
#X connect 17 0 18 0;
#X connect 17 1 18 1;
#X connect 18 0 26 0;
#X connect 20 0 30 1;
#X connect 21 0 24 0;
#X connect 22 0 26 1;
#X connect 23 0 26 1;
#X connect 24 0 25 0;
#X connect 25 0 26 1;
#X connect 26 0 2 0;
#X connect 26 1 3 0;
#X connect 27 0 0 0;
#X connect 28 0 30 1;
#X connect 29 0 21 0;
#X connect 30 0 16 0;
#X connect 31 0 12 1;
#X connect 31 1 14 0;
#X restore 643 295 pd fmloop-2;
#X obj 331 113 s main400-ticks;
#X obj 331 14 r local-start;
#X obj 41 355 s local-start;
#X obj 517 162 sel 8 22 24, f 26;
#N canvas 492 81 948 660 fmFEEDBACK 0;
#X msg 373 377 p-1 \$1;
#X obj 553 433 inlet switch;
#X obj 209 525 *~, f 35;
#X obj 586 545 switch~;
#X obj 418 497 switch-control 2000 4000;
#X obj 559 520 t f f;
#X obj 207 303 unpack 0 0 0, f 14;
#X obj 207 324 makenote 0 0 0;
#X obj 207 345 pack 0 0, f 14;
#X obj 209 436 fm/fm-main presets/simple2 8;
#X obj 689 17 declare -path ../jwy-bibliothek;
#X msg 457 353 trans \$1;
#X obj 550 386 outlet bounce-back;
#X obj 205 30 inlet bang;
#X obj 555 329 pack s 0 0 0;
#X obj 240 119 + 1;
#X obj 207 119 f 1;
#X obj 240 140 % 10;
#X obj 559 280 symbol chord;
#X obj 208 58 unpack 0 0 0;
#X obj 323 117 + 1;
#X obj 290 117 f 1;
#X obj 536 182 t a a b b b, f 22;
#X msg 698 217 stop;
#X obj 603 244 del, f 10;
#X obj 209 546 throw~ main400-bus;
#X msg 207 277 50 100 300 \, 54 100 300 \, 57 100 300 \, 61 100 300
;
#X obj 323 138 % 24;
#X obj 372 321 / 10;
#X obj 372 342 * 0.6;
#X obj 59 348 drum-bank;
#X obj 59 390 throw~ main400-bus;
#X obj 207 220 t b a a b;
#X obj 80 305 pack 0 100;
#X obj 92 184 + 1;
#X obj 59 184 f 1;
#X obj 59 205 % 5;
#X obj 59 226 + 1;
#X obj 59 369 *~ 0.8;
#X obj 209 477 *~ 0.6;
#X obj 374 473 *~ 0.6;
#X connect 0 0 9 1;
#X connect 1 0 4 0;
#X connect 2 0 25 0;
#X connect 4 0 2 1;
#X connect 4 1 5 0;
#X connect 5 1 3 0;
#X connect 6 0 7 0;
#X connect 6 1 7 1;
#X connect 6 2 7 2;
#X connect 7 0 8 0;
#X connect 7 1 8 1;
#X connect 8 0 9 0;
#X connect 9 0 39 0;
#X connect 9 1 40 0;
#X connect 11 0 9 1;
#X connect 13 0 19 0;
#X connect 14 0 12 0;
#X connect 15 0 16 1;
#X connect 15 0 17 0;
#X connect 16 0 15 0;
#X connect 17 0 32 0;
#X connect 18 0 14 0;
#X connect 19 0 16 0;
#X connect 19 1 21 0;
#X connect 19 2 24 1;
#X connect 20 0 21 1;
#X connect 20 0 27 0;
#X connect 21 0 20 0;
#X connect 22 0 11 0;
#X connect 22 1 14 2;
#X connect 22 3 24 0;
#X connect 22 4 23 0;
#X connect 23 0 24 0;
#X connect 24 0 18 0;
#X connect 26 0 6 0;
#X connect 27 0 22 0;
#X connect 28 0 29 0;
#X connect 29 0 0 0;
#X connect 30 0 38 0;
#X connect 32 0 26 0;
#X connect 32 1 28 0;
#X connect 32 2 14 1;
#X connect 32 3 35 0;
#X connect 33 0 30 0;
#X connect 34 0 35 1;
#X connect 35 0 34 0;
#X connect 35 0 36 0;
#X connect 36 0 37 0;
#X connect 37 0 33 0;
#X connect 38 0 31 0;
#X connect 39 0 2 0;
#X connect 40 0 2 0;
#X restore 565 464 pd fmFEEDBACK;
#X obj 640 416 del 5000;
#X obj 565 412 r chord;
#X msg 640 437 1;
#X obj 565 485 s send-2-100;
#X msg 135 273 24;
#X connect 2 0 1 1;
#X connect 3 0 2 0;
#X connect 4 0 1 0;
#X connect 5 0 6 2;
#X connect 6 0 27 0;
#X connect 9 0 3 0;
#X connect 12 0 13 0;
#X connect 13 0 29 0;
#X connect 13 1 14 0;
#X connect 13 2 36 0;
#X connect 13 3 32 0;
#X connect 15 0 30 0;
#X connect 16 0 17 0;
#X connect 17 0 6 1;
#X connect 19 0 25 0;
#X connect 20 0 25 0;
#X connect 21 0 26 0;
#X connect 23 0 3 0;
#X connect 24 0 6 2;
#X connect 28 0 7 0;
#X connect 30 0 19 0;
#X connect 30 1 20 0;
#X connect 30 2 21 0;
#X connect 31 0 35 0;
#X connect 32 0 34 0;
#X connect 33 0 31 0;
#X connect 34 0 31 1;
#X connect 36 0 11 0;
