#N canvas 656 23 544 342 10;
#X declare -path ../jwy-bibliothek;
#X obj 15 15 declare -path ../jwy-bibliothek;
#N canvas 0 23 420 233 output~ 0;
#X obj 49 111 *~ 0.7;
#X obj 226 94 / 127;
#X msg 226 115 master-vol \$1;
#X obj 49 141 cross-over-out 3200 4000 1 0.5;
#X obj 249 67 inlet;
#X obj 226 41 r master-vol;
#X obj 49 80 catch~ main-bus;
#X connect 0 0 3 0;
#X connect 1 0 2 0;
#X connect 2 0 3 1;
#X connect 4 0 1 0;
#X connect 5 0 1 0;
#X connect 6 0 0 0;
#X restore 19 258 pd output~;
#N canvas 146 255 358 324 init 0;
#X text 5 6 This is the master computer when the 4 are doing the installation
composition;
#X obj 11 56 loadbang;
#X obj 11 82 del 2000;
#X msg 200 127 \; pd dsp 1;
#X obj 11 103 t b b b b, f 32;
#X obj 145 164 s local-init;
#X connect 1 0 2 0;
#X connect 2 0 4 0;
#X connect 4 2 5 0;
#X connect 4 3 3 0;
#X restore 13 46 pd init;
#N canvas 744 250 474 401 incoming-messages 0;
#X obj 43 13 jwy-sync-r 3011;
#X obj 65 43 jwy-sync-r 3013;
#X text 139 13 'the peers' the other computers;
#X text 165 42 the master computer;
#X obj 303 174 outlet;
#X obj 145 282 s metro-pulse;
#X obj 93 308 s local-reKon;
#X obj 42 335 s master-vol;
#X obj 197 257 s metro-bpm;
#X obj 42 149 route vol reKon pulse bpm start count, f 44;
#X obj 257 200 s master-count;
#X obj 221 230 s local-start;
#X connect 0 0 9 0;
#X connect 1 0 9 0;
#X connect 9 0 7 0;
#X connect 9 1 6 0;
#X connect 9 2 5 0;
#X connect 9 3 8 0;
#X connect 9 4 11 0;
#X connect 9 5 10 0;
#X connect 9 6 4 0;
#X restore 374 17 pd incoming-messages;
#N canvas 532 237 450 300 init-options 0;
#X obj 20 70 s master-vol;
#X obj 20 20 r local-init;
#X msg 20 46 32;
#X obj 120 24 r local-init;
#X msg 120 45 1;
#X obj 120 66 s metro-start;
#X connect 1 0 2 0;
#X connect 2 0 0 0;
#X connect 3 0 4 0;
#X connect 4 0 5 0;
#X restore 15 78 pd init-options;
#N canvas 0 23 343 252 local-metro 0;
#X obj 77 175 master-ticks 360;
#X floatatom 207 143 5 0 0 0 - - -;
#X obj 77 196 s main-ticks;
#X obj 77 21 r metro-start;
#X obj 123 71 r metro-pulse;
#X obj 170 114 r metro-bpm;
#X connect 0 0 2 0;
#X connect 1 0 0 2;
#X connect 3 0 0 0;
#X connect 4 0 0 1;
#X connect 5 0 0 2;
#X restore 15 112 pd local-metro;
#X obj 22 232 hsl 128 15 0 127 0 0 empty empty empty -2 -8 0 10 -262144
-1 -1 0 1;
#N canvas 128 43 1117 835 the-movements 0;
#X msg 37 97 1;
#X msg 133 113 0;
#X obj 134 34 r master-count;
#X text 226 32 the minutes;
#X obj 134 76 t b b;
#X msg 161 114 1;
#X text 40 6 THE MOVEMENTS 200;
#X obj 259 77 t b b;
#X msg 287 99 1;
#X msg 259 98 0;
#X obj 384 77 t b b;
#X msg 411 98 1;
#X msg 384 98 0;
#X obj 134 55 sel 5 10 15 20 25 30, f 126;
#X obj 37 205 drum-spin nSpin 2;
#X obj 161 202 drum-spin kSpin 2;
#X obj 37 75 r local-start;
#X obj 131 416 sel 35 40 45 50 55 60, f 117;
#X obj 830 475 s wait-for-start;
#X obj 287 202 fm-spiral fm1 2 fb1;
#X obj 411 202 fm-spiral fm2 2 fb2;
#X connect 0 0 14 0;
#X connect 1 0 14 0;
#X connect 2 0 13 0;
#X connect 4 0 1 0;
#X connect 4 1 5 0;
#X connect 5 0 15 0;
#X connect 7 0 9 0;
#X connect 7 1 8 0;
#X connect 8 0 19 0;
#X connect 9 0 15 0;
#X connect 10 0 12 0;
#X connect 10 1 11 0;
#X connect 11 0 20 0;
#X connect 12 0 19 0;
#X connect 13 0 4 0;
#X connect 13 1 7 0;
#X connect 13 2 10 0;
#X connect 13 6 17 0;
#X connect 16 0 0 0;
#X connect 17 6 18 0;
#X restore 205 134 pd the-movements;
#X connect 6 0 1 0;
