#N canvas 47 124 927 623 10;
#X declare -path ../jwy-bibliothek;
#X obj 36 14 declare -path ../jwy-bibliothek;
#X obj 31 69 jwy-sync-s razi-4.local;
#X obj 283 191 unpack 0 0 0;
#X obj 283 212 makenote, f 12;
#X obj 283 235 pack 0 0, f 12;
#X obj 283 365 *~ 0.7;
#X obj 448 361 *~ 0.7;
#X obj 283 413 *~ 1;
#X obj 283 454 cross-over-out 5000 5000 1 0.5;
#X msg 71 322 master-vol \$1;
#X obj 75 270 hsl 128 15 0 127 0 0 empty empty empty -2 -8 0 10 -262144
-1 -1 6300 1;
#X obj 72 295 / 127;
#X obj 13 107 loadbang;
#X obj 12 129 del 2000;
#X obj 12 150 t b b b b b b;
#X msg 87 181 \; pd dsp 1;
#X msg 332 27 120, f 8;
#X msg 285 25 1;
#X msg 400 69 openTxt;
#X msg 72 240 25;
#X obj 593 26 jwy-sync-r 3003;
#X obj 309 6 r jwy-sync-pulse;
#X obj 412 17 r jwy-sync-bpm;
#X msg 661 78 read \$1;
#X msg 234 27 0;
#X floatatom 337 53 5 0 0 0 - - -;
#X obj 283 81 master-ticks 360;
#X obj 283 163 seqq 360 ../bs-compose/texts400/texts 3;
#X obj 593 68 s \$0-vol;
#X obj 111 247 r \$0-vol;
#X obj 535 195 hsl 128 15 0 127 0 0 empty empty empty -2 -8 0 10 -262144
-1 -1 10000 1;
#X obj 532 215 / 127;
#X msg 532 241 p-1 \$1;
#X msg 532 165 100;
#X obj 283 324 fm/fm-main presets/simple2 8;
#X obj 283 102 count-ticks 360 4;
#X msg 440 293 trans \$1;
#X floatatom 428 257 5 0 0 0 - - -;
#N canvas 0 23 450 300 LFO 0;
#X restore 606 142 pd LFO;
#X obj 591 274 tgl 15 0 empty empty empty 17 7 0 10 -262144 -1 -1 0
1;
#X floatatom 621 272 5 0 0 0 - - -;
#X msg 667 270 0;
#X obj 592 319 pow 2;
#X msg 552 87 read 14;
#X msg 459 220 1;
#X obj 593 47 route vol seq trans;
#X obj 592 298 control-LFO 24 500;
#X msg 474 52 write 15;
#X msg 489 75 read 15;
#X connect 2 0 3 0;
#X connect 2 1 3 1;
#X connect 2 2 3 2;
#X connect 3 0 4 0;
#X connect 3 1 4 1;
#X connect 4 0 34 0;
#X connect 5 0 7 0;
#X connect 6 0 7 0;
#X connect 7 0 8 0;
#X connect 9 0 8 1;
#X connect 10 0 11 0;
#X connect 11 0 9 0;
#X connect 12 0 13 0;
#X connect 13 0 14 0;
#X connect 14 0 44 0;
#X connect 14 1 17 0;
#X connect 14 1 33 0;
#X connect 14 2 16 0;
#X connect 14 3 48 0;
#X connect 14 4 19 0;
#X connect 14 5 15 0;
#X connect 16 0 26 2;
#X connect 17 0 26 0;
#X connect 18 0 27 1;
#X connect 19 0 10 0;
#X connect 20 0 45 0;
#X connect 21 0 26 1;
#X connect 22 0 26 2;
#X connect 23 0 27 1;
#X connect 24 0 26 0;
#X connect 25 0 26 2;
#X connect 26 0 35 0;
#X connect 27 0 2 0;
#X connect 29 0 11 0;
#X connect 30 0 31 0;
#X connect 31 0 32 0;
#X connect 32 0 34 1;
#X connect 33 0 30 0;
#X connect 34 0 5 0;
#X connect 34 1 6 0;
#X connect 35 0 27 0;
#X connect 36 0 34 1;
#X connect 37 0 36 0;
#X connect 39 0 46 0;
#X connect 40 0 46 1;
#X connect 41 0 46 2;
#X connect 42 0 32 0;
#X connect 43 0 27 1;
#X connect 44 0 46 0;
#X connect 45 0 28 0;
#X connect 45 1 23 0;
#X connect 45 2 36 0;
#X connect 46 0 42 0;
#X connect 47 0 27 1;
#X connect 48 0 27 1;
