#N canvas 208 247 588 425 10;
#X declare -path ../jwy-bibliothek;
#X obj 36 14 declare -path ../jwy-bibliothek;
#X obj 31 69 jwy-sync-s razi-4.local;
#X obj 290 77 master-360;
#X obj 283 141 unpack 0 0 0;
#X obj 283 162 makenote, f 12;
#X obj 288 182 pack 0 0;
#X obj 283 224 add/additive-main 1 12 4;
#X obj 283 245 *~ 0.7;
#X obj 423 245 *~ 0.7;
#X obj 247 341 *~ 1;
#X obj 247 362 cross-over-out 5000 5000 1 0.5;
#X msg 31 337 master-vol \$1;
#X obj 35 290 hsl 128 15 0 127 0 0 empty empty empty -2 -8 0 10 -262144
-1 -1 6000 1;
#X obj 32 310 / 127;
#X obj 27 135 loadbang;
#X obj 27 156 del 2000;
#X obj 27 177 t b b b b b b;
#X msg 109 223 \; pd dsp 1;
#X msg 339 23 120, f 8;
#X msg 291 21 1;
#X obj 290 119 seqq ../bs-compose/texts400/texts 3;
#X msg 407 65 openTxt;
#X msg 481 48 write 2;
#X msg 466 79 read 2;
#X obj 290 98 count-360 4;
#X msg 68 249 25;
#N canvas 0 23 450 300 control 0;
#X obj 36 13 inlet;
#X obj 36 34 t b b b b b b;
#X msg 17 124 loadbang bang;
#X msg 44 97 trans -12;
#X obj 29 236 outlet;
#X msg 53 152 wave 3;
#X msg 161 123 lop 12;
#X msg 148 82 hip 1;
#X connect 0 0 1 0;
#X connect 1 0 2 0;
#X connect 1 1 3 0;
#X connect 1 2 5 0;
#X connect 1 3 7 0;
#X connect 1 4 6 0;
#X connect 2 0 4 0;
#X connect 3 0 4 0;
#X connect 5 0 4 0;
#X connect 6 0 4 0;
#X connect 7 0 4 0;
#X restore 429 196 pd control;
#N canvas 0 23 450 300 filter 0;
#X obj 91 15 inlet;
#X obj 91 36 t b;
#X obj 91 131 f;
#X obj 127 133 + 1;
#X obj 91 152 % 12;
#X obj 91 173 / 12;
#X obj 91 215 outlet;
#X msg 91 194 filter \$1;
#X msg 91 57 1;
#X obj 91 76 metro 250;
#X connect 0 0 1 0;
#X connect 1 0 8 0;
#X connect 2 0 3 0;
#X connect 2 0 4 0;
#X connect 3 0 2 1;
#X connect 4 0 5 0;
#X connect 5 0 7 0;
#X connect 7 0 6 0;
#X connect 8 0 9 0;
#X connect 9 0 2 0;
#X restore 497 174 pd filter;
#X obj 46 96 jwy-sync-r 3003;
#X obj 316 2 r jwy-sync-pulse;
#X obj 419 13 r jwy-sync-bpm;
#X connect 2 0 24 0;
#X connect 3 0 4 0;
#X connect 3 1 4 1;
#X connect 3 2 4 2;
#X connect 4 0 5 0;
#X connect 4 1 5 1;
#X connect 5 0 6 0;
#X connect 6 0 7 0;
#X connect 6 1 8 0;
#X connect 7 0 9 0;
#X connect 8 0 9 0;
#X connect 9 0 10 0;
#X connect 11 0 10 1;
#X connect 12 0 13 0;
#X connect 13 0 11 0;
#X connect 14 0 15 0;
#X connect 15 0 16 0;
#X connect 16 1 19 0;
#X connect 16 1 27 0;
#X connect 16 2 18 0;
#X connect 16 3 23 0;
#X connect 16 4 25 0;
#X connect 16 4 26 0;
#X connect 16 5 17 0;
#X connect 18 0 2 2;
#X connect 19 0 2 0;
#X connect 20 0 3 0;
#X connect 21 0 20 1;
#X connect 22 0 20 1;
#X connect 23 0 20 1;
#X connect 24 0 20 0;
#X connect 25 0 12 0;
#X connect 26 0 6 1;
#X connect 27 0 6 1;
#X connect 29 0 2 1;
#X connect 30 0 2 2;
