#N canvas 175 241 862 576 10;
#X declare -path ../jwy-bibliothek;
#X obj 36 14 declare -path ../jwy-bibliothek;
#X obj 487 167 bng 15 250 50 0 empty empty empty 17 7 0 10 -262144
-1 -1;
#X obj 77 162 bng 15 250 50 0 empty empty empty 17 7 0 10 -262144 -1
-1;
#X msg 694 173 vol \$1;
#X obj 696 146 hsl 128 15 0 127 0 0 empty empty empty -2 -8 0 10 -262144
-1 -1 2400 1;
#X msg 241 166 vol \$1;
#X obj 249 143 hsl 128 15 0 127 0 0 empty empty empty -2 -8 0 10 -262144
-1 -1 4700 1;
#X obj 72 482 bng 15 250 50 0 empty empty empty 17 7 0 10 -262144 -1
-1;
#X msg 236 486 vol \$1;
#X obj 244 463 hsl 128 15 0 127 0 0 empty empty empty -2 -8 0 10 -262144
-1 -1 5700 1;
#X obj 459 478 bng 15 250 50 0 empty empty empty 17 7 0 10 -262144
-1 -1;
#X msg 623 482 vol \$1;
#X obj 631 459 hsl 128 15 0 127 0 0 empty empty empty -2 -8 0 10 -262144
-1 -1 2800 1;
#X obj 77 198 jwy-sync-s razi-100.local 3013;
#X obj 486 203 jwy-sync-s razi-400.local 3013;
#X obj 459 514 jwy-sync-s razi-300.local 3013;
#X obj 72 518 jwy-sync-s razi-200.local 3013;
#X msg 373 181 pulse bang;
#X msg 494 92 bpm \$1;
#X floatatom 494 62 5 0 0 0 - - -;
#X msg 232 90 reKon bang;
#X connect 1 0 14 0;
#X connect 2 0 13 0;
#X connect 3 0 14 1;
#X connect 4 0 3 0;
#X connect 5 0 13 1;
#X connect 6 0 5 0;
#X connect 7 0 16 0;
#X connect 8 0 16 1;
#X connect 9 0 8 0;
#X connect 10 0 15 0;
#X connect 11 0 15 1;
#X connect 12 0 11 0;
#X connect 17 0 13 1;
#X connect 17 0 14 1;
#X connect 17 0 15 1;
#X connect 17 0 16 1;
#X connect 18 0 14 1;
#X connect 18 0 15 1;
#X connect 18 0 16 1;
#X connect 18 0 13 1;
#X connect 19 0 18 0;
#X connect 20 0 13 1;
