#N canvas 92 162 927 623 10;
#X declare -path ../jwy-bibliothek;
#X obj 36 14 declare -path ../jwy-bibliothek;
#X obj 31 69 jwy-sync-s razi-4.local;
#X obj 283 454 cross-over-out 5000 5000 1 0.5;
#X msg 71 322 master-vol \$1;
#X obj 75 270 hsl 128 15 0 127 0 0 empty empty empty -2 -8 0 10 -262144
-1 -1 2500 1;
#X obj 72 295 / 127;
#X obj 13 107 loadbang;
#X obj 12 129 del 2000;
#X obj 12 150 t b b b b b b;
#X msg 87 181 \; pd dsp 1;
#X msg 72 240 25;
#X obj 593 26 jwy-sync-r 3003;
#X msg 661 78 read \$1;
#X obj 598 136 s \$0-vol;
#X obj 111 247 r \$0-vol;
#X msg 411 114 read 14;
#X obj 593 47 route vol seq trans;
#X floatatom 699 110 5 0 0 0 - - -;
#N canvas 0 23 1221 745 fm-loop 0;
#X obj 79 187 unpack 0 0 0;
#X obj 79 208 makenote, f 12;
#X obj 79 231 pack 0 0, f 12;
#X obj 79 361 *~ 0.7;
#X obj 244 357 *~ 0.7;
#X obj 79 409 *~ 1;
#X obj 79 159 seqq 360 ../bs-compose/texts400/texts 3;
#X msg 311 294 p-1 \$1;
#X obj 79 320 fm/fm-main presets/simple2 8;
#X msg 200 273 trans \$1;
#X floatatom 200 247 5 0 0 0 - - -;
#X msg 415 210 0;
#X obj 310 272 pow 2;
#X obj 510 430 switch~;
#X obj 79 430 *~, f 48;
#X obj 79 451 throw~ main400-bus;
#X obj 527 47 inlet;
#X obj 79 89 r main400-ticks;
#X obj 287 78 r load-on;
#X obj 401 106 spigot 1;
#X msg 466 116 0;
#X msg 211 214 12;
#X obj 393 149 sel 0;
#X msg 292 215 1;
#X obj 393 170 t b b;
#X obj 316 195 r jwy-sync-bpm;
#X msg 331 120 read 15;
#X obj 79 120 count-ticks 360 4;
#X obj 311 251 control-LFO 24 8;
#X obj 380 380 switch-control 10 4000;
#X connect 0 0 1 0;
#X connect 0 1 1 1;
#X connect 0 2 1 2;
#X connect 1 0 2 0;
#X connect 1 1 2 1;
#X connect 2 0 8 0;
#X connect 3 0 5 0;
#X connect 4 0 5 0;
#X connect 5 0 14 0;
#X connect 6 0 0 0;
#X connect 7 0 8 1;
#X connect 8 0 3 0;
#X connect 8 1 4 0;
#X connect 9 0 8 1;
#X connect 10 0 9 0;
#X connect 11 0 28 2;
#X connect 12 0 7 0;
#X connect 14 0 15 0;
#X connect 16 0 29 0;
#X connect 17 0 27 0;
#X connect 18 0 26 0;
#X connect 18 0 21 0;
#X connect 18 0 23 0;
#X connect 19 0 22 0;
#X connect 20 0 19 1;
#X connect 21 0 10 0;
#X connect 22 0 24 0;
#X connect 23 0 28 0;
#X connect 24 0 11 0;
#X connect 24 1 20 0;
#X connect 25 0 28 1;
#X connect 26 0 6 1;
#X connect 27 0 6 0;
#X connect 27 0 19 0;
#X connect 28 0 12 0;
#X connect 29 0 14 1;
#X connect 29 1 13 0;
#X connect 29 1 27 3;
#X restore 351 182 pd fm-loop;
#X obj 284 330 catch~ main400-bus;
#N canvas 0 23 848 553 master-metro 0;
#X obj 207 165 r jwy-sync-pulse;
#X obj 254 218 r jwy-sync-bpm;
#X obj 161 263 master-ticks 360;
#X obj 145 131 r load-on;
#X obj 161 284 s main400-ticks;
#X connect 0 0 2 1;
#X connect 1 0 2 2;
#X connect 2 0 4 0;
#X connect 3 0 2 0;
#X restore 244 99 pd master-metro;
#X obj 42 368 s load-on;
#X obj 353 156 tgl 15 0 empty empty empty 17 7 0 10 -262144 -1 -1 0
1;
#X obj 254 220 s jwy-sync-bpm;
#X msg 252 186 120;
#X floatatom 290 190 5 0 0 0 - - -;
#X connect 3 0 2 1;
#X connect 4 0 5 0;
#X connect 5 0 3 0;
#X connect 6 0 7 0;
#X connect 7 0 8 0;
#X connect 8 2 21 0;
#X connect 8 4 10 0;
#X connect 8 5 9 0;
#X connect 10 0 4 0;
#X connect 11 0 16 0;
#X connect 14 0 5 0;
#X connect 16 0 13 0;
#X connect 16 1 12 0;
#X connect 17 0 12 0;
#X connect 19 0 2 0;
#X connect 22 0 18 0;
#X connect 24 0 23 0;
#X connect 25 0 23 0;
