#N canvas 319 114 969 659 10;
#X declare -path ../externals/jwy-bibliothek;
#X declare -path ../jwy-bibliothek;
#X obj 226 538 *~ 0.7;
#X obj 406 496 hsl 128 15 0 127 0 0 empty empty empty -2 -8 0 10 -262144
-1 -1 6300 1;
#X obj 403 521 / 127;
#X msg 403 542 master-vol \$1;
#X obj 226 568 cross-over-out 2500 4000 1 0.5;
#X obj 25 17 declare -path ../externals/jwy-bibliothek;
#X obj 25 46 declare -path ../jwy-bibliothek;
#X obj 416 230 loadbang;
#X obj 416 251 del 2000;
#X obj 416 272 t b b b b b;
#X msg 479 329 \; pd dsp 1;
#X msg 463 305 25;
#X obj 709 126 jwy-sync-r 3003;
#X obj 425 59 r jwy-sync-bpm;
#X obj 378 37 r jwy-sync-pulse;
#X obj 709 147 route vol seq;
#X msg 746 184 read \$1;
#X obj 332 93 master-ticks 360;
#X obj 226 507 catch~ main100-bus;
#N canvas 0 23 688 475 steady-drum-beat 0;
#X obj 189 27 inlet switch;
#X msg 221 186 openTxt;
#X obj 72 221 seqq 360 ../bs-compose/texts100/texts 2;
#X obj 72 145 count-ticks 360 4;
#X obj 72 255 drum-bank;
#X obj 72 326 throw~ main100-bus;
#X msg 379 181 read 7;
#X obj 72 276 *~, f 15;
#X obj 318 115 switch~;
#X obj 72 112 spigot 0;
#X obj 189 77 switch-control 20 5000;
#X obj 409 30 inlet change preset;
#X obj 72 61 r main100-ticks;
#X obj 400 110 loadbang;
#X msg 380 212 read \$1;
#X floatatom 414 253 5 0 0 0 - - -;
#X msg 303 155 write 8;
#X connect 0 0 10 0;
#X connect 1 0 2 1;
#X connect 2 0 4 0;
#X connect 3 0 2 0;
#X connect 4 0 7 0;
#X connect 6 0 2 1;
#X connect 7 0 5 0;
#X connect 9 0 3 0;
#X connect 10 0 7 1;
#X connect 10 1 8 0;
#X connect 10 1 9 1;
#X connect 11 0 2 1;
#X connect 12 0 9 0;
#X connect 13 0 6 0;
#X connect 14 0 2 1;
#X connect 15 0 14 0;
#X connect 16 0 2 1;
#X restore 635 233 pd steady-drum-beat;
#X obj 635 204 tgl 15 0 empty empty empty 17 7 0 10 -262144 -1 -1 1
1;
#X msg 456 96 60;
#X obj 332 15 r jwy-sync-start;
#X msg 332 36 1;
#X obj 332 114 s main100-ticks;
#X connect 0 0 4 0;
#X connect 1 0 2 0;
#X connect 2 0 3 0;
#X connect 3 0 4 1;
#X connect 7 0 8 0;
#X connect 8 0 9 0;
#X connect 9 1 20 0;
#X connect 9 3 11 0;
#X connect 9 4 10 0;
#X connect 11 0 1 0;
#X connect 12 0 15 0;
#X connect 13 0 17 2;
#X connect 14 0 17 1;
#X connect 15 0 1 0;
#X connect 15 1 16 0;
#X connect 16 0 19 1;
#X connect 17 0 24 0;
#X connect 18 0 0 0;
#X connect 20 0 19 0;
#X connect 21 0 17 2;
#X connect 22 0 23 0;
#X connect 23 0 17 0;
