#N canvas 602 142 739 546 10;
#X declare -path ../jwy-bibliothek;
#X obj 36 14 declare -path ../jwy-bibliothek;
#X obj 31 69 jwy-sync-s razi-4.local;
#X obj 283 151 unpack 0 0 0;
#X obj 283 172 makenote, f 12;
#X obj 283 195 pack 0 0, f 12;
#X obj 283 245 *~ 0.7;
#X obj 423 245 *~ 0.7;
#X obj 283 303 *~ 1;
#X obj 283 454 cross-over-out 5000 5000 1 0.5;
#X msg 71 322 master-vol \$1;
#X obj 75 275 hsl 128 15 0 127 0 0 empty empty empty -2 -8 0 10 -262144
-1 -1 2500 1;
#X obj 72 295 / 127;
#X obj 13 107 loadbang;
#X obj 12 129 del 2000;
#X obj 12 150 t b b b b b b;
#X msg 87 181 \; pd dsp 1;
#X msg 332 27 120, f 8;
#X msg 285 25 1;
#X msg 400 69 openTxt;
#X msg 72 240 25;
#X obj 593 26 jwy-sync-r 3003;
#X obj 309 6 r jwy-sync-pulse;
#X obj 412 17 r jwy-sync-bpm;
#X obj 593 47 route vol seq;
#X msg 661 78 read \$1;
#X msg 227 71 0;
#X floatatom 337 53 5 0 0 0 - - -;
#X obj 283 81 master-ticks 360;
#X obj 283 123 seqq 360 ../bs-compose/texts400/texts 3;
#X obj 593 68 s \$0-vol;
#X obj 111 247 r \$0-vol;
#X obj 535 195 hsl 128 15 0 127 0 0 empty empty empty -2 -8 0 10 -262144
-1 -1 10000 1;
#X obj 532 215 / 127;
#X msg 462 189 p-1 \$1;
#X obj 283 224 fm/fm-main presets/simple1 8;
#X obj 283 102 count-ticks 360 8;
#X msg 474 52 write 14;
#X msg 551 88 read 14;
#X msg 526 165 100;
#X msg 489 75 read 14;
#X connect 2 0 3 0;
#X connect 2 1 3 1;
#X connect 2 2 3 2;
#X connect 3 0 4 0;
#X connect 3 1 4 1;
#X connect 4 0 34 0;
#X connect 5 0 7 0;
#X connect 6 0 7 0;
#X connect 7 0 8 0;
#X connect 9 0 8 1;
#X connect 10 0 11 0;
#X connect 11 0 9 0;
#X connect 12 0 13 0;
#X connect 13 0 14 0;
#X connect 14 1 17 0;
#X connect 14 1 38 0;
#X connect 14 2 16 0;
#X connect 14 3 39 0;
#X connect 14 4 19 0;
#X connect 14 5 15 0;
#X connect 16 0 27 2;
#X connect 17 0 27 0;
#X connect 18 0 28 1;
#X connect 19 0 10 0;
#X connect 20 0 23 0;
#X connect 21 0 27 1;
#X connect 22 0 27 2;
#X connect 23 0 29 0;
#X connect 23 1 24 0;
#X connect 24 0 28 1;
#X connect 25 0 27 0;
#X connect 26 0 27 2;
#X connect 27 0 35 0;
#X connect 28 0 2 0;
#X connect 30 0 11 0;
#X connect 31 0 32 0;
#X connect 32 0 33 0;
#X connect 33 0 34 1;
#X connect 34 0 5 0;
#X connect 34 1 6 0;
#X connect 35 0 28 0;
#X connect 36 0 28 1;
#X connect 37 0 28 1;
#X connect 38 0 31 0;
#X connect 39 0 28 1;
