#N canvas 771 240 450 300 10;
#X obj 16 9 inlet;
#X obj 16 184 s manual-control;
#X obj 66 154 s local-pattern;
#X obj 155 92 s local-tempo;
#X obj 16 30 route man-control pattern voice temp0;
#X obj 112 130 s local-voice;
#X connect 0 0 4 0;
#X connect 4 0 1 0;
#X connect 4 1 2 0;
#X connect 4 2 5 0;
#X connect 4 3 3 0;
