#N canvas 0 23 815 673 10;
#X obj 313 456 inlet switch;
#X obj 106 525 *~, f 35;
#X obj 481 545 switch~;
#X obj 313 497 switch-control 2000 4000;
#X obj 454 519 t f f;
#X obj 106 546 throw~ main-bus;
#X obj 37 73 r main-ticks;
#X obj 37 160 seqq 360 ../bs-compose/texts/\$1 3;
#X obj 37 130 count-ticks 360 6;
#X msg 213 59 openTxt;
#X obj 292 74 f \$2;
#X msg 292 95 write \$1;
#X obj 292 47 bng 15 250 50 0 empty empty empty 17 7 0 10 -262144 -1
-1;
#X msg 232 84 read 2;
#X obj 355 281 drum-bank;
#X connect 0 0 3 0;
#X connect 1 0 5 0;
#X connect 3 0 1 1;
#X connect 3 1 4 0;
#X connect 4 1 2 0;
#X connect 6 0 8 0;
#X connect 8 0 7 0;
#X connect 9 0 7 1;
#X connect 10 0 11 0;
#X connect 11 0 7 1;
#X connect 12 0 10 0;
#X connect 13 0 7 1;
