#N canvas 141 120 815 673 10;
#X declare -path ../jwy-bibliothek;
#N canvas 274 116 760 701 drums 0;
#X obj 287 304 inlet switch;
#X obj 80 463 *~, f 35;
#X obj 455 483 switch~;
#X obj 428 457 t f f;
#X obj 563 -45 declare -path ../jwy-bibliothek;
#X obj 80 380 drum-bank;
#X obj 80 401 *~ 0.8;
#X obj 83 113 count-ticks 360 4;
#X msg 347 26 openTxt;
#X obj 219 -4 t f f;
#X obj 246 22 sel 1;
#X msg 417 104 read 1;
#X obj 83 16 r main-ticks;
#X obj 80 318 pack 0 0;
#X obj 83 164 t a b;
#X msg 246 79 read \$1;
#X msg 419 78 write \$1;
#X obj 418 28 bng 15 250 50 0 empty empty empty 17 7 0 10 -262144 -1
-1;
#X obj 246 43 f \$2;
#X obj 420 55 f \$2;
#X obj 83 143 seqq 360 ../bs-compose/texts/\$1 1;
#X obj 292 -21 bng 15 250 50 0 empty empty empty 17 7 0 10 -262144
-1 -1;
#X obj 125 189 random 126;
#X obj 125 210 + 1;
#X obj 125 231 / 127;
#X obj 125 273 * 127;
#X obj 125 294 i;
#X obj 125 252 pow 8;
#X obj 287 435 switch-control 20 20;
#X obj 80 484 outlet~;
#X connect 0 0 28 0;
#X connect 1 0 29 0;
#X connect 3 0 9 0;
#X connect 3 1 2 0;
#X connect 5 0 6 0;
#X connect 6 0 1 0;
#X connect 7 0 20 0;
#X connect 8 0 20 1;
#X connect 9 0 7 3;
#X connect 9 1 10 0;
#X connect 10 0 18 0;
#X connect 11 0 20 1;
#X connect 12 0 7 0;
#X connect 13 0 5 0;
#X connect 14 0 13 0;
#X connect 14 1 22 0;
#X connect 15 0 20 1;
#X connect 16 0 20 1;
#X connect 17 0 19 0;
#X connect 18 0 15 0;
#X connect 19 0 16 0;
#X connect 20 0 14 0;
#X connect 21 0 18 0;
#X connect 22 0 23 0;
#X connect 23 0 24 0;
#X connect 24 0 27 0;
#X connect 25 0 26 0;
#X connect 26 0 13 1;
#X connect 27 0 25 0;
#X connect 28 0 1 1;
#X connect 28 1 3 0;
#X restore 58 211 pd drums;
#X obj 313 456 inlet switch;
#X obj 106 525 *~, f 35;
#X obj 481 545 switch~;
#X obj 313 497 switch-control 2000 4000;
#X obj 454 519 t f f;
#X obj 106 546 throw~ main-bus;
#X obj 274 55 r local-voice;
#X obj 274 76 sel 0 1 2 3 4 5, f 60;
#X connect 0 0 2 0;
#X connect 1 0 4 0;
#X connect 2 0 6 0;
#X connect 4 0 2 1;
#X connect 4 1 5 0;
#X connect 5 1 3 0;
#X connect 7 0 8 0;
