#N canvas 771 240 450 300 10;
#X obj 16 9 inlet;
#X obj 16 184 s manual-control;
#X obj 66 154 s local-pattern;
#X obj 155 92 s local-tempo;
#X obj 112 130 s local-voice;
#X obj 16 30 route man-control pattern voice temp0 param1;
#X obj 230 184 s local-param1;
#X obj 225 56 / 127;
#X connect 0 0 5 0;
#X connect 5 0 1 0;
#X connect 5 1 2 0;
#X connect 5 2 4 0;
#X connect 5 3 3 0;
#X connect 5 4 7 0;
#X connect 7 0 6 0;
