#N canvas 178 84 938 681 10;
#X declare -path ../jwy-bibliothek;
#X declare -path ../jwy-bibliothek;
#X declare -path ../jwy-bibliothek;
#X declare -path ../jwy-bibliothek;
#X declare -path ../jwy-bibliothek;
#N canvas 274 116 760 701 drums 0;
#X obj 267 406 inlet switch;
#X obj 60 565 *~, f 35;
#X obj 435 585 switch~;
#X obj 408 559 t f f;
#X obj 526 656 declare -path ../jwy-bibliothek;
#X obj 60 412 drum-bank;
#X obj 60 473 *~ 0.8;
#X obj 63 215 count-ticks 360 4;
#X msg 298 53 openTxt;
#X obj 199 98 t f f;
#X obj 226 124 sel 1;
#X obj 63 118 r main-ticks;
#X msg 226 181 read \$1;
#X msg 380 95 write \$1;
#X obj 380 40 bng 15 250 50 0 empty empty empty 17 7 0 10 -262144 -1
-1;
#X obj 226 145 f \$2;
#X obj 380 71 f \$2;
#X obj 60 586 outlet~;
#X obj 569 96 inlet;
#X msg 569 161 read \$1;
#X floatatom 419 34 5 0 0 0 - - -;
#X obj 63 245 seqq 360 ../bs-compose/texts/man-drum 2;
#X obj 457 32 bng 15 250 50 0 empty empty empty 17 7 0 10 -262144 -1
-1;
#X obj 457 63 f \$2;
#X floatatom 496 26 5 0 0 0 - - -;
#X msg 457 87 read \$1;
#X obj 202 333 spigot 0;
#X obj 203 306 r local-param1;
#X text 401 292 what parameter can I do?;
#X floatatom 494 321 5 0 0 0 - - -;
#X obj 489 389 /;
#X msg 489 362 60000 \$1;
#X floatatom 489 440 14 0 0 0 - - -;
#X obj 113 510 *~ 0.67;
#X obj 113 531 *~;
#X obj 202 354 lop~ 10;
#X obj 113 444 delwrite~ yoo 340;
#X obj 489 410 / 4;
#X obj 113 469 delread~ yoo 151.515;
#X obj 267 537 switch-control 1000 1000;
#X obj 185 407 *~ 0.456;
#X connect 0 0 39 0;
#X connect 1 0 17 0;
#X connect 3 0 9 0;
#X connect 3 0 26 1;
#X connect 3 1 2 0;
#X connect 5 0 6 0;
#X connect 5 0 36 0;
#X connect 6 0 1 0;
#X connect 7 0 21 0;
#X connect 8 0 21 1;
#X connect 9 0 7 3;
#X connect 9 1 10 0;
#X connect 10 0 15 0;
#X connect 11 0 7 0;
#X connect 12 0 21 1;
#X connect 13 0 21 1;
#X connect 14 0 16 0;
#X connect 15 0 12 0;
#X connect 16 0 13 0;
#X connect 18 0 19 0;
#X connect 19 0 21 1;
#X connect 20 0 16 1;
#X connect 21 0 5 0;
#X connect 22 0 23 0;
#X connect 23 0 25 0;
#X connect 24 0 23 1;
#X connect 25 0 21 1;
#X connect 26 0 35 0;
#X connect 27 0 26 0;
#X connect 29 0 31 0;
#X connect 30 0 37 0;
#X connect 31 0 30 0;
#X connect 33 0 34 0;
#X connect 34 0 1 0;
#X connect 35 0 34 1;
#X connect 37 0 32 0;
#X connect 38 0 33 0;
#X connect 38 0 40 0;
#X connect 39 0 1 1;
#X connect 39 1 3 0;
#X connect 40 0 36 0;
#X restore 106 291 pd drums;
#X obj 313 456 inlet switch;
#X obj 106 525 *~, f 35;
#X obj 481 545 switch~;
#X obj 454 519 t f f;
#X obj 106 546 throw~ main-bus;
#X obj 178 25 r local-voice;
#X obj 151 233 r \$0-whihc-pattern;
#X obj 178 82 s \$0-which-voice;
#X obj 106 138 r \$0-which-voice;
#X obj 106 159 sel 1, f 9;
#X msg 106 180 1;
#X obj 157 182 t b;
#X msg 157 203 0;
#X obj 330 233 r \$0-whihc-pattern;
#X obj 285 138 r \$0-which-voice;
#X msg 285 180 1;
#X obj 336 182 t b;
#X msg 336 203 0;
#X obj 285 159 sel 2, f 9;
#X obj 478 37 r local-pattern;
#X obj 478 108 list prepend 1;
#X obj 178 51 t f f;
#X obj 478 129 list trim;
#X obj 151 254 route 1;
#X obj 330 254 route 2;
#X obj 478 150 s \$0-whihc-pattern;
#X obj 522 286 r \$0-whihc-pattern;
#X obj 477 191 r \$0-which-voice;
#X msg 477 233 1;
#X obj 528 235 t b;
#X msg 528 256 0;
#N canvas 432 177 760 701 fm-1 0;
#X obj 287 304 inlet switch;
#X obj 45 543 *~, f 35;
#X obj 455 553 switch~;
#X obj 428 527 t f f;
#X obj 563 -45 declare -path ../jwy-bibliothek;
#X obj 83 113 count-ticks 360 4;
#X msg 355 189 openTxt;
#X obj 219 -4 t f f;
#X obj 246 22 sel 1;
#X obj 83 16 r main-ticks;
#X msg 246 79 read \$1;
#X obj 246 43 f \$2;
#X obj 45 564 outlet~;
#X obj 589 -26 inlet;
#X msg 589 99 read \$1;
#X obj 45 175 unpack 0 0 0, f 14;
#X obj 45 196 makenote 0 0 0;
#X obj 45 217 pack 0 0, f 14;
#X msg 426 183 write \$1;
#X obj 426 128 bng 15 250 50 0 empty empty empty 17 7 0 10 -262144
-1 -1;
#X obj 426 159 f \$2;
#X floatatom 465 122 5 0 0 0 - - -;
#X obj 503 120 bng 15 250 50 0 empty empty empty 17 7 0 10 -262144
-1 -1;
#X obj 503 151 f \$2;
#X floatatom 542 114 5 0 0 0 - - -;
#X msg 503 175 read \$1;
#X obj 83 139 seqq 360 ../bs-compose/texts/man-fm1 3;
#X obj 589 -5 t f f;
#X msg 128 278 p-1 \$1;
#X msg 243 277 open;
#X obj 45 328 fm/fm-main presets/fb-1 4;
#X obj 45 369 *~ 0.54;
#X obj 186 365 *~ 0.54;
#X obj 381 265 spigot 0;
#X obj 381 238 r local-param1;
#X msg 616 39 4;
#X msg 654 39 6;
#X obj 616 60 f;
#X obj 616 18 sel 1 2 3 4 5, f 14;
#X obj 287 505 switch-control 1000 1000;
#X connect 0 0 39 0;
#X connect 1 0 12 0;
#X connect 3 0 7 0;
#X connect 3 0 33 1;
#X connect 3 1 2 0;
#X connect 5 0 26 0;
#X connect 6 0 26 1;
#X connect 7 0 5 3;
#X connect 7 1 8 0;
#X connect 8 0 11 0;
#X connect 9 0 5 0;
#X connect 10 0 26 1;
#X connect 11 0 10 0;
#X connect 13 0 27 0;
#X connect 14 0 26 1;
#X connect 15 0 16 0;
#X connect 15 1 16 1;
#X connect 15 2 16 2;
#X connect 16 0 17 0;
#X connect 16 1 17 1;
#X connect 17 0 30 0;
#X connect 18 0 26 1;
#X connect 19 0 20 0;
#X connect 20 0 18 0;
#X connect 21 0 20 1;
#X connect 22 0 23 0;
#X connect 23 0 25 0;
#X connect 24 0 23 1;
#X connect 25 0 26 1;
#X connect 26 0 15 0;
#X connect 27 0 14 0;
#X connect 27 1 38 0;
#X connect 28 0 30 1;
#X connect 29 0 30 2;
#X connect 30 0 31 0;
#X connect 30 1 32 0;
#X connect 31 0 1 0;
#X connect 32 0 1 0;
#X connect 33 0 28 0;
#X connect 34 0 33 0;
#X connect 35 0 37 0;
#X connect 36 0 37 0;
#X connect 37 0 5 1;
#X connect 38 0 35 0;
#X connect 38 1 35 0;
#X connect 38 2 35 0;
#X connect 38 3 36 0;
#X connect 38 4 36 0;
#X connect 39 0 1 1;
#X connect 39 1 3 0;
#X restore 285 291 pd fm-1;
#N canvas 210 177 760 701 fm-2 0;
#X obj 287 304 inlet switch;
#X obj 45 543 *~, f 35;
#X obj 455 553 switch~;
#X obj 428 527 t f f;
#X obj 563 -45 declare -path ../jwy-bibliothek;
#X msg 355 189 openTxt;
#X obj 219 -4 t f f;
#X obj 246 22 sel 1;
#X obj 83 16 r main-ticks;
#X msg 246 79 read \$1;
#X obj 246 43 f \$2;
#X obj 45 564 outlet~;
#X obj 589 -6 inlet;
#X msg 589 79 read \$1;
#X obj 45 175 unpack 0 0 0, f 14;
#X obj 45 196 makenote 0 0 0;
#X obj 45 217 pack 0 0, f 14;
#X msg 426 183 write \$1;
#X obj 426 128 bng 15 250 50 0 empty empty empty 17 7 0 10 -262144
-1 -1;
#X obj 426 159 f \$2;
#X floatatom 465 122 5 0 0 0 - - -;
#X obj 503 120 bng 15 250 50 0 empty empty empty 17 7 0 10 -262144
-1 -1;
#X obj 503 151 f \$2;
#X floatatom 542 114 5 0 0 0 - - -;
#X msg 503 175 read \$1;
#X obj 589 15 t f f;
#X msg 127 367 p-1 \$1;
#X msg 584 369 trans \$1;
#X obj 586 277 sel 0 1 2 3 4, f 23;
#X msg 587 310 0;
#X obj 557 204 f;
#X obj 585 205 + 1;
#X obj 586 252 % 5;
#X obj 586 228 + \$2;
#X msg 675 313 14;
#X msg 622 313 6;
#X msg 656 313 11;
#X msg 243 277 open;
#X obj 45 479 *~ 0.54;
#X obj 186 475 *~ 0.54;
#X obj 45 439 fm/fm-main presets/simple1 4;
#X obj 381 265 spigot 0;
#X obj 381 238 r local-param1;
#X obj 83 139 seqq 360 ../bs-compose/texts/man-fm2 3;
#X obj 615 36 sel 1 2 3, f 14;
#X msg 616 59 8;
#X obj 83 113 count-ticks 360 8;
#X obj 287 505 switch-control 1000 1000;
#X connect 0 0 47 0;
#X connect 1 0 11 0;
#X connect 3 0 6 0;
#X connect 3 0 41 1;
#X connect 3 1 2 0;
#X connect 5 0 43 1;
#X connect 6 0 46 3;
#X connect 6 1 7 0;
#X connect 7 0 10 0;
#X connect 7 0 29 0;
#X connect 8 0 46 0;
#X connect 9 0 43 1;
#X connect 10 0 9 0;
#X connect 12 0 25 0;
#X connect 13 0 43 1;
#X connect 14 0 15 0;
#X connect 14 1 15 1;
#X connect 14 2 15 2;
#X connect 15 0 16 0;
#X connect 15 1 16 1;
#X connect 16 0 40 0;
#X connect 17 0 43 1;
#X connect 18 0 19 0;
#X connect 19 0 17 0;
#X connect 20 0 19 1;
#X connect 21 0 22 0;
#X connect 22 0 24 0;
#X connect 23 0 22 1;
#X connect 24 0 43 1;
#X connect 25 0 13 0;
#X connect 25 1 44 0;
#X connect 26 0 40 1;
#X connect 27 0 40 1;
#X connect 28 0 29 0;
#X connect 28 1 35 0;
#X connect 28 2 36 0;
#X connect 28 3 34 0;
#X connect 28 4 35 0;
#X connect 29 0 27 0;
#X connect 30 0 31 0;
#X connect 31 0 30 1;
#X connect 31 0 33 0;
#X connect 32 0 28 0;
#X connect 33 0 32 0;
#X connect 34 0 27 0;
#X connect 35 0 27 0;
#X connect 36 0 27 0;
#X connect 37 0 40 2;
#X connect 38 0 1 0;
#X connect 39 0 1 0;
#X connect 40 0 38 0;
#X connect 40 1 39 0;
#X connect 41 0 26 0;
#X connect 42 0 41 0;
#X connect 43 0 14 0;
#X connect 44 0 45 0;
#X connect 44 1 45 0;
#X connect 44 2 45 0;
#X connect 45 0 46 1;
#X connect 46 0 43 0;
#X connect 47 0 1 1;
#X connect 47 1 3 0;
#X restore 477 344 pd fm-2;
#X obj 522 307 route 3;
#X obj 477 212 sel 3, f 9;
#X obj 636 416 r \$0-whihc-pattern;
#X obj 591 321 r \$0-which-voice;
#X msg 591 363 1;
#X obj 642 365 t b;
#X msg 642 386 0;
#N canvas 528 177 760 701 fm-3 0;
#X obj 287 304 inlet switch;
#X obj 45 543 *~, f 35;
#X obj 455 553 switch~;
#X obj 428 527 t f f;
#X obj 563 -45 declare -path ../jwy-bibliothek;
#X obj 83 113 count-ticks 360 4;
#X msg 355 189 openTxt;
#X obj 219 -4 t f f;
#X obj 246 22 sel 1;
#X obj 83 16 r main-ticks;
#X msg 246 79 read \$1;
#X obj 246 43 f \$2;
#X obj 45 564 outlet~;
#X obj 589 -6 inlet;
#X msg 589 79 read \$1;
#X obj 45 175 unpack 0 0 0, f 14;
#X obj 45 196 makenote 0 0 0;
#X obj 45 217 pack 0 0, f 14;
#X msg 426 183 write \$1;
#X obj 426 128 bng 15 250 50 0 empty empty empty 17 7 0 10 -262144
-1 -1;
#X obj 426 159 f \$2;
#X floatatom 465 122 5 0 0 0 - - -;
#X obj 503 120 bng 15 250 50 0 empty empty empty 17 7 0 10 -262144
-1 -1;
#X obj 503 151 f \$2;
#X floatatom 542 114 5 0 0 0 - - -;
#X msg 503 175 read \$1;
#X obj 589 15 t f f;
#X msg 584 369 trans \$1;
#X obj 586 277 sel 0 1 2 3 4, f 23;
#X msg 587 310 0;
#X obj 557 204 f;
#X obj 585 205 + 1;
#X obj 586 252 % 5;
#X obj 586 228 + \$2;
#X msg 675 313 14;
#X msg 622 313 6;
#X msg 656 313 11;
#X msg 243 277 open;
#X obj 45 479 *~ 0.54;
#X obj 186 475 *~ 0.54;
#X obj 381 265 spigot 0;
#X obj 381 238 r local-param1;
#X obj 83 139 seqq 360 ../bs-compose/texts/man-fm3 3;
#X obj 616 38 sel 1 2 3, f 14;
#X msg 616 59 8;
#X obj 287 505 switch-control 1000 1000;
#X obj 45 439 fm/fm-main presets/fb-5 4;
#X msg 127 367 p-1 \$1;
#X connect 0 0 45 0;
#X connect 1 0 12 0;
#X connect 3 0 7 0;
#X connect 3 0 40 1;
#X connect 3 1 2 0;
#X connect 5 0 42 0;
#X connect 6 0 42 1;
#X connect 7 0 5 3;
#X connect 7 1 8 0;
#X connect 8 0 11 0;
#X connect 8 0 29 0;
#X connect 9 0 5 0;
#X connect 10 0 42 1;
#X connect 11 0 10 0;
#X connect 13 0 26 0;
#X connect 14 0 42 1;
#X connect 15 0 16 0;
#X connect 15 1 16 1;
#X connect 15 2 16 2;
#X connect 16 0 17 0;
#X connect 16 1 17 1;
#X connect 17 0 46 0;
#X connect 18 0 42 1;
#X connect 19 0 20 0;
#X connect 20 0 18 0;
#X connect 21 0 20 1;
#X connect 22 0 23 0;
#X connect 23 0 25 0;
#X connect 24 0 23 1;
#X connect 25 0 42 1;
#X connect 26 0 14 0;
#X connect 26 1 43 0;
#X connect 27 0 46 1;
#X connect 28 0 29 0;
#X connect 28 1 35 0;
#X connect 28 2 36 0;
#X connect 28 3 34 0;
#X connect 28 4 35 0;
#X connect 29 0 27 0;
#X connect 30 0 31 0;
#X connect 31 0 30 1;
#X connect 31 0 33 0;
#X connect 32 0 28 0;
#X connect 33 0 32 0;
#X connect 34 0 27 0;
#X connect 35 0 27 0;
#X connect 36 0 27 0;
#X connect 37 0 46 2;
#X connect 38 0 1 0;
#X connect 39 0 1 0;
#X connect 40 0 47 0;
#X connect 41 0 40 0;
#X connect 42 0 15 0;
#X connect 43 0 44 0;
#X connect 43 1 44 0;
#X connect 43 2 44 0;
#X connect 44 0 5 1;
#X connect 45 0 1 1;
#X connect 45 1 3 0;
#X connect 46 0 38 0;
#X connect 46 1 39 0;
#X connect 47 0 46 1;
#X restore 591 474 pd fm-3;
#X obj 591 341 sel 4, f 9;
#X obj 636 437 route 4;
#X obj 694 196 r \$0-whihc-pattern;
#X obj 649 101 r \$0-which-voice;
#X msg 649 143 1;
#X obj 700 145 t b;
#X msg 700 166 0;
#N canvas 124 106 760 701 fm-4 0;
#X obj 287 304 inlet switch;
#X obj 45 543 *~, f 35;
#X obj 455 553 switch~;
#X obj 428 527 t f f;
#X obj 563 -45 declare -path ../jwy-bibliothek;
#X msg 355 189 openTxt;
#X obj 219 -4 t f f;
#X obj 246 22 sel 1;
#X obj 83 16 r main-ticks;
#X msg 246 79 read \$1;
#X obj 246 43 f \$2;
#X obj 45 564 outlet~;
#X obj 589 -6 inlet;
#X msg 589 119 read \$1;
#X obj 45 175 unpack 0 0 0, f 14;
#X obj 45 196 makenote 0 0 0;
#X obj 45 217 pack 0 0, f 14;
#X msg 426 183 write \$1;
#X obj 426 128 bng 15 250 50 0 empty empty empty 17 7 0 10 -262144
-1 -1;
#X obj 426 159 f \$2;
#X floatatom 465 122 5 0 0 0 - - -;
#X obj 503 120 bng 15 250 50 0 empty empty empty 17 7 0 10 -262144
-1 -1;
#X obj 503 151 f \$2;
#X floatatom 542 114 5 0 0 0 - - -;
#X msg 503 175 read \$1;
#X obj 589 15 t f f;
#X msg 127 367 p-1 \$1;
#X msg 584 369 trans \$1;
#X obj 586 277 sel 0 1 2 3 4, f 23;
#X msg 587 310 0;
#X obj 557 204 f;
#X obj 585 205 + 1;
#X obj 586 252 % 5;
#X obj 586 228 + \$2;
#X msg 675 313 14;
#X msg 622 313 6;
#X msg 656 313 11;
#X msg 243 277 open;
#X obj 45 479 *~ 0.54;
#X obj 186 475 *~ 0.54;
#X obj 381 265 spigot 0;
#X obj 381 238 r local-param1;
#X obj 45 439 fm/fm-main presets/fb-4 4;
#X obj 83 139 seqq 360 ../bs-compose/texts/man-fm4 3;
#X obj 287 505 switch-control 1000 1000;
#X obj 83 113 count-ticks 360 8;
#X msg 616 59 4;
#X obj 616 80 f;
#X obj 616 38 sel 1 2 3 4, f 14;
#X msg 655 58 8;
#X connect 0 0 44 0;
#X connect 1 0 11 0;
#X connect 3 0 6 0;
#X connect 3 0 40 1;
#X connect 3 1 2 0;
#X connect 5 0 43 1;
#X connect 6 0 45 3;
#X connect 6 1 7 0;
#X connect 7 0 10 0;
#X connect 7 0 29 0;
#X connect 8 0 45 0;
#X connect 9 0 43 1;
#X connect 10 0 9 0;
#X connect 12 0 25 0;
#X connect 13 0 43 1;
#X connect 14 0 15 0;
#X connect 14 1 15 1;
#X connect 14 2 15 2;
#X connect 15 0 16 0;
#X connect 15 1 16 1;
#X connect 16 0 42 0;
#X connect 17 0 43 1;
#X connect 18 0 19 0;
#X connect 19 0 17 0;
#X connect 20 0 19 1;
#X connect 21 0 22 0;
#X connect 22 0 24 0;
#X connect 23 0 22 1;
#X connect 24 0 43 1;
#X connect 25 0 13 0;
#X connect 25 1 48 0;
#X connect 26 0 42 1;
#X connect 27 0 42 1;
#X connect 28 0 29 0;
#X connect 28 1 35 0;
#X connect 28 2 36 0;
#X connect 28 3 34 0;
#X connect 28 4 35 0;
#X connect 29 0 27 0;
#X connect 30 0 31 0;
#X connect 31 0 30 1;
#X connect 31 0 33 0;
#X connect 32 0 28 0;
#X connect 33 0 32 0;
#X connect 34 0 27 0;
#X connect 35 0 27 0;
#X connect 36 0 27 0;
#X connect 37 0 42 2;
#X connect 38 0 1 0;
#X connect 39 0 1 0;
#X connect 40 0 26 0;
#X connect 41 0 40 0;
#X connect 42 0 38 0;
#X connect 42 1 39 0;
#X connect 43 0 14 0;
#X connect 44 0 1 1;
#X connect 44 1 3 0;
#X connect 45 0 43 0;
#X connect 46 0 47 0;
#X connect 47 0 45 1;
#X connect 48 0 46 0;
#X connect 48 1 46 0;
#X connect 48 2 49 0;
#X connect 48 3 49 0;
#X connect 49 0 47 0;
#X restore 649 254 pd fm-4;
#X obj 694 217 route 5;
#X obj 649 121 sel 5, f 9;
#X obj 313 497 switch-control 1000 1000;
#X connect 0 0 2 0;
#X connect 1 0 52 0;
#X connect 2 0 5 0;
#X connect 4 1 3 0;
#X connect 6 0 22 0;
#X connect 7 0 24 0;
#X connect 9 0 10 0;
#X connect 10 0 11 0;
#X connect 10 1 12 0;
#X connect 11 0 0 0;
#X connect 12 0 13 0;
#X connect 13 0 0 0;
#X connect 14 0 25 0;
#X connect 15 0 19 0;
#X connect 16 0 32 0;
#X connect 17 0 18 0;
#X connect 18 0 32 0;
#X connect 19 0 16 0;
#X connect 19 1 17 0;
#X connect 20 0 21 0;
#X connect 21 0 23 0;
#X connect 22 0 8 0;
#X connect 22 1 21 1;
#X connect 23 0 26 0;
#X connect 24 0 0 1;
#X connect 25 0 32 1;
#X connect 27 0 34 0;
#X connect 28 0 35 0;
#X connect 29 0 33 0;
#X connect 30 0 31 0;
#X connect 31 0 33 0;
#X connect 32 0 2 0;
#X connect 33 0 2 0;
#X connect 34 0 33 1;
#X connect 35 0 29 0;
#X connect 35 1 30 0;
#X connect 36 0 43 0;
#X connect 37 0 42 0;
#X connect 38 0 41 0;
#X connect 39 0 40 0;
#X connect 40 0 41 0;
#X connect 41 0 2 0;
#X connect 42 0 38 0;
#X connect 42 1 39 0;
#X connect 43 0 41 1;
#X connect 44 0 50 0;
#X connect 45 0 51 0;
#X connect 46 0 49 0;
#X connect 47 0 48 0;
#X connect 48 0 49 0;
#X connect 49 0 2 0;
#X connect 50 0 49 1;
#X connect 51 0 46 0;
#X connect 51 1 47 0;
#X connect 52 0 2 1;
#X connect 52 1 4 0;
