#N canvas 243 208 938 681 10;
#X declare -path ../jwy-bibliothek;
#X declare -path ../jwy-bibliothek;
#X declare -path ../jwy-bibliothek;
#X declare -path ../jwy-bibliothek;
#X declare -path ../jwy-bibliothek;
#N canvas 274 116 760 701 drums 0;
#X obj 267 406 inlet switch;
#X obj 60 565 *~, f 35;
#X obj 435 585 switch~;
#X obj 408 559 t f f;
#X obj 526 656 declare -path ../jwy-bibliothek;
#X obj 60 482 drum-bank;
#X obj 60 503 *~ 0.8;
#X obj 63 215 count-ticks 360 4;
#X msg 298 53 openTxt;
#X obj 199 98 t f f;
#X obj 226 124 sel 1;
#X obj 63 118 r main-ticks;
#X msg 226 181 read \$1;
#X msg 380 95 write \$1;
#X obj 380 40 bng 15 250 50 0 empty empty empty 17 7 0 10 -262144 -1
-1;
#X obj 226 145 f \$2;
#X obj 380 71 f \$2;
#X obj 267 537 switch-control 20 20;
#X obj 60 586 outlet~;
#X obj 569 96 inlet;
#X msg 569 161 read \$1;
#X floatatom 419 34 5 0 0 0 - - -;
#X obj 63 245 seqq 360 ../bs-compose/texts/man-drum 2;
#X obj 457 32 bng 15 250 50 0 empty empty empty 17 7 0 10 -262144 -1
-1;
#X obj 457 63 f \$2;
#X floatatom 496 26 5 0 0 0 - - -;
#X msg 457 87 read \$1;
#X connect 0 0 17 0;
#X connect 1 0 18 0;
#X connect 3 0 9 0;
#X connect 3 1 2 0;
#X connect 5 0 6 0;
#X connect 6 0 1 0;
#X connect 7 0 22 0;
#X connect 8 0 22 1;
#X connect 9 0 7 3;
#X connect 9 1 10 0;
#X connect 10 0 15 0;
#X connect 11 0 7 0;
#X connect 12 0 22 1;
#X connect 13 0 22 1;
#X connect 14 0 16 0;
#X connect 15 0 12 0;
#X connect 16 0 13 0;
#X connect 17 0 1 1;
#X connect 17 1 3 0;
#X connect 19 0 20 0;
#X connect 20 0 22 1;
#X connect 21 0 16 1;
#X connect 22 0 5 0;
#X connect 23 0 24 0;
#X connect 24 0 26 0;
#X connect 25 0 24 1;
#X connect 26 0 22 1;
#X restore 105 261 pd drums;
#X obj 313 456 inlet switch;
#X obj 106 525 *~, f 35;
#X obj 481 545 switch~;
#X obj 313 497 switch-control 2000 4000;
#X obj 454 519 t f f;
#X obj 106 546 throw~ main-bus;
#X obj 178 31 r local-voice;
#X obj 150 233 r \$0-whihc-pattern;
#X obj 178 52 s \$0-which-voice;
#X obj 105 138 r \$0-which-voice;
#X obj 105 159 sel 1, f 9;
#X msg 105 180 1;
#X obj 156 182 t b;
#X msg 156 203 0;
#X obj 330 233 r \$0-whihc-pattern;
#X obj 285 138 r \$0-which-voice;
#X obj 285 159 sel 1, f 9;
#X msg 285 180 1;
#X obj 336 182 t b;
#X msg 336 203 0;
#X obj 520 233 r \$0-whihc-pattern;
#X obj 475 138 r \$0-which-voice;
#X obj 475 159 sel 1, f 9;
#X msg 475 180 1;
#X obj 526 182 t b;
#X msg 526 203 0;
#X obj 700 233 r \$0-whihc-pattern;
#X obj 655 138 r \$0-which-voice;
#X obj 655 159 sel 1, f 9;
#X msg 655 180 1;
#X obj 706 182 t b;
#X msg 706 203 0;
#N canvas 585 177 760 701 fm-1 0;
#X obj 287 304 inlet switch;
#X obj 45 543 *~, f 35;
#X obj 455 553 switch~;
#X obj 428 527 t f f;
#X obj 563 -45 declare -path ../jwy-bibliothek;
#X obj 83 113 count-ticks 360 4;
#X msg 355 189 openTxt;
#X obj 219 -4 t f f;
#X obj 246 22 sel 1;
#X obj 83 16 r main-ticks;
#X msg 246 79 read \$1;
#X obj 246 43 f \$2;
#X obj 287 505 switch-control 20 20;
#X obj 45 564 outlet~;
#X obj 589 -6 inlet;
#X msg 589 79 read \$1;
#X obj 45 175 unpack 0 0 0, f 14;
#X obj 45 196 makenote 0 0 0;
#X obj 45 217 pack 0 0, f 14;
#X obj 45 369 *~ 0.34;
#X obj 186 365 *~ 0.34;
#X msg 426 183 write \$1;
#X obj 426 128 bng 15 250 50 0 empty empty empty 17 7 0 10 -262144
-1 -1;
#X obj 426 159 f \$2;
#X floatatom 465 122 5 0 0 0 - - -;
#X obj 503 120 bng 15 250 50 0 empty empty empty 17 7 0 10 -262144
-1 -1;
#X obj 503 151 f \$2;
#X floatatom 542 114 5 0 0 0 - - -;
#X msg 503 175 read \$1;
#X obj 45 328 fm/fm-main presets/fm1 4;
#X obj 83 139 seqq 360 ../bs-compose/texts/man-fm1 3;
#X obj 589 15 t f f;
#X obj 616 38 sel 3, f 14;
#X msg 181 296 p-1 \$1;
#X obj 188 221 / 10;
#X obj 160 174 f;
#X obj 188 175 + 1;
#X obj 188 198 % 10;
#X obj 181 271 * 0.75;
#X msg 584 369 trans \$1;
#X obj 586 277 sel 0 1 2 3 4, f 23;
#X msg 587 310 0;
#X obj 557 204 f;
#X obj 585 205 + 1;
#X obj 586 252 % 5;
#X obj 586 228 + \$2;
#X msg 675 313 14;
#X msg 622 313 6;
#X msg 656 313 11;
#X obj 181 243 pow 2;
#X obj 150 154 sel 0;
#X connect 0 0 12 0;
#X connect 1 0 13 0;
#X connect 3 0 7 0;
#X connect 3 1 2 0;
#X connect 5 0 30 0;
#X connect 5 0 50 0;
#X connect 6 0 30 1;
#X connect 7 0 5 3;
#X connect 7 1 8 0;
#X connect 8 0 11 0;
#X connect 9 0 5 0;
#X connect 10 0 30 1;
#X connect 11 0 10 0;
#X connect 12 0 1 1;
#X connect 12 1 3 0;
#X connect 14 0 31 0;
#X connect 15 0 30 1;
#X connect 16 0 17 0;
#X connect 16 1 17 1;
#X connect 16 2 17 2;
#X connect 17 0 18 0;
#X connect 17 1 18 1;
#X connect 18 0 29 0;
#X connect 19 0 1 0;
#X connect 20 0 1 0;
#X connect 21 0 30 1;
#X connect 22 0 23 0;
#X connect 23 0 21 0;
#X connect 24 0 23 1;
#X connect 25 0 26 0;
#X connect 26 0 28 0;
#X connect 27 0 26 1;
#X connect 28 0 30 1;
#X connect 29 0 19 0;
#X connect 29 1 20 0;
#X connect 30 0 16 0;
#X connect 31 0 15 0;
#X connect 31 1 32 0;
#X connect 33 0 29 1;
#X connect 34 0 49 0;
#X connect 35 0 36 0;
#X connect 36 0 35 1;
#X connect 36 0 37 0;
#X connect 37 0 34 0;
#X connect 38 0 33 0;
#X connect 39 0 29 1;
#X connect 40 0 41 0;
#X connect 40 1 47 0;
#X connect 40 2 48 0;
#X connect 40 3 46 0;
#X connect 40 4 47 0;
#X connect 41 0 39 0;
#X connect 42 0 43 0;
#X connect 43 0 42 1;
#X connect 43 0 45 0;
#X connect 44 0 40 0;
#X connect 45 0 44 0;
#X connect 46 0 39 0;
#X connect 47 0 39 0;
#X connect 48 0 39 0;
#X connect 49 0 38 0;
#X connect 50 0 35 0;
#X restore 285 261 pd fm-1;
#N canvas 274 116 760 701 fm-2 0;
#X obj 287 304 inlet switch;
#X obj 80 463 *~, f 35;
#X obj 455 483 switch~;
#X obj 428 457 t f f;
#X obj 563 -45 declare -path ../jwy-bibliothek;
#X obj 80 380 drum-bank;
#X obj 80 401 *~ 0.8;
#X obj 83 113 count-ticks 360 4;
#X msg 347 26 openTxt;
#X obj 219 -4 t f f;
#X obj 246 22 sel 1;
#X obj 83 16 r main-ticks;
#X obj 80 318 pack 0 0;
#X obj 83 164 t a b;
#X msg 246 79 read \$1;
#X msg 419 78 write \$1;
#X obj 418 28 bng 15 250 50 0 empty empty empty 17 7 0 10 -262144 -1
-1;
#X obj 246 43 f \$2;
#X obj 420 55 f \$2;
#X obj 83 143 seqq 360 ../bs-compose/texts/\$1 1;
#X obj 292 -21 bng 15 250 50 0 empty empty empty 17 7 0 10 -262144
-1 -1;
#X obj 125 189 random 126;
#X obj 125 210 + 1;
#X obj 125 231 / 127;
#X obj 125 273 * 127;
#X obj 125 294 i;
#X obj 125 252 pow 8;
#X obj 287 435 switch-control 20 20;
#X obj 80 484 outlet~;
#X obj 589 -6 inlet;
#X msg 589 59 read \$1;
#X connect 0 0 27 0;
#X connect 1 0 28 0;
#X connect 3 0 9 0;
#X connect 3 1 2 0;
#X connect 5 0 6 0;
#X connect 6 0 1 0;
#X connect 7 0 19 0;
#X connect 8 0 19 1;
#X connect 9 0 7 3;
#X connect 9 1 10 0;
#X connect 10 0 17 0;
#X connect 11 0 7 0;
#X connect 12 0 5 0;
#X connect 13 0 12 0;
#X connect 13 1 21 0;
#X connect 14 0 19 1;
#X connect 15 0 19 1;
#X connect 16 0 18 0;
#X connect 17 0 14 0;
#X connect 18 0 15 0;
#X connect 19 0 13 0;
#X connect 20 0 17 0;
#X connect 21 0 22 0;
#X connect 22 0 23 0;
#X connect 23 0 26 0;
#X connect 24 0 25 0;
#X connect 25 0 12 1;
#X connect 26 0 24 0;
#X connect 27 0 1 1;
#X connect 27 1 3 0;
#X connect 29 0 30 0;
#X connect 30 0 19 1;
#X restore 475 261 pd fm-2;
#N canvas 274 116 760 701 fm-3 0;
#X obj 287 304 inlet switch;
#X obj 80 463 *~, f 35;
#X obj 455 483 switch~;
#X obj 428 457 t f f;
#X obj 563 -45 declare -path ../jwy-bibliothek;
#X obj 80 380 drum-bank;
#X obj 80 401 *~ 0.8;
#X obj 83 113 count-ticks 360 4;
#X msg 347 26 openTxt;
#X obj 219 -4 t f f;
#X obj 246 22 sel 1;
#X obj 83 16 r main-ticks;
#X obj 80 318 pack 0 0;
#X obj 83 164 t a b;
#X msg 246 79 read \$1;
#X msg 419 78 write \$1;
#X obj 418 28 bng 15 250 50 0 empty empty empty 17 7 0 10 -262144 -1
-1;
#X obj 246 43 f \$2;
#X obj 420 55 f \$2;
#X obj 83 143 seqq 360 ../bs-compose/texts/\$1 1;
#X obj 292 -21 bng 15 250 50 0 empty empty empty 17 7 0 10 -262144
-1 -1;
#X obj 125 189 random 126;
#X obj 125 210 + 1;
#X obj 125 231 / 127;
#X obj 125 273 * 127;
#X obj 125 294 i;
#X obj 125 252 pow 8;
#X obj 287 435 switch-control 20 20;
#X obj 80 484 outlet~;
#X obj 589 -6 inlet;
#X msg 589 59 read \$1;
#X connect 0 0 27 0;
#X connect 1 0 28 0;
#X connect 3 0 9 0;
#X connect 3 1 2 0;
#X connect 5 0 6 0;
#X connect 6 0 1 0;
#X connect 7 0 19 0;
#X connect 8 0 19 1;
#X connect 9 0 7 3;
#X connect 9 1 10 0;
#X connect 10 0 17 0;
#X connect 11 0 7 0;
#X connect 12 0 5 0;
#X connect 13 0 12 0;
#X connect 13 1 21 0;
#X connect 14 0 19 1;
#X connect 15 0 19 1;
#X connect 16 0 18 0;
#X connect 17 0 14 0;
#X connect 18 0 15 0;
#X connect 19 0 13 0;
#X connect 20 0 17 0;
#X connect 21 0 22 0;
#X connect 22 0 23 0;
#X connect 23 0 26 0;
#X connect 24 0 25 0;
#X connect 25 0 12 1;
#X connect 26 0 24 0;
#X connect 27 0 1 1;
#X connect 27 1 3 0;
#X connect 29 0 30 0;
#X connect 30 0 19 1;
#X restore 655 261 pd fm-3;
#X obj 699 387 r \$0-whihc-pattern;
#X obj 654 292 r \$0-which-voice;
#X obj 654 313 sel 1, f 9;
#X msg 654 334 1;
#X obj 705 336 t b;
#X msg 705 357 0;
#N canvas 274 116 760 701 analogue-1 0;
#X obj 287 304 inlet switch;
#X obj 80 463 *~, f 35;
#X obj 455 483 switch~;
#X obj 428 457 t f f;
#X obj 563 -45 declare -path ../jwy-bibliothek;
#X obj 80 380 drum-bank;
#X obj 80 401 *~ 0.8;
#X obj 83 113 count-ticks 360 4;
#X msg 347 26 openTxt;
#X obj 219 -4 t f f;
#X obj 246 22 sel 1;
#X obj 83 16 r main-ticks;
#X obj 80 318 pack 0 0;
#X obj 83 164 t a b;
#X msg 246 79 read \$1;
#X msg 419 78 write \$1;
#X obj 418 28 bng 15 250 50 0 empty empty empty 17 7 0 10 -262144 -1
-1;
#X obj 246 43 f \$2;
#X obj 420 55 f \$2;
#X obj 83 143 seqq 360 ../bs-compose/texts/\$1 1;
#X obj 292 -21 bng 15 250 50 0 empty empty empty 17 7 0 10 -262144
-1 -1;
#X obj 125 189 random 126;
#X obj 125 210 + 1;
#X obj 125 231 / 127;
#X obj 125 273 * 127;
#X obj 125 294 i;
#X obj 125 252 pow 8;
#X obj 287 435 switch-control 20 20;
#X obj 80 484 outlet~;
#X obj 589 -6 inlet;
#X msg 589 59 read \$1;
#X connect 0 0 27 0;
#X connect 1 0 28 0;
#X connect 3 0 9 0;
#X connect 3 1 2 0;
#X connect 5 0 6 0;
#X connect 6 0 1 0;
#X connect 7 0 19 0;
#X connect 8 0 19 1;
#X connect 9 0 7 3;
#X connect 9 1 10 0;
#X connect 10 0 17 0;
#X connect 11 0 7 0;
#X connect 12 0 5 0;
#X connect 13 0 12 0;
#X connect 13 1 21 0;
#X connect 14 0 19 1;
#X connect 15 0 19 1;
#X connect 16 0 18 0;
#X connect 17 0 14 0;
#X connect 18 0 15 0;
#X connect 19 0 13 0;
#X connect 20 0 17 0;
#X connect 21 0 22 0;
#X connect 22 0 23 0;
#X connect 23 0 26 0;
#X connect 24 0 25 0;
#X connect 25 0 12 1;
#X connect 26 0 24 0;
#X connect 27 0 1 1;
#X connect 27 1 3 0;
#X connect 29 0 30 0;
#X connect 30 0 19 1;
#X restore 654 415 pd analogue-1;
#X connect 0 0 2 0;
#X connect 1 0 4 0;
#X connect 2 0 6 0;
#X connect 4 0 2 1;
#X connect 4 1 5 0;
#X connect 5 1 3 0;
#X connect 7 0 9 0;
#X connect 8 0 0 1;
#X connect 10 0 11 0;
#X connect 11 0 12 0;
#X connect 11 1 13 0;
#X connect 12 0 0 0;
#X connect 13 0 14 0;
#X connect 14 0 0 0;
#X connect 15 0 33 1;
#X connect 16 0 17 0;
#X connect 17 0 18 0;
#X connect 17 1 19 0;
#X connect 18 0 33 0;
#X connect 19 0 20 0;
#X connect 20 0 33 0;
#X connect 21 0 34 1;
#X connect 22 0 23 0;
#X connect 23 0 24 0;
#X connect 23 1 25 0;
#X connect 24 0 34 0;
#X connect 25 0 26 0;
#X connect 26 0 34 0;
#X connect 27 0 35 1;
#X connect 28 0 29 0;
#X connect 29 0 30 0;
#X connect 29 1 31 0;
#X connect 30 0 35 0;
#X connect 31 0 32 0;
#X connect 32 0 35 0;
#X connect 33 0 2 0;
#X connect 36 0 42 1;
#X connect 37 0 38 0;
#X connect 38 0 39 0;
#X connect 38 1 40 0;
#X connect 39 0 42 0;
#X connect 40 0 41 0;
#X connect 41 0 42 0;
