#N canvas 0 23 1130 699 10;
#X obj 101 33 r master-count;
#X text 226 37 the minutes;
#X text 43 13 the Movements 100;
#X text 700 367 last 10 minutes is feedback stuff;
#X obj 138 492 t b b;
#X msg 166 514 1;
#X msg 138 513 0;
#X obj 263 492 t b b;
#X msg 290 513 1;
#X msg 263 513 0;
#X obj 387 495 t b b;
#X msg 414 516 1;
#X msg 387 516 0;
#X obj 514 497 t b b;
#X msg 541 518 1;
#X msg 514 518 0;
#X obj 644 497 t b b;
#X msg 671 518 1;
#X msg 644 518 0;
#X obj 134 60 sel 0 5 10 15 20 25 30, f 126;
#X msg 131 114 1;
#X msg 223 128 0;
#X obj 224 91 t b b;
#X msg 251 129 1;
#X obj 349 92 t b b;
#X msg 377 114 1;
#X msg 349 113 0;
#X obj 474 92 t b b;
#X msg 501 113 1;
#X msg 474 113 0;
#X obj 598 95 t b b;
#X msg 625 116 1;
#X msg 598 116 0;
#X obj 725 97 t b b;
#X msg 752 118 1;
#X msg 725 118 0;
#X obj 855 97 t b b;
#X msg 882 118 1;
#X msg 855 118 0;
#X obj 31 136 t b b;
#X msg 31 157 0;
#X obj 148 466 sel 35 40 45 50 55, f 104;
#X obj 127 220 drum-spin nSpin \$1;
#X obj 251 217 drum-spin kSpin \$1;
#X obj 377 217 fm-spiral fm1 \$1 fb1;
#X obj 561 213 fm-spiral fm2 \$1 fb2;
#X obj 702 212 fm-spiral fm3 \$1 fb3;
#X obj 264 561 fB-1;
#X obj 403 561 fb-2;
#X connect 0 0 19 0;
#X connect 4 0 6 0;
#X connect 4 1 5 0;
#X connect 7 0 9 0;
#X connect 7 1 8 0;
#X connect 10 0 12 0;
#X connect 10 1 11 0;
#X connect 13 0 15 0;
#X connect 13 1 14 0;
#X connect 16 0 18 0;
#X connect 16 1 17 0;
#X connect 19 0 39 0;
#X connect 19 1 22 0;
#X connect 19 2 24 0;
#X connect 19 3 27 0;
#X connect 19 4 30 0;
#X connect 19 5 33 0;
#X connect 19 6 36 0;
#X connect 19 7 41 0;
#X connect 20 0 42 0;
#X connect 21 0 42 0;
#X connect 22 0 21 0;
#X connect 22 1 23 0;
#X connect 23 0 43 0;
#X connect 24 0 26 0;
#X connect 24 1 25 0;
#X connect 25 0 44 0;
#X connect 26 0 43 0;
#X connect 27 0 29 0;
#X connect 27 1 28 0;
#X connect 28 0 45 0;
#X connect 29 0 44 0;
#X connect 30 0 32 0;
#X connect 30 1 31 0;
#X connect 31 0 45 0;
#X connect 32 0 44 0;
#X connect 33 0 35 0;
#X connect 33 1 34 0;
#X connect 34 0 46 0;
#X connect 35 0 45 0;
#X connect 36 0 38 0;
#X connect 36 1 37 0;
#X connect 39 0 40 0;
#X connect 39 1 20 0;
#X connect 41 0 4 0;
#X connect 41 1 7 0;
#X connect 41 2 10 0;
#X connect 41 3 13 0;
#X connect 41 4 16 0;
