#N canvas 173 156 1130 699 10;
#X obj 17 97 r master-count;
#X text 43 13 the Movements 100;
#X obj 17 240 drum-spin nSpin \$1;
#X obj 141 237 drum-spin kSpin \$1;
#X obj 287 238 fm-spiral fm1 \$1 fb-1;
#X obj 431 233 fm-spiral fm2 \$1 fb-2;
#X obj 567 232 fm-spiral fm3 \$1 fb-3;
#X obj 17 130 chunk-switch 0 5;
#X obj 141 130 chunk-switch 5 10;
#X obj 141 96 r master-count;
#X obj 287 97 r master-count;
#X obj 431 96 r master-count;
#X obj 567 97 r master-count;
#X obj 698 75 r master-count;
#X obj 287 130 chunk-switch 15 20;
#X obj 567 130 chunk-switch 35 40;
#X obj 851 68 r master-count;
#X obj 721 180 chunk-switch 45 55;
#X obj 851 180 chunk-switch 50 60;
#X obj 431 130 chunk-switch 25 30;
#X obj 541 21 inlet start-fb-1;
#X obj 720 21 inlet start-fb-2;
#X obj 852 223 fb-2 \$1 1;
#X obj 721 230 fB-1 \$1 simple-2;
#X connect 0 0 7 0;
#X connect 7 0 2 0;
#X connect 8 0 3 0;
#X connect 9 0 8 0;
#X connect 10 0 14 0;
#X connect 11 0 19 0;
#X connect 12 0 15 0;
#X connect 13 0 17 0;
#X connect 14 0 4 0;
#X connect 15 0 6 0;
#X connect 16 0 18 0;
#X connect 17 0 23 0;
#X connect 18 0 22 0;
#X connect 19 0 5 0;
#X connect 20 0 23 1;
#X connect 21 0 22 1;
